<svg width="28" height="29" viewBox="0 0 28 29" fill="none" xmlns="http://www.w3.org/2000/svg">
<path d="M8.12 0.0689392H19.88C24.36 0.0689392 28 3.70894 28 8.18894V19.9489C28 22.1025 27.1445 24.1679 25.6217 25.6906C24.0989 27.2134 22.0336 28.0689 19.88 28.0689H8.12C3.64 28.0689 0 24.4289 0 19.9489V8.18894C0 6.03538 0.855498 3.97003 2.37829 2.44723C3.90109 0.924437 5.96644 0.0689392 8.12 0.0689392ZM7.84 2.86894C6.50331 2.86894 5.22137 3.39994 4.27618 4.34512C3.331 5.2903 2.8 6.57225 2.8 7.90894V20.2289C2.8 23.0149 5.054 25.2689 7.84 25.2689H20.16C21.4967 25.2689 22.7786 24.7379 23.7238 23.7928C24.669 22.8476 25.2 21.5656 25.2 20.2289V7.90894C25.2 5.12294 22.946 2.86894 20.16 2.86894H7.84ZM21.35 4.96894C21.8141 4.96894 22.2592 5.15331 22.5874 5.4815C22.9156 5.80969 23.1 6.25481 23.1 6.71894C23.1 7.18307 22.9156 7.62819 22.5874 7.95638C22.2592 8.28456 21.8141 8.46894 21.35 8.46894C20.8859 8.46894 20.4408 8.28456 20.1126 7.95638C19.7844 7.62819 19.6 7.18307 19.6 6.71894C19.6 6.25481 19.7844 5.80969 20.1126 5.4815C20.4408 5.15331 20.8859 4.96894 21.35 4.96894ZM14 7.06894C15.8565 7.06894 17.637 7.80644 18.9497 9.11919C20.2625 10.4319 21 12.2124 21 14.0689C21 15.9255 20.2625 17.7059 18.9497 19.0187C17.637 20.3314 15.8565 21.0689 14 21.0689C12.1435 21.0689 10.363 20.3314 9.05025 19.0187C7.7375 17.7059 7 15.9255 7 14.0689C7 12.2124 7.7375 10.4319 9.05025 9.11919C10.363 7.80644 12.1435 7.06894 14 7.06894ZM14 9.86894C12.8861 9.86894 11.8178 10.3114 11.0302 11.0991C10.2425 11.8867 9.8 12.955 9.8 14.0689C9.8 15.1828 10.2425 16.2511 11.0302 17.0388C11.8178 17.8264 12.8861 18.2689 14 18.2689C15.1139 18.2689 16.1822 17.8264 16.9698 17.0388C17.7575 16.2511 18.2 15.1828 18.2 14.0689C18.2 12.955 17.7575 11.8867 16.9698 11.0991C16.1822 10.3114 15.1139 9.86894 14 9.86894Z" fill="#2F2F2F"/>
</svg>
