<svg width="17" height="18" viewBox="0 0 17 18" fill="none" xmlns="http://www.w3.org/2000/svg">
<path d="M16.9789 13.9385C17.0422 14.1918 16.9631 14.4292 16.7418 14.6508L14.3704 17.0251C14.1175 17.2784 13.8013 17.4367 13.4219 17.5H13.0899C10.4972 17.5 7.66741 15.9646 4.60043 12.8939C1.53346 9.82308 0 6.87897 0 4.06145C0.0632367 3.68156 0.221325 3.36499 0.474272 3.11173L2.89306 0.73743C3.05115 0.579143 3.24085 0.5 3.46218 0.5C3.77836 0.5 4.0155 0.658285 4.17359 0.97486L6.1181 4.5838C6.33943 5.027 6.26039 5.43855 5.88097 5.81844L5.02728 6.72067C4.96404 6.78399 4.93242 6.86313 4.93242 6.9581C4.96404 7.74954 5.70706 8.87336 7.1615 10.3296C7.79386 10.9628 8.3946 11.4693 8.96373 11.8492C9.53286 12.2291 9.94389 12.4507 10.1968 12.514L10.5763 12.6089C10.6079 12.6089 10.6711 12.5615 10.766 12.4665L11.8094 11.4693C12.0307 11.2477 12.2836 11.1369 12.5682 11.1369C12.7263 11.1369 12.8844 11.1844 13.0425 11.2793H13.0899L16.5521 13.3212C16.7734 13.4479 16.9157 13.6536 16.9789 13.9385Z" fill="#88A640"/>
</svg>
