<svg width="18" height="12" viewBox="0 0 18 12" fill="none" xmlns="http://www.w3.org/2000/svg">
<path d="M0.595652 1.2899C0.712723 1.35505 1.15823 1.59609 1.9322 2.01303C2.70616 2.42997 3.53865 2.87622 4.42968 3.35179C5.32072 3.82736 6.13694 4.2671 6.87839 4.67101C7.61983 5.07492 8.02307 5.2899 8.08811 5.31596C8.20518 5.38111 8.34176 5.42997 8.49785 5.46254C8.65394 5.49511 8.81654 5.5114 8.98564 5.5114C9.15474 5.5114 9.31734 5.49511 9.47343 5.46254C9.62952 5.42997 9.7661 5.38111 9.88317 5.31596C9.94821 5.2899 10.3514 5.07492 11.0929 4.67101C11.8343 4.2671 12.6506 3.82736 13.5416 3.35179C14.4326 2.87622 15.2651 2.42997 16.0391 2.01303C16.813 1.59609 17.2586 1.35505 17.3756 1.2899C17.6228 1.15961 17.8081 0.912054 17.9317 0.547231C18.0553 0.182409 17.8894 0 17.4342 0H0.537118C0.0818443 0 -0.0840024 0.182409 0.0395719 0.547231C0.163146 0.912054 0.348504 1.15961 0.595652 1.2899ZM17.6098 3.49837C17.4667 3.56352 17.0017 3.8013 16.2147 4.21173C15.4277 4.62215 14.579 5.06514 13.6684 5.54072C12.7579 6.01629 11.9221 6.45277 11.1612 6.85016C10.4002 7.24756 9.97423 7.47231 9.88317 7.52443C9.71407 7.61564 9.56448 7.67101 9.43441 7.69055C9.30433 7.7101 9.15474 7.71987 8.98564 7.71987C8.81654 7.71987 8.66695 7.7101 8.53687 7.69055C8.4068 7.67101 8.25721 7.61564 8.08811 7.52443C7.99705 7.47231 7.57105 7.24756 6.8101 6.85016C6.04914 6.45277 5.21665 6.01629 4.31261 5.54072C3.40857 5.06514 2.56633 4.62215 1.78586 4.21173C1.00539 3.8013 0.543622 3.56352 0.400536 3.49837C0.205419 3.39414 0.0916026 3.38111 0.0590835 3.45928C0.0265637 3.53746 0.0103045 3.62215 0.0103045 3.71336C0.0103045 3.75244 0.0103045 4.15635 0.0103045 4.92508C0.0103045 5.69381 0.0103045 6.52768 0.0103045 7.42671C0.0103045 8.32574 0.0103045 9.14658 0.0103045 9.88925C0.0103045 10.6319 0.0103045 11.0033 0.0103045 11.0033C0.0103045 11.2117 0.124121 11.43 0.351757 11.658C0.579394 11.886 0.797271 12 1.0054 12H17.0049C17.213 12 17.4309 11.886 17.6585 11.658C17.8862 11.43 18 11.2117 18 11.0033C18 11.0033 18 10.6319 18 9.88925C18 9.14658 18 8.32574 18 7.42671C18 6.52768 18 5.69381 18 4.92508C18 4.15635 18 3.75244 18 3.71336C18 3.62215 17.9837 3.53746 17.9512 3.45928C17.9187 3.38111 17.8049 3.39414 17.6098 3.49837Z" fill="#88A640"/>
</svg>
