<svg width="20" height="18" viewBox="0 0 20 18" fill="none" xmlns="http://www.w3.org/2000/svg">
<path d="M19.3222 10.1578H17.4945V16.8859C17.4945 17.1335 17.4236 17.3811 17.2819 17.6286C17.1402 17.8762 16.8498 18 16.4106 18H12.0537V11.2937H7.71817V18H3.36134C2.92212 18 2.63166 17.8762 2.48998 17.6286C2.34829 17.3811 2.27745 17.1335 2.27745 16.8859V10.1578H0.449709C0.123831 10.1578 -0.0249368 10.0777 0.00340052 9.91748C0.0317378 9.75728 0.159253 9.56068 0.385951 9.32767L9.12085 0.349515C9.22003 0.233009 9.33692 0.145632 9.47152 0.0873786C9.60612 0.0291258 9.74427 0 9.88595 0C10.0276 0 10.1658 0.0291258 10.3004 0.0873786C10.435 0.145632 10.5519 0.233009 10.6511 0.349515L19.386 9.32767C19.6127 9.56068 19.7402 9.75728 19.7685 9.91748C19.7968 10.0777 19.6481 10.1578 19.3222 10.1578Z" fill="#88A640"/>
</svg>
