<?xml version="1.0" encoding="UTF-8"?>
<svg id="mask_x5F_3" data-name="mask_x5F_3" xmlns="http://www.w3.org/2000/svg" width="339" height="208" viewBox="0 0 339 208.7">
  <g id="mask_x5F_3">
    <path d="M339,112v5c-1.45,3.64-1.06,7.56-1.77,11.32-5.41,29-21.84,50.64-45.01,67.83-13.92,10.33-29.43,14.09-46.67,12-14.43-1.75-28.48-5.4-42.75-7.88-11.48-1.99-22.93-3.67-34.74-2.68-16.5,1.39-32.57,5.2-48.86,7.71-15.39,2.37-30.78,3.18-45.07-4.02-22.2-11.18-42.21-25.37-57.82-45.16-8.9-11.28-14.22-23.98-16.32-38.12v-4c1.69-7.62,2.84-15.34,7.67-21.95,7.15-9.81,17.1-15.68,27.79-20.55,13.52-6.16,27.76-10.42,41.75-15.31,18.92-6.62,36.31-15.76,51.42-29.11,6.23-5.51,12.82-10.63,19.74-15.31,10.49-7.09,22.23-10.36,34.63-11.76,2,0,4,0,6,0,1.46.32,2.9.83,4.38.93,16.4,1.05,31.74,5.83,46.18,13.42,26.29,13.82,51.33,29.64,73.91,49,11.3,9.69,19.82,21.57,23.37,36.39.96,4.03,1.45,8.17,2.16,12.25Z"/>
  </g>
</svg>