<?xml version="1.0" encoding="UTF-8"?>
<svg id="mask2" data-name="mask2" xmlns="http://www.w3.org/2000/svg" width="220" height="219" viewBox="0 0 220 219">
  <g id="mask2">
    <path d="M170,0c2.33,0,4.67,0,7,0,2.12.37,4.22.92,6.36,1.09,18.23,1.41,33.96,13.44,35.9,31.54.09.81.49,1.58.74,2.38v5c-2.47,16.02-7.82,31.31-11.78,46.96-3.29,13.01-3.17,26.06-.43,39.11,1.54,7.33,3.47,14.58,5.15,21.89,1.6,6.98,3.06,13.98,3.03,21.22-.08,18.57-11.01,30.95-29.39,33.88-8.91,1.42-17.63.34-26.35-.77-19.42-2.47-38.68-4.3-57.93,1.55-18.29,5.56-36.18,12.64-55.31,15.17h-5c-3.24-.71-6.57-1.15-9.7-2.19-17.45-5.78-26.3-18.86-29.91-36.09C1.24,175.23.78,169.58,0,164c0-2.67,0-5.33,0-8,.31-1.46.84-2.91.91-4.38,1.02-20.79,4.08-41.38,6.25-62.06,1.86-17.77,5.1-35.3,13.77-51.27C29.96,21.66,43.26,10.36,62.11,6.34c7.67-1.63,15.44-2.26,23.3-2.36,18.62-.25,37.27,1.06,55.87-.95C150.84,1.99,160.42,1.01,170,0Z"/>
  </g>
</svg>