<?xml version="1.0" encoding="UTF-8"?>
<svg id="mask_4" data-name="mask_4" xmlns="http://www.w3.org/2000/svg" width="288" height="234" viewBox="0 0 288 234">
  <g id="mask_4" data-name="mask_4">
    <path d="M81,234h-22c-6.47-2.58-13-4.99-18.65-9.29-18.9-14.38-30.35-33.57-36.36-56.24C2.46,162.69,1.32,156.82,0,151c0-10.33,0-20.67,0-31,.43-1.25.98-2.48,1.28-3.77,3.32-14.69,10-27.7,19.07-39.69,10.3-13.61,22.6-25.25,35.32-36.46,15.85-13.96,33.38-25.17,53.42-32.34,10.41-3.72,21.23-5.35,31.92-7.74h41c1.94.42,3.86.98,5.82,1.23,43.64,5.55,72.52,30.29,90.58,69.32,4.95,10.69,6.9,22.16,9.6,33.45v20c-.43,1.77-.98,3.52-1.28,5.32-1.46,8.82-4.62,16.98-9.11,24.69-10.58,18.2-26.77,30.62-43.32,42.83-15.57,11.49-32.58,17.16-52.04,17.45-10.43.16-20.96.03-31.4,1.14-24.25,2.59-46.4,13.05-69.86,18.57Z"/>
  </g>
</svg>