<svg width="235" height="109" viewBox="0 0 235 109" fill="none" xmlns="http://www.w3.org/2000/svg">
<path d="M14.2412 45.6163C12.4949 45.6163 11.0465 45.4931 9.89601 45.2465C8.74549 45.0205 7.83125 44.6096 7.15327 44.0138C6.49583 43.3975 6.0233 42.5552 5.73567 41.4868C5.44805 40.4185 5.30423 39.0523 5.30423 37.3881V29.1907C5.30423 27.5266 5.44805 26.1604 5.73567 25.092C6.0233 24.0237 6.49583 23.1916 7.15327 22.5958C7.83125 21.9795 8.74549 21.5583 9.89601 21.3323C11.0465 21.0858 12.4949 20.9625 14.2412 20.9625H16.5834C18.3297 20.9625 19.7781 21.0858 20.9286 21.3323C22.0791 21.5583 22.9831 21.9795 23.6405 22.5958C24.3185 23.1916 24.8013 24.0237 25.0889 25.092C25.3765 26.1604 25.5204 27.5266 25.5204 29.1907V37.3881C25.5204 39.0523 25.3765 40.4185 25.0889 41.4868C24.8013 42.5552 24.3185 43.3975 23.6405 44.0138C22.9831 44.6096 22.0791 45.0205 20.9286 45.2465C19.7781 45.4931 18.3297 45.6163 16.5834 45.6163H14.2412ZM14.2412 42.1648H16.5834C18.042 42.1648 19.1309 42.0518 19.85 41.8258C20.5896 41.5793 21.0827 41.117 21.3292 40.439C21.5963 39.7611 21.7298 38.7441 21.7298 37.3881V34.7378H9.09476V37.3881C9.09476 38.7441 9.21803 39.7611 9.46456 40.439C9.73165 41.117 10.235 41.5793 10.9746 41.8258C11.7142 42.0518 12.8031 42.1648 14.2412 42.1648ZM9.09476 31.3788H21.7298V29.1907C21.7298 27.8348 21.5963 26.8178 21.3292 26.1398C21.0827 25.4413 20.5896 24.979 19.85 24.7531C19.1309 24.5271 18.042 24.4141 16.5834 24.4141H14.2412C12.8031 24.4141 11.7142 24.5271 10.9746 24.7531C10.235 24.979 9.73165 25.4413 9.46456 26.1398C9.21803 26.8178 9.09476 27.8348 9.09476 29.1907V31.3788ZM52.7936 44.3528C52.4033 44.6816 51.941 44.8254 51.4069 44.7843C50.8727 44.7432 50.431 44.5275 50.0817 44.1371C49.4859 43.4386 48.736 42.6579 47.8321 41.795C46.9486 40.9321 46.0344 40.1001 45.0893 39.2988C44.1648 38.477 43.3019 37.7785 42.5007 37.2032C42.1514 36.9567 41.946 36.5972 41.8843 36.1246C41.8432 35.6521 41.9562 35.2515 42.2233 34.9228C42.5315 34.5529 42.9116 34.327 43.3636 34.2448C43.8361 34.1626 44.2778 34.2653 44.6887 34.5529C45.1407 34.8611 45.6132 35.2104 46.1063 35.6007C46.6199 35.9911 47.1438 36.402 47.678 36.8334C48.3765 36.1554 49.0956 35.4056 49.8352 34.5838C50.5953 33.7414 51.2631 32.971 51.8383 32.2725C52.2492 31.7178 52.3828 31.276 52.2389 30.9473C52.1157 30.6186 51.6534 30.4645 50.8522 30.4851C49.7838 30.5056 48.6436 30.5364 47.4314 30.5775C46.2398 30.5981 45.2023 30.6186 44.3189 30.6392C43.23 32.0157 42.059 33.3203 40.8057 34.5529C39.573 35.7856 38.3506 36.8848 37.1385 37.8504C36.707 38.1791 36.2345 38.3537 35.7209 38.3743C35.2073 38.3743 34.7758 38.1483 34.4266 37.6963C34.1184 37.3265 33.9848 36.9053 34.0259 36.4328C34.0876 35.9397 34.3136 35.5494 34.7039 35.2617C35.7312 34.5221 36.7584 33.6592 37.7856 32.6731C38.8129 31.6664 39.799 30.6083 40.7441 29.4989C41.6892 28.3895 42.5418 27.2698 43.3019 26.1398C44.0826 25.0099 44.7298 23.921 45.2434 22.8732C45.4694 22.4007 45.8187 22.113 46.2912 22.0103C46.7843 21.887 47.2465 21.9384 47.678 22.1644C48.1094 22.3904 48.397 22.7191 48.5409 23.1506C48.6847 23.582 48.6436 24.0134 48.4176 24.4449C47.9451 25.3694 47.3801 26.3247 46.7226 27.3109C47.5033 27.2903 48.2841 27.2801 49.0648 27.2801C49.866 27.2595 50.6159 27.239 51.3144 27.2184C52.958 27.1773 54.1907 27.4855 55.0125 28.143C55.8548 28.8004 56.2657 29.653 56.2452 30.7008C56.2246 31.728 55.7624 32.8066 54.8584 33.9366C54.1599 34.7995 53.4203 35.6624 52.6396 36.5253C51.8589 37.3676 51.0576 38.1894 50.2358 38.9906C51.3041 39.9562 52.2081 40.8294 52.9477 41.6101C53.3175 42.0005 53.4819 42.473 53.4408 43.0277C53.4203 43.5619 53.2045 44.0036 52.7936 44.3528ZM76.2851 44.9276C75.8829 45.0241 75.5049 44.9678 75.151 44.7587C74.7971 44.5496 74.5718 44.252 74.4753 43.8659C74.3788 43.4798 74.4351 43.1179 74.6442 42.78C74.8534 42.4261 75.151 42.2009 75.537 42.1044C77.3227 41.6379 78.6337 40.8818 79.4702 39.8362C80.3228 38.7906 80.7491 37.4634 80.7491 35.8548C80.7491 34.8413 80.5239 33.9324 80.0735 33.1281C79.623 32.3237 78.9796 31.6722 78.1431 31.1736C77.3227 30.6749 76.3333 30.3692 75.1751 30.2566C74.8855 32.9592 74.3949 35.2998 73.7032 37.2784C73.0275 39.241 72.2232 40.7612 71.2902 41.839C70.3732 42.9007 69.408 43.4316 68.3946 43.4316C67.542 43.4316 66.7618 43.1822 66.054 42.6835C65.3462 42.1848 64.7831 41.469 64.3649 40.536C63.9627 39.6029 63.7616 38.4849 63.7616 37.1819C63.7616 35.8467 64.011 34.6 64.5097 33.4418C65.0244 32.2674 65.7483 31.2379 66.6814 30.3531C67.6144 29.4684 68.7083 28.7766 69.963 28.278C71.2339 27.7793 72.6254 27.5299 74.1375 27.5299C75.9714 27.5299 77.5961 27.8838 79.0117 28.5917C80.4435 29.2834 81.5695 30.2566 82.3899 31.5114C83.2104 32.75 83.6206 34.1978 83.6206 35.8548C83.6206 38.1873 82.9932 40.1338 81.7384 41.6942C80.4998 43.2385 78.682 44.3163 76.2851 44.9276ZM68.4187 40.4636C68.7083 40.4636 69.038 40.2223 69.408 39.7397C69.7941 39.241 70.1802 38.5412 70.5663 37.6404C70.9524 36.7395 71.3063 35.6778 71.628 34.4552C71.9497 33.2166 72.191 31.8492 72.3519 30.3531C71.0971 30.5944 70.0435 31.0609 69.1909 31.7527C68.3383 32.4283 67.6948 33.2407 67.2605 34.1898C66.8261 35.1228 66.6009 36.1041 66.5848 37.1336C66.5848 38.2275 66.7537 39.056 67.0916 39.619C67.4455 40.1821 67.8879 40.4636 68.4187 40.4636ZM98.0642 47.1572C97.5711 47.301 97.0883 47.2908 96.6158 47.1264C96.1638 46.9826 95.8248 46.6847 95.5988 46.2327C95.3934 45.7602 95.3728 45.2774 95.5372 44.7843C95.7016 44.2912 96.02 43.9522 96.4925 43.7673C98.0539 43.1715 99.2661 42.5038 100.129 41.7642C100.992 41.0246 101.598 40.172 101.947 39.2064C101.249 39.5351 100.56 39.6994 99.8824 39.6994C98.2594 39.6994 96.9343 39.2885 95.907 38.4667C94.8798 37.6244 94.3661 36.3917 94.3661 34.7687C94.3661 33.1456 94.9003 31.8718 95.9686 30.9473C97.037 30.0228 98.3827 29.5605 100.006 29.5605C100.15 29.5605 100.283 29.5708 100.406 29.5914C100.53 29.5914 100.663 29.6016 100.807 29.6222C100.745 29.2729 100.694 28.9134 100.653 28.5436C100.632 28.1738 100.612 27.7834 100.591 27.3725C98.5368 27.4547 96.5131 27.578 94.5202 27.7423C92.5479 27.8861 90.7092 28.0402 89.0039 28.2046C88.5109 28.2457 88.0692 28.1224 87.6788 27.8348C87.2884 27.5266 87.0625 27.126 87.0008 26.6329C86.9597 26.1193 87.0933 25.6673 87.4014 25.2769C87.7096 24.8866 88.1102 24.6811 88.6033 24.6606C90.3496 24.5168 92.25 24.3935 94.3045 24.2908C96.359 24.1675 98.4443 24.0648 100.56 23.9826V21.3323C100.56 20.8187 100.735 20.3873 101.084 20.038C101.434 19.6887 101.865 19.5141 102.379 19.5141C102.913 19.5141 103.355 19.6887 103.704 20.038C104.053 20.3873 104.228 20.8187 104.228 21.3323V23.8594C105.933 23.8183 107.566 23.7874 109.128 23.7669C110.689 23.7258 112.127 23.695 113.442 23.6744C113.956 23.6744 114.377 23.8594 114.706 24.2292C115.055 24.599 115.219 25.0304 115.199 25.5235C115.178 26.0371 114.983 26.4583 114.613 26.787C114.264 27.1157 113.832 27.2698 113.319 27.2493C110.689 27.1465 107.659 27.1465 104.228 27.2493C104.248 27.9683 104.279 28.6874 104.32 29.4065C104.382 30.1255 104.433 30.8138 104.474 31.4712C105.46 32.6423 105.953 34.2345 105.953 36.2479C105.953 38.816 105.275 41.0657 103.92 42.9969C102.584 44.9281 100.632 46.3149 98.0642 47.1572ZM99.8824 36.5253C100.478 36.5047 100.94 36.3506 101.269 36.063C101.618 35.7548 101.793 35.3131 101.793 34.7378C101.793 34.5735 101.773 34.3886 101.731 34.1831C101.711 33.9777 101.68 33.7722 101.639 33.5668C101.208 33.0532 100.643 32.7964 99.9441 32.7964C99.3688 32.7964 98.8757 32.971 98.4648 33.3203C98.0745 33.649 97.8793 34.1112 97.8793 34.707C97.8793 35.3028 98.0642 35.7651 98.434 36.0938C98.8244 36.402 99.3072 36.5458 99.8824 36.5253ZM134.614 47.5887C132.066 47.6708 129.95 47.414 128.265 46.8182C126.58 46.2224 125.348 45.3595 124.567 44.2296C123.786 43.0996 123.458 41.7745 123.581 40.2541C123.684 39.1653 124.023 38.2407 124.598 37.4806C125.194 36.6999 125.964 36.1041 126.909 35.6932C127.875 35.2617 128.943 35.0049 130.114 34.9228C131.306 34.8406 132.528 34.9433 133.781 35.2309C133.473 34.7789 133.165 34.3064 132.857 33.8133C132.569 33.2997 132.282 32.7861 131.994 32.2725C130.823 32.4779 129.642 32.6628 128.45 32.8272C127.279 32.9915 126.149 33.1354 125.06 33.2586C124.567 33.2997 124.125 33.1559 123.735 32.8272C123.365 32.4985 123.16 32.0876 123.119 31.5945C123.078 31.0809 123.211 30.6392 123.519 30.2693C123.848 29.879 124.269 29.6735 124.783 29.653C125.625 29.5708 126.529 29.4681 127.495 29.3448C128.46 29.2216 129.436 29.0777 130.422 28.9134C130.279 28.5641 130.135 28.2149 129.991 27.8656C129.847 27.5163 129.714 27.1671 129.59 26.8178C128.768 26.9616 127.957 27.0952 127.156 27.2184C126.375 27.3212 125.646 27.4136 124.968 27.4958C124.475 27.5369 124.033 27.4033 123.643 27.0952C123.252 26.787 123.026 26.3864 122.965 25.8933C122.923 25.4002 123.057 24.9585 123.365 24.5681C123.673 24.1573 124.074 23.9313 124.567 23.8902C125.101 23.8491 125.697 23.7874 126.354 23.7053C127.012 23.6025 127.69 23.4998 128.388 23.3971C128.306 23.0478 128.214 22.7191 128.111 22.4109C128.008 22.0822 127.916 21.7638 127.834 21.4556C127.71 20.9625 127.772 20.5003 128.019 20.0688C128.286 19.6168 128.666 19.3292 129.159 19.2059C129.652 19.0827 130.114 19.1546 130.546 19.4217C130.998 19.6682 131.285 20.038 131.409 20.5311C131.511 20.9009 131.604 21.2707 131.686 21.6405C131.789 22.0103 131.902 22.3904 132.025 22.7807C132.682 22.6575 133.309 22.5342 133.905 22.4109C134.521 22.2671 135.086 22.1336 135.6 22.0103C136.072 21.887 136.524 21.9692 136.956 22.2569C137.387 22.5239 137.654 22.8937 137.757 23.3663C137.86 23.8594 137.777 24.3216 137.51 24.7531C137.264 25.1639 136.894 25.4208 136.401 25.5235C135.928 25.6262 135.415 25.7392 134.86 25.8625C134.305 25.9857 133.73 26.0987 133.134 26.2015C133.258 26.5507 133.381 26.9 133.504 27.2493C133.648 27.5985 133.792 27.9478 133.936 28.297C134.778 28.1327 135.589 27.958 136.37 27.7731C137.171 27.5882 137.901 27.4136 138.558 27.2493C139.031 27.1465 139.483 27.2287 139.914 27.4958C140.346 27.7629 140.623 28.1327 140.746 28.6052C140.849 29.0983 140.767 29.5605 140.5 29.992C140.233 30.4029 139.863 30.67 139.39 30.7932C138.856 30.9371 138.25 31.0809 137.572 31.2247C136.915 31.3479 136.226 31.4815 135.507 31.6253C136.021 32.5704 136.565 33.4641 137.141 34.3064C137.716 35.1282 138.322 35.8473 138.959 36.4636C139.267 36.7718 139.442 37.1416 139.483 37.573C139.544 38.0045 139.452 38.4051 139.205 38.7749C138.979 39.1447 138.651 39.4015 138.219 39.5453C137.808 39.6892 137.397 39.6789 136.986 39.5145C135.076 38.6927 133.391 38.251 131.932 38.1894C130.474 38.1072 129.323 38.3024 128.481 38.7749C127.659 39.2269 127.228 39.8638 127.187 40.6856C127.063 42.9866 129.498 44.0652 134.49 43.9214C135.004 43.9009 135.446 44.0652 135.815 44.4145C136.185 44.7432 136.38 45.1644 136.401 45.678C136.421 46.1916 136.257 46.6333 135.908 47.0031C135.559 47.3729 135.127 47.5681 134.614 47.5887ZM159.452 46.849C157.768 46.849 156.412 46.4484 155.384 45.6472C154.357 44.8665 153.843 43.6954 153.843 42.134C153.843 40.7369 154.357 39.6172 155.384 38.7749C156.432 37.9326 157.829 37.5114 159.575 37.5114C160.192 37.5114 160.808 37.5422 161.425 37.6039L161.332 34.1215C159.195 34.1831 157.305 34.1831 155.662 34.1215C155.148 34.0804 154.727 33.875 154.398 33.5052C154.09 33.1148 153.946 32.6731 153.967 32.18C154.008 31.6869 154.213 31.276 154.583 30.9473C154.973 30.6186 155.415 30.4748 155.908 30.5159C156.689 30.557 157.531 30.5878 158.435 30.6083C159.36 30.6083 160.295 30.5981 161.24 30.5775C161.219 30.0844 161.209 29.5914 161.209 29.0983C161.209 28.6052 161.199 28.1224 161.178 27.6499C160.171 27.6704 159.195 27.6807 158.25 27.6807C157.305 27.6601 156.442 27.6396 155.662 27.6191C155.148 27.5985 154.727 27.4033 154.398 27.0335C154.09 26.6432 153.946 26.1912 153.967 25.6776C154.008 25.1845 154.213 24.7736 154.583 24.4449C154.973 24.1162 155.415 23.9723 155.908 24.0134C157.429 24.1162 159.165 24.147 161.116 24.1059V21.4556C161.116 20.942 161.291 20.5105 161.64 20.1613C161.99 19.7915 162.421 19.6066 162.935 19.6066C163.448 19.6066 163.88 19.7915 164.229 20.1613C164.599 20.5105 164.784 20.942 164.784 21.4556C164.784 21.8254 164.784 22.226 164.784 22.6575C164.784 23.0684 164.794 23.5101 164.814 23.9826C165.657 23.921 166.468 23.8594 167.249 23.7977C168.03 23.7155 168.738 23.6334 169.375 23.5512C169.868 23.4895 170.31 23.6128 170.701 23.921C171.111 24.2086 171.348 24.599 171.409 25.092C171.471 25.6057 171.348 26.0679 171.04 26.4788C170.752 26.8692 170.362 27.0952 169.868 27.1568C169.149 27.239 168.358 27.3109 167.496 27.3725C166.653 27.4342 165.78 27.4855 164.876 27.5266C164.876 27.9991 164.876 28.4819 164.876 28.975C164.897 29.4681 164.917 29.9612 164.938 30.4542C165.759 30.4132 166.54 30.3618 167.28 30.3002C168.04 30.218 168.738 30.1358 169.375 30.0536C169.868 29.9714 170.31 30.0844 170.701 30.3926C171.111 30.7008 171.348 31.1014 171.409 31.5945C171.471 32.0876 171.348 32.5395 171.04 32.9504C170.752 33.3408 170.362 33.5668 169.868 33.6284C169.17 33.7106 168.41 33.7825 167.588 33.8441C166.766 33.9058 165.903 33.9571 164.999 33.9982C165.04 34.82 165.061 35.6007 165.061 36.3403C165.082 37.08 165.102 37.7682 165.123 38.4051C166.314 38.7544 167.444 39.1858 168.512 39.6994C169.581 40.2131 170.526 40.7575 171.348 41.3327C171.759 41.5998 172.005 41.9902 172.087 42.5038C172.19 43.0174 172.098 43.4797 171.81 43.8906C171.522 44.3015 171.122 44.5583 170.608 44.661C170.115 44.7432 169.663 44.6405 169.252 44.3528C168.677 43.9419 168.04 43.5516 167.341 43.1818C166.643 42.7914 165.914 42.4422 165.153 42.134C165.071 43.757 164.537 44.9486 163.551 45.7088C162.565 46.469 161.199 46.849 159.452 46.849ZM159.421 43.3667C160.264 43.3667 160.818 43.2229 161.086 42.9352C161.353 42.6271 161.486 42.1956 161.486 41.6409V41.0554C160.788 40.9321 160.099 40.8705 159.421 40.8705C158.764 40.8705 158.281 40.9835 157.973 41.2095C157.665 41.4355 157.511 41.7436 157.511 42.134C157.511 42.9558 158.148 43.3667 159.421 43.3667ZM183.553 45.3861C183.15 45.4504 182.789 45.37 182.467 45.1448C182.145 44.9196 181.944 44.6139 181.864 44.2278C181.719 43.4074 181.606 42.4583 181.526 41.3805C181.445 40.2866 181.405 39.1364 181.405 37.9299C181.405 36.7234 181.437 35.5089 181.502 34.2863C181.566 33.0637 181.662 31.8975 181.791 30.7875C181.936 29.6614 182.105 28.656 182.298 27.7712C182.378 27.3852 182.587 27.0876 182.925 26.8784C183.263 26.6532 183.625 26.5808 184.011 26.6613C184.397 26.7578 184.695 26.9749 184.904 27.3128C185.129 27.6345 185.202 27.9964 185.121 28.3986C184.864 29.5408 184.663 30.7794 184.518 32.1146C184.373 33.4498 184.277 34.8091 184.228 36.1926C184.196 37.5599 184.22 38.8951 184.301 40.1981C184.381 41.4851 184.518 42.6594 184.711 43.7211C184.791 44.1072 184.711 44.4611 184.47 44.7828C184.244 45.1046 183.939 45.3056 183.553 45.3861ZM193.446 44.0831C191.355 44.0831 189.794 43.705 188.765 42.949C187.751 42.1929 187.14 41.0829 186.931 39.619C186.866 39.2329 186.947 38.879 187.172 38.5573C187.413 38.2356 187.735 38.0425 188.137 37.9782C188.523 37.9299 188.877 38.0265 189.199 38.2678C189.521 38.493 189.714 38.8067 189.778 39.2088C189.875 39.9005 190.204 40.4153 190.768 40.7531C191.331 41.091 192.247 41.2599 193.518 41.2599C194.725 41.2599 196.181 41.0749 197.886 40.7049C198.272 40.6084 198.634 40.6727 198.972 40.8979C199.309 41.1231 199.519 41.4288 199.599 41.8149C199.679 42.2009 199.607 42.5629 199.382 42.9007C199.157 43.2224 198.851 43.4316 198.465 43.5281C197.596 43.7372 196.728 43.882 195.859 43.9624C195.006 44.0428 194.202 44.0831 193.446 44.0831ZM189.03 32.1388C188.644 32.2192 188.282 32.1548 187.944 31.9457C187.623 31.7205 187.421 31.4068 187.341 31.0046C187.261 30.6186 187.325 30.2566 187.534 29.9188C187.759 29.581 188.073 29.3799 188.475 29.3156C189.376 29.1386 190.381 29.026 191.491 28.9777C192.601 28.9134 193.703 28.9053 194.797 28.9536C195.891 28.9858 196.856 29.0743 197.693 29.219C198.095 29.2834 198.409 29.4845 198.634 29.8223C198.859 30.144 198.931 30.506 198.851 30.9081C198.787 31.3103 198.586 31.624 198.248 31.8492C197.926 32.0583 197.572 32.1307 197.186 32.0664C195.883 31.8411 194.532 31.7366 193.132 31.7527C191.733 31.7527 190.365 31.8814 189.03 32.1388ZM209.806 45.9652C209.5 46.2226 209.146 46.3271 208.744 46.2789C208.342 46.2467 208.004 46.0778 207.731 45.7722C207.49 45.4826 207.168 45.1287 206.766 44.7104C206.363 44.2761 205.945 43.8498 205.511 43.4316C205.093 42.9972 204.723 42.6433 204.401 42.3698C204.144 42.1285 203.991 41.8229 203.942 41.4529C203.91 41.0668 204.023 40.737 204.28 40.4636C204.554 40.1901 204.867 40.0373 205.221 40.0051C205.591 39.9729 205.929 40.0695 206.235 40.2947C206.589 40.5681 206.999 40.922 207.465 41.3564C207.948 41.7907 208.415 42.2411 208.865 42.7077C209.331 43.1581 209.701 43.5522 209.975 43.89C210.248 44.1957 210.369 44.5496 210.337 44.9517C210.305 45.3539 210.128 45.6917 209.806 45.9652Z" fill="#2F2F2F"/>
<path d="M20.4462 98.4976C18.3656 98.4976 16.688 97.9904 15.4136 96.9761C14.1652 95.9618 13.541 94.4793 13.541 92.5287C13.541 90.7081 14.1652 89.2646 15.4136 88.1983C16.688 87.1319 18.4306 86.5987 20.6413 86.5987C21.3435 86.5987 22.0458 86.6378 22.748 86.7158C22.722 85.9355 22.696 85.1163 22.67 84.258C22.644 83.3997 22.6179 82.5284 22.5919 81.6441C21.3695 81.7222 20.2122 81.7742 19.1198 81.8002C18.0275 81.8262 17.1432 81.8262 16.467 81.8002C15.8428 81.7742 15.3096 81.5271 14.8674 81.059C14.4513 80.5908 14.2563 80.0446 14.2823 79.4204C14.3343 78.7702 14.5814 78.2371 15.0235 77.8209C15.4917 77.4048 16.0508 77.2097 16.701 77.2357C17.3252 77.2617 18.1445 77.2617 19.1588 77.2357C20.1992 77.1837 21.3045 77.1187 22.4749 77.0407C22.4749 76.4425 22.4619 75.8573 22.4359 75.2851C22.4359 74.7129 22.4359 74.1667 22.4359 73.6466C21.4216 73.6986 20.4332 73.7506 19.4709 73.8026C18.5346 73.8286 17.6894 73.8416 16.9351 73.8416C16.3109 73.8416 15.7777 73.6076 15.3356 73.1394C14.8935 72.6713 14.6854 72.1121 14.7114 71.4619C14.7374 70.8377 14.9715 70.3175 15.4136 69.9014C15.8818 69.4592 16.441 69.2382 17.0912 69.2382C17.9494 69.2382 18.9248 69.2121 20.0171 69.1601C21.1355 69.1081 22.2798 69.0431 23.4502 68.9651C24.6206 68.887 25.7389 68.796 26.8053 68.692C27.8976 68.5619 28.847 68.4449 29.6532 68.3409C30.2774 68.2368 30.8496 68.3669 31.3698 68.731C31.8899 69.0951 32.202 69.5893 32.3061 70.2135C32.4101 70.8377 32.2671 71.4099 31.8769 71.93C31.5128 72.4502 31.0187 72.7623 30.3944 72.8663C29.9263 72.9443 29.4061 73.0224 28.8339 73.1004C28.2618 73.1524 27.6636 73.2044 27.0394 73.2564C27.0394 73.8286 27.0394 74.4008 27.0394 74.973C27.0654 75.5192 27.0784 76.0914 27.0784 76.6896C28.6909 76.5595 30.0433 76.4165 31.1357 76.2604C31.7599 76.1564 32.3191 76.2864 32.8132 76.6505C33.3334 77.0147 33.6455 77.5088 33.7495 78.133C33.8796 78.7572 33.7495 79.3294 33.3594 79.8496C32.9953 80.3437 32.5011 80.6428 31.8769 80.7469C30.7065 80.9549 29.146 81.137 27.1954 81.293C27.2214 82.4634 27.2474 83.5948 27.2734 84.6871C27.2995 85.7795 27.3255 86.7808 27.3515 87.6911C28.8079 88.1592 30.1604 88.7184 31.4088 89.3686C32.6832 90.0188 33.7885 90.6821 34.7248 91.3583C35.245 91.7484 35.5571 92.2686 35.6611 92.9188C35.7652 93.569 35.6351 94.1542 35.271 94.6743C34.9069 95.1685 34.3997 95.4806 33.7495 95.6106C33.1253 95.7407 32.5531 95.6106 32.033 95.2205C30.7065 94.2322 29.1721 93.3349 27.4295 92.5287C27.1954 96.5079 24.8677 98.4976 20.4462 98.4976ZM7.68914 98.8877C7.03893 98.9917 6.45374 98.8617 5.93357 98.4976C5.4134 98.1595 5.0883 97.6653 4.95826 97.0151C4.80221 96.1568 4.68517 95.0125 4.60714 93.582C4.52912 92.1255 4.4771 90.5 4.45109 88.7054C4.42509 86.8848 4.42509 85.0122 4.45109 83.0876C4.50311 81.137 4.58114 79.2514 4.68517 77.4308C4.7892 75.5842 4.91925 73.9067 5.0753 72.3982C5.25735 70.8637 5.46542 69.6153 5.6995 68.653C5.85555 68.0288 6.20666 67.5476 6.75284 67.2095C7.29901 66.8714 7.8842 66.7804 8.5084 66.9364C9.15861 67.0665 9.63977 67.4176 9.95187 67.9898C10.29 68.5359 10.394 69.1211 10.264 69.7453C9.97787 70.9157 9.73079 72.4112 9.52273 74.2318C9.34067 76.0263 9.19762 77.977 9.09359 80.0836C9.01556 82.1643 8.97655 84.245 8.97655 86.3257C8.97655 88.3803 9.02857 90.2789 9.1326 92.0215C9.23664 93.738 9.37968 95.1295 9.56174 96.1958C9.69178 96.846 9.56174 97.4312 9.17161 97.9514C8.8075 98.4716 8.31334 98.7837 7.68914 98.8877ZM20.4462 94.1282C22.0588 94.1282 22.865 93.3479 22.865 91.7874V91.0462C22.0588 90.8901 21.2525 90.8121 20.4462 90.8121C19.64 90.8121 19.0418 90.9812 18.6517 91.3193C18.2876 91.6314 18.1055 92.0345 18.1055 92.5287C18.1055 93.0228 18.2876 93.4129 18.6517 93.699C19.0158 93.9851 19.614 94.1282 20.4462 94.1282ZM56.962 98.1465C56.3898 98.2245 55.8697 98.0814 55.4015 97.7173C54.9594 97.3792 54.6993 96.9241 54.6212 96.3519C54.5692 95.7797 54.7123 95.2725 55.0504 94.8304C55.4145 94.3622 55.8827 94.0892 56.4548 94.0111C58.9256 93.673 60.8763 93.1398 62.3067 92.4116C63.7632 91.6834 64.7775 90.8251 65.3497 89.8368C65.9219 88.8485 66.13 87.8211 65.9739 86.7548C65.7918 85.3763 65.2847 84.375 64.4524 83.7508C63.6201 83.1266 62.4368 82.8795 60.9023 83.0096C60.07 83.0616 59.0947 83.1786 57.9763 83.3607C56.884 83.5168 55.7526 83.6988 54.5822 83.9069C53.4119 84.1149 52.2935 84.349 51.2272 84.6091C50.1608 84.8432 49.2375 85.0642 48.4573 85.2723C47.8851 85.4284 47.3519 85.3763 46.8577 85.1163C46.3636 84.8302 46.0385 84.401 45.8824 83.8289C45.7264 83.2827 45.7784 82.7625 46.0385 82.2683C46.3246 81.7482 46.7537 81.4101 47.3259 81.254C48.1582 81.0199 49.1335 80.7859 50.2518 80.5518C51.3962 80.3177 52.5796 80.0966 53.802 79.8886C55.0504 79.6545 56.2598 79.4594 57.4302 79.3034C58.6265 79.1473 59.6799 79.0303 60.5902 78.9523C63.217 78.7442 65.3627 79.2774 67.0272 80.5518C68.6918 81.8002 69.6931 83.6338 70.0312 86.0526C70.3173 87.8992 70.0312 89.6807 69.1729 91.3973C68.3147 93.0878 66.8712 94.5443 64.8425 95.7667C62.8139 96.9631 60.187 97.7563 56.962 98.1465ZM107.249 98.4976C103.062 99.0698 99.4207 99.1218 96.3257 98.6536C93.2307 98.2115 90.8379 97.2232 89.1474 95.6887C87.4828 94.1542 86.6506 92.0735 86.6506 89.4467C86.6506 87.1579 87.2227 85.2073 88.3671 83.5948C89.5375 81.9562 91.15 80.5388 93.2047 79.3424C93.0226 78.3281 92.7625 77.1707 92.4244 75.8703C92.0863 74.5699 91.7352 73.2825 91.3711 72.008C91.007 70.7076 90.6819 69.6153 90.3958 68.731C90.2137 68.1328 90.2787 67.5476 90.5908 66.9754C90.9289 66.4032 91.3971 66.0261 91.9953 65.8441C92.6455 65.662 93.2437 65.74 93.7899 66.0781C94.362 66.3902 94.7392 66.8584 94.9212 67.4826C95.3634 68.9911 95.7925 70.6296 96.2086 72.3982C96.6508 74.1407 97.0149 75.8183 97.301 77.4308C98.5494 76.9366 99.8758 76.4945 101.28 76.1044C102.685 75.6882 104.141 75.3111 105.65 74.973C106.274 74.8169 106.859 74.908 107.405 75.2461C107.951 75.5842 108.29 76.0654 108.42 76.6896C108.55 77.3398 108.446 77.938 108.107 78.4841C107.769 79.0043 107.288 79.3294 106.664 79.4594C103.413 80.1357 100.773 80.8639 98.7445 81.6441C96.7158 82.3984 95.1553 83.2047 94.0629 84.0629C92.9966 84.8952 92.2554 85.7665 91.8392 86.6768C91.4491 87.5611 91.254 88.4844 91.254 89.4467C91.254 91.5013 92.5024 92.9578 94.9993 93.8161C97.4961 94.6483 101.384 94.6743 106.664 93.8941C107.314 93.7901 107.886 93.9461 108.381 94.3622C108.901 94.7524 109.2 95.2595 109.278 95.8837C109.356 96.5339 109.2 97.1061 108.81 97.6003C108.42 98.1205 107.899 98.4196 107.249 98.4976ZM121.489 85.1163C120.813 85.1163 120.227 84.8822 119.733 84.414C119.265 83.9199 119.031 83.3347 119.031 82.6585C119.031 81.9823 119.265 81.4101 119.733 80.9419C120.227 80.4478 120.813 80.2007 121.489 80.2007H151.685C152.361 80.2007 152.933 80.4478 153.401 80.9419C153.895 81.4101 154.142 81.9823 154.142 82.6585C154.142 83.3347 153.895 83.9199 153.401 84.414C152.933 84.8822 152.361 85.1163 151.685 85.1163H121.489ZM180.086 94.0501C179.67 94.4403 179.175 94.6353 178.603 94.6353C178.057 94.6093 177.563 94.3752 177.121 93.9331C176.705 93.465 176.21 92.9578 175.638 92.4116C175.092 91.8394 174.598 91.3453 174.156 90.9291C173.792 90.565 173.61 90.1229 173.61 89.6027C173.636 89.0565 173.831 88.6144 174.195 88.2763C174.403 88.0682 174.598 87.9252 174.78 87.8471H171.425C168.746 87.8471 166.808 87.379 165.612 86.4427C164.442 85.4804 163.856 83.7768 163.856 81.332V74.6999C163.856 72.2551 164.429 70.5646 165.573 69.6283C166.743 68.692 168.642 68.2108 171.269 68.1848C171.399 67.7687 171.568 67.3005 171.776 66.7804C171.984 66.2602 172.14 65.8311 172.244 65.4929C172.452 64.8167 172.842 64.3356 173.415 64.0495C174.013 63.7634 174.676 63.7244 175.404 63.9324C176.158 64.1145 176.666 64.4786 176.926 65.0248C177.212 65.545 177.238 66.0911 177.004 66.6633C176.926 66.8974 176.822 67.1445 176.692 67.4046C176.588 67.6386 176.47 67.8987 176.34 68.1848H179.617C182.322 68.1848 184.26 68.653 185.43 69.5893C186.601 70.5256 187.186 72.2291 187.186 74.6999V81.332C187.186 83.7768 186.601 85.4804 185.43 86.4427C184.26 87.379 182.322 87.8471 179.617 87.8471H176.575C176.653 87.8732 176.731 87.9122 176.809 87.9642C176.887 88.0162 176.965 88.0812 177.043 88.1592C177.277 88.3413 177.589 88.6144 177.979 88.9785C178.369 89.3166 178.759 89.6677 179.149 90.0318C179.565 90.396 179.904 90.7211 180.164 91.0072C180.606 91.4493 180.827 91.9565 180.827 92.5287C180.827 93.0748 180.58 93.582 180.086 94.0501ZM176.496 100.76C174.234 100.76 172.465 100.565 171.191 100.175C169.916 99.811 169.019 99.1608 168.499 98.2245C167.979 97.2882 167.719 96.0138 167.719 94.4013V90.7731C167.719 90.0969 167.927 89.5637 168.343 89.1736C168.785 88.7574 169.305 88.5494 169.903 88.5494C170.528 88.5494 171.048 88.7574 171.464 89.1736C171.906 89.5637 172.127 90.0969 172.127 90.7731V94.0111C172.127 94.7654 172.231 95.3506 172.439 95.7667C172.673 96.1568 173.102 96.4299 173.727 96.586C174.377 96.742 175.326 96.82 176.575 96.82C177.797 96.82 178.72 96.768 179.344 96.664C179.995 96.5339 180.476 96.2999 180.788 95.9618C181.1 95.6236 181.36 95.1555 181.568 94.5573C181.776 93.9851 182.153 93.608 182.699 93.4259C183.272 93.2179 183.844 93.2179 184.416 93.4259C185.014 93.634 185.43 93.9851 185.664 94.4793C185.899 94.9734 185.925 95.5196 185.742 96.1178C185.404 97.2622 184.897 98.1725 184.221 98.8487C183.571 99.5249 182.634 100.006 181.412 100.292C180.19 100.604 178.551 100.76 176.496 100.76ZM158.473 99.1608C158.005 98.8487 157.679 98.4196 157.497 97.8734C157.341 97.3272 157.458 96.807 157.848 96.3129C158.213 95.8447 158.616 95.2725 159.058 94.5963C159.526 93.8941 159.981 93.1789 160.423 92.4506C160.865 91.7224 161.217 91.0982 161.477 90.578C161.763 89.9798 162.179 89.5767 162.725 89.3686C163.297 89.1606 163.856 89.1996 164.403 89.4857C164.949 89.7458 165.326 90.1489 165.534 90.6951C165.742 91.2412 165.703 91.8134 165.417 92.4116C165.131 93.0098 164.767 93.686 164.325 94.4403C163.882 95.1945 163.427 95.9358 162.959 96.664C162.491 97.3662 162.049 97.9904 161.633 98.5366C161.243 99.0568 160.748 99.3689 160.15 99.4729C159.578 99.6029 159.019 99.4989 158.473 99.1608ZM192.921 98.2635C192.479 98.6276 191.945 98.7967 191.321 98.7707C190.723 98.7447 190.255 98.4846 189.917 97.9904C189.579 97.4963 189.124 96.9111 188.551 96.2348C188.005 95.5326 187.433 94.8564 186.835 94.2062C186.263 93.53 185.755 92.9838 185.313 92.5677C184.949 92.1775 184.793 91.6964 184.845 91.1242C184.923 90.526 185.17 90.0579 185.586 89.7197C186.029 89.3556 186.536 89.1866 187.108 89.2126C187.68 89.2386 188.187 89.4727 188.629 89.9148C189.124 90.383 189.657 90.9421 190.229 91.5924C190.827 92.2166 191.386 92.8538 191.906 93.504C192.453 94.1282 192.908 94.6743 193.272 95.1425C193.662 95.6627 193.818 96.2088 193.74 96.781C193.688 97.3532 193.415 97.8474 192.921 98.2635ZM168.46 78.9913H182.543V77.0017H168.46V78.9913ZM171.932 84.297H179.11C180.255 84.297 181.074 84.167 181.568 83.9069C182.088 83.6208 182.4 83.0876 182.504 82.3074H168.538C168.642 83.0876 168.941 83.6208 169.435 83.9069C169.955 84.167 170.788 84.297 171.932 84.297ZM168.538 73.6856H182.504C182.4 72.9053 182.088 72.3852 181.568 72.1251C181.074 71.839 180.255 71.6959 179.11 71.6959H171.932C170.788 71.6959 169.968 71.839 169.474 72.1251C168.98 72.3852 168.668 72.9053 168.538 73.6856ZM203.454 99.746C202.336 99.746 201.308 99.4729 200.372 98.9267C199.462 98.3805 198.734 97.6523 198.187 96.742C197.667 95.8057 197.407 94.7914 197.407 93.699C197.407 92.5547 197.68 91.5273 198.226 90.617C198.773 89.6807 199.501 88.9395 200.411 88.3933C201.347 87.8471 202.362 87.5741 203.454 87.5741C204.573 87.5741 205.587 87.8471 206.497 88.3933C207.433 88.9395 208.175 89.6807 208.721 90.617C209.267 91.5273 209.54 92.5547 209.54 93.699C209.54 94.8174 209.267 95.8317 208.721 96.742C208.175 97.6523 207.446 98.3805 206.536 98.9267C205.626 99.4729 204.599 99.746 203.454 99.746ZM203.454 97.0151C204.39 97.0151 205.184 96.69 205.834 96.0398C206.484 95.3636 206.809 94.5703 206.809 93.66C206.809 92.7497 206.484 91.9695 205.834 91.3193C205.184 90.6691 204.39 90.3439 203.454 90.3439C202.544 90.3439 201.764 90.6691 201.113 91.3193C200.463 91.9695 200.138 92.7497 200.138 93.66C200.138 94.5443 200.45 95.3246 201.074 96.0008C201.725 96.677 202.518 97.0151 203.454 97.0151Z" fill="#2F2F2F"/>
<path d="M171.294 13.5259L174.99 1.64657M175.609 16.0531L187.49 1.64658M178.99 19.7756L190.99 13.7756" stroke="#88A640" stroke-linejoin="round"/>
</svg>
