<svg width="565" height="186" viewBox="0 0 565 186" fill="none" xmlns="http://www.w3.org/2000/svg">
<path class="anim_stroke" d="M44.6399 168.647C41.8227 169.132 40.4497 168.898 40.5208 167.945C40.6156 166.675 40.9744 164.888 41.5972 162.586C42.2069 160.207 43.1186 157.306 44.3324 153.883C45.3702 150.804 46.4657 147.832 47.619 144.968C48.8353 142.015 50.0712 139.176 51.3268 136.451C54.9807 128.531 57.8308 122.317 59.8771 117.81C61.9234 113.302 63.1659 110.501 63.6046 109.407C68.0335 99.1581 69.9924 92.549 69.4811 89.5796C69.3107 88.5898 68.8567 88.0015 68.119 87.815C65.9059 87.2552 63.4669 87.2047 60.802 87.6635C54.863 88.686 46.3938 92.7704 35.3941 99.9168C31.9386 102.158 28.7888 104.582 25.9448 107.188C23.1009 109.795 20.5181 112.552 18.1965 115.46C13.1384 122.054 11.0091 127.673 11.8087 132.318C12.1364 134.221 12.9328 135.887 14.1979 137.316C15.5261 138.655 17.9741 139.214 21.5421 138.991C24.501 138.874 25.8741 139.108 25.6613 139.693C25.1489 141.271 23.2938 142.335 20.0959 142.886C17.3549 143.358 14.4946 142.909 11.5151 141.541C9.13406 140.461 7.66828 138.323 7.11772 135.125C6.35742 130.708 7.22229 126.169 9.71232 121.507C11.7374 117.787 15.0688 113.686 19.7063 109.203C25.0635 103.89 30.7945 99.6111 36.8994 96.3649C48.7284 89.9382 57.3079 86.266 62.6377 85.3484C68.9573 84.2604 73.264 85.5964 75.5577 89.3566C76.5445 90.9898 73.3787 99.9234 66.0603 116.157C61.353 126.61 57.4324 135.713 54.2984 143.465C51.2274 151.128 48.9116 157.485 47.3508 162.536L47.3902 162.764C47.4557 163.145 47.8074 163.594 48.4453 164.111C49.0831 164.629 49.4348 165.078 49.5004 165.458C49.6102 167.008 47.9901 168.07 44.6399 168.647ZM116.657 168.243C115.667 168.414 114.586 168.286 113.416 167.861C108.63 166.019 99.7562 159.785 86.7944 149.16C73.0663 137.725 65.822 129.8 65.0617 125.384C64.9176 124.546 64.9715 123.949 65.2236 123.592C65.8908 122.458 67.3995 120.748 69.7498 118.462C72.087 116.1 75.2658 113.161 79.2861 109.647C82.6106 106.644 85.9548 103.756 89.3187 100.981C92.6694 98.1309 96.0398 95.3948 99.4298 92.7728C108.891 85.3425 116.876 80.9495 123.385 79.5938L123.842 79.5151C125.593 79.2136 126.554 79.5578 126.724 80.5476C126.855 81.309 126.318 81.8326 125.113 82.1185C111.103 86.8041 93.0561 100.377 70.9735 122.837C70.7582 122.953 70.6899 123.239 70.7685 123.696C71.0962 125.599 73.8783 129.236 79.1147 134.607C81.771 137.285 84.5034 139.951 87.3119 142.603C90.1835 145.166 93.1627 147.671 96.2496 150.119C107.308 158.799 114.932 162.778 119.119 162.057C120.033 161.9 120.901 161.476 121.723 160.786C122.545 160.095 123.032 159.737 123.184 159.711L123.641 159.632C124.326 159.514 124.708 159.684 124.787 160.141C124.983 161.283 124.051 162.698 121.99 164.385C121.105 165.165 120.182 165.951 119.221 166.743C118.349 167.599 117.494 168.099 116.657 168.243ZM116.106 153.521C110.548 154.478 107.179 151.53 105.999 144.677C104.82 137.825 106.433 130.805 110.84 123.617C110.903 123.528 110.82 123.268 110.589 122.838C110.345 122.331 110.203 121.963 110.164 121.735C110.085 121.278 110.178 120.909 110.443 120.628C112.741 118.038 115.68 116.434 119.258 115.818C120.248 115.648 121.08 115.7 121.755 115.976C122.569 116.15 123.344 116.33 124.082 116.516C124.82 116.703 125.526 116.934 126.201 117.21C129.396 118.463 131.728 119.943 133.198 121.65C135.088 121.246 136.674 120.895 137.955 120.596C139.236 120.297 140.213 120.05 140.885 119.856L141.342 119.777C142.027 119.659 142.416 119.867 142.508 120.4C142.534 120.552 142.401 120.693 142.11 120.821C141.299 121.118 140.227 121.498 138.896 121.962C137.641 122.414 136.081 122.917 134.217 123.474C134.537 123.967 134.756 124.557 134.874 125.242C134.966 125.775 134.994 126.162 134.957 126.404C134.877 132.768 132.8 138.691 128.726 144.175C124.805 149.632 120.599 152.748 116.106 153.521ZM130.457 122.122C128.911 120.428 126.348 119.889 122.77 120.505C120.029 120.977 118.292 121.59 117.559 122.343C117.344 122.459 117.142 122.65 116.953 122.918C116.763 123.186 116.543 123.498 116.291 123.855C120.646 123.654 125.368 123.076 130.457 122.122ZM116.134 151.635C119.485 151.058 122.917 147.997 126.431 142.453C130.021 136.896 131.848 131.799 131.912 127.163C131.923 126.769 131.909 126.458 131.869 126.23C131.893 125.912 131.885 125.639 131.846 125.411C131.767 124.954 131.613 124.51 131.382 124.079C129.948 124.405 128.47 124.698 126.947 124.96C125.424 125.223 123.901 125.485 122.379 125.747C120.856 126.009 119.447 126.252 118.153 126.474C116.935 126.684 115.824 126.836 114.821 126.93C112.483 131.566 111.15 135.206 110.821 137.85C110.393 140.824 110.401 143.606 110.847 146.195C111.555 150.306 113.317 152.12 116.134 151.635ZM144.732 152.12C144.428 152.173 144.256 152.085 144.216 151.857C144.046 150.867 146.32 148.594 151.039 145.037C152.228 144.205 153.304 143.393 154.265 142.6C155.213 141.732 156.022 140.965 156.691 140.301C160.746 136.075 162.557 132.706 162.124 130.193C161.797 128.29 159.767 127.659 156.036 128.302C147.33 129.644 142.663 128.487 142.033 124.833C141.758 123.234 142.181 121.593 143.303 119.91C144.587 117.808 146.95 115.598 150.393 113.28C154.114 110.758 157.649 109.209 160.999 108.632C163.969 108.121 166.339 108.457 168.111 109.642C168.915 110.209 169.401 110.988 169.572 111.977C169.755 113.043 169.577 114.054 169.036 115.01C168.494 115.965 167.805 116.515 166.968 116.659C165.445 116.921 164.43 116.038 163.924 114.008C163.675 112.561 163.302 111.763 162.806 111.613C162.31 111.464 161.072 111.559 159.092 111.9C156.58 112.333 153.907 113.655 151.073 115.868C147.67 118.413 146.312 120.999 147 123.625C147.414 125.121 150.438 125.385 156.073 124.415C163.763 123.091 167.929 124.294 168.572 128.025C169.266 132.06 166.649 136.666 160.72 141.842C156.978 145.152 152.269 148.314 146.595 151.329C145.81 151.778 145.189 152.042 144.732 152.12ZM188.269 141.097C182.71 142.054 179.341 139.106 178.162 132.254C176.982 125.401 178.595 118.381 183.003 111.194C183.066 111.105 182.982 110.845 182.751 110.414C182.507 109.907 182.365 109.54 182.326 109.311C182.247 108.854 182.34 108.485 182.606 108.205C184.904 105.614 187.842 104.01 191.42 103.394C192.41 103.224 193.242 103.277 193.917 103.553C194.731 103.726 195.507 103.906 196.244 104.093C196.982 104.279 197.688 104.51 198.363 104.786C201.558 106.039 203.89 107.519 205.36 109.226C207.25 108.822 208.836 108.471 210.117 108.172C211.399 107.873 212.375 107.626 213.048 107.432L213.504 107.354C214.19 107.236 214.578 107.443 214.67 107.976C214.696 108.128 214.564 108.269 214.272 108.397C213.461 108.694 212.39 109.074 211.058 109.539C209.803 109.99 208.244 110.494 206.379 111.05C206.7 111.543 206.919 112.133 207.037 112.818C207.128 113.351 207.156 113.738 207.119 113.98C207.039 120.344 204.962 126.268 200.889 131.751C196.968 137.208 192.761 140.324 188.269 141.097ZM202.619 109.698C201.073 108.004 198.511 107.465 194.932 108.082C192.191 108.554 190.454 109.166 189.721 109.919C189.506 110.035 189.304 110.227 189.115 110.494C188.926 110.762 188.705 111.074 188.453 111.431C192.809 111.23 197.531 110.653 202.619 109.698ZM188.297 139.211C191.647 138.634 195.079 135.574 198.593 130.03C202.183 124.473 204.011 119.376 204.075 114.739C204.085 114.345 204.071 114.034 204.032 113.806C204.055 113.488 204.048 113.215 204.008 112.987C203.93 112.53 203.775 112.086 203.544 111.656C202.11 111.981 200.632 112.274 199.109 112.537C197.586 112.799 196.064 113.061 194.541 113.323C193.018 113.585 191.609 113.828 190.315 114.051C189.097 114.26 187.986 114.412 186.983 114.507C184.646 119.143 183.312 122.782 182.983 125.426C182.555 128.401 182.563 131.182 183.009 133.771C183.717 137.883 185.479 139.696 188.297 139.211ZM242.116 131.827C240.669 132.076 239.233 131.931 237.808 131.392C236.472 130.917 235.541 130.293 235.016 129.521C234.683 128.951 234.431 128.172 234.261 127.182C234.038 125.887 233.935 124.376 233.951 122.649C233.954 120.845 234.089 118.901 234.358 116.817C233.995 117.898 233.43 119.171 232.663 120.636C231.973 122.088 231.093 123.807 230.024 125.794C226.751 131.375 223.82 134.389 221.232 134.834C220.851 134.9 220.54 134.914 220.298 134.877C215.546 134.598 212.816 132.402 212.108 128.291C211.545 125.017 212.385 120.56 214.628 114.921C216.07 111.459 218.56 107.934 222.097 104.345C226.62 99.6471 231.203 96.8981 235.847 96.0984C237.599 95.7969 239.282 95.7816 240.896 96.0524L243.261 89.2951C244.474 85.8719 245.436 82.8056 246.146 80.0964C246.931 77.374 247.547 75.0336 247.994 73.0752C248.367 71.5998 250.381 70.5475 254.036 69.9182C255.711 69.6299 256.467 69.6957 256.304 70.1157L245.535 97.7233C245.918 98.1277 246.086 98.6476 246.039 99.2829C246.041 99.7529 245.864 99.8618 245.507 99.6096L244.971 99.2315L243.919 102C239.823 112.818 238.248 120.968 239.191 126.45C239.558 128.582 240.465 129.524 241.912 129.275C243.511 128.999 245.738 127.362 248.592 124.362C252.508 120.238 255.967 115.056 258.969 108.816C259.61 107.53 260.273 106.828 260.958 106.71C261.187 106.671 261.314 106.727 261.34 106.879C261.406 107.26 261.188 108.042 260.686 109.226C258.277 114.815 255.23 119.887 251.546 124.441C248.631 128 246.267 130.21 244.456 131.071C243.733 131.431 242.954 131.682 242.116 131.827ZM219.984 133.05C221.942 133.497 225.242 129.44 229.883 120.88C231.669 117.593 233.203 114.663 234.485 112.091C235.754 109.442 236.764 107.112 237.515 105.101C237.715 104.44 238.027 103.524 238.453 102.353C238.942 101.093 239.55 99.6161 240.277 97.9229C240.036 97.886 239.763 97.8939 239.458 97.9463C239.23 97.9856 239.001 98.0249 238.773 98.0643C235.651 98.6017 232.504 100.359 229.332 103.335C226.147 106.235 223.341 109.972 220.914 114.545C219.19 117.742 218.037 120.606 217.454 123.137C216.946 125.655 216.844 127.789 217.145 129.54C217.499 131.596 218.445 132.766 219.984 133.05ZM284.48 124.533C282.957 124.795 281.464 124.543 279.999 123.776C278.61 122.996 277.723 122.169 277.337 121.294C276.925 120.268 277.678 116.218 279.597 109.146L277.619 113.367C276.765 115.239 275.879 116.92 274.959 118.411C274.04 119.902 273.171 121.228 272.351 122.388C269.93 125.627 267.69 127.189 265.632 127.073C260.88 126.793 258.15 124.598 257.442 120.486C256.878 117.212 257.718 112.756 259.962 107.117C260.689 105.423 261.683 103.684 262.944 101.899C264.205 100.114 265.7 98.3282 267.431 96.5407C271.89 91.9315 276.48 89.2206 281.201 88.4078C284.094 87.9097 286.966 88.1992 289.817 89.2763C290.759 89.7413 291.29 90.3164 291.408 91.0016C291.499 91.5346 291.393 91.8273 291.088 91.8797C291.012 91.8928 290.93 91.8679 290.84 91.8049C288.94 90.3289 286.657 89.8203 283.992 90.2791C280.871 90.8166 277.685 92.5801 274.437 95.5697C271.189 98.5592 268.459 102.283 266.247 106.74C263.119 113.159 261.862 118.157 262.479 121.736C262.832 123.791 263.779 124.961 265.317 125.245C267.276 125.692 270.575 121.635 275.217 113.075C277.142 109.686 278.701 106.674 279.893 104.038C281.162 101.389 282.147 99.1421 282.849 97.2966C283.161 96.3804 283.927 95.8174 285.145 95.6077C287.429 95.2144 288.689 95.7031 288.925 97.0736C288.964 97.302 288.953 97.4609 288.89 97.5501C284.074 109.198 281.988 116.887 282.63 120.618C282.788 121.532 283.139 121.981 283.685 121.965C285.363 122.147 287.825 120.508 291.07 117.048C294.986 112.925 298.445 107.743 301.447 101.503C302.088 100.217 302.751 99.5147 303.437 99.3967C303.665 99.3574 303.792 99.4138 303.819 99.5661C303.884 99.9468 303.666 100.729 303.164 101.913C301.998 104.701 300.615 107.369 299.015 109.918C297.492 112.454 295.714 114.877 293.681 117.187C290.816 120.581 288.377 122.804 286.363 123.856C285.869 124.176 285.242 124.402 284.48 124.533ZM308.965 121.023C302.879 120.738 299.489 118.578 298.795 114.543C298.598 113.4 298.559 112.035 298.677 110.447C298.783 108.782 299.09 106.926 299.6 104.879L305.553 81.393C304.437 81.7419 303.207 82.1105 301.862 82.4988C300.518 82.887 299.021 83.3014 297.372 83.7421C297.068 83.7945 296.87 83.5543 296.778 83.0213C296.594 81.9553 296.68 81.3134 297.034 81.0956L306.392 78.0734L311.22 61.7195C311.67 60.231 313.684 59.1787 317.262 58.5626C318.937 58.2742 319.693 58.3401 319.53 58.7601C318.314 61.7134 317.066 64.7113 315.787 67.7538C314.571 70.7071 313.355 73.6604 312.138 76.6138C312.354 76.4983 312.835 76.3369 313.584 76.1297C314.332 75.9225 315.309 75.6759 316.514 75.3901C317.414 75.1566 318.283 74.9678 319.121 74.8236C319.945 74.6033 320.738 74.4276 321.5 74.2965C324.698 73.7459 326.247 73.636 326.147 73.9668C325.706 74.5915 320.705 76.5108 311.145 79.7246C305.546 96.8384 303.304 108.631 304.418 115.103C304.824 117.463 305.752 118.754 307.201 118.975C308.32 119.096 310.78 117.222 314.583 113.353C316.781 111.093 318.724 108.72 320.413 106.234C322.089 103.672 323.554 101.029 324.81 98.3041C325.212 97.4509 325.641 96.985 326.098 96.9064C326.402 96.8539 326.581 96.98 326.633 97.2846C326.686 97.5891 326.574 98.0787 326.298 98.7534C324.205 103.896 321.113 108.936 317.024 113.874C313.074 118.709 310.388 121.092 308.965 121.023ZM332.042 115.992C329.834 116.372 327.801 116.173 325.942 115.396C323.472 114.253 321.988 112.235 321.49 109.342C320.952 106.22 321.629 102.183 323.521 97.2324C326.09 90.7535 330.459 84.7095 336.628 79.1005C338.182 77.6569 339.835 76.7844 341.586 76.4829C343.87 76.0896 345.632 76.5311 346.871 77.8074C347.624 78.54 348.093 79.4394 348.276 80.5053C348.827 83.7032 346.841 87.6514 342.319 92.3498C340.98 93.6779 339.513 94.9496 337.919 96.1647C336.388 97.2907 334.666 98.2144 332.752 98.9359L328.017 100.809C326.754 104.398 326.312 107.296 326.692 109.504C327.216 112.55 329.268 113.765 332.847 113.149C335.664 112.664 338.887 110.894 342.516 107.838C347.384 103.786 351.282 98.6464 354.208 92.4196C354.66 91.401 355.152 90.8459 355.685 90.7541C355.914 90.7148 356.054 90.8474 356.107 91.152C356.172 91.5327 356.004 92.1496 355.602 93.0028C350.13 105.391 342.842 112.917 333.736 115.583C333.445 115.711 333.147 115.802 332.842 115.854C332.614 115.893 332.347 115.939 332.042 115.992ZM329.054 98.6318C331.186 98.2648 333.763 96.8411 336.785 94.3608C341.047 90.8832 343.769 86.8866 344.952 82.3712C345.301 81.2135 345.417 80.292 345.299 79.6067C345.181 78.9215 344.856 78.6247 344.323 78.7165C343.333 78.8869 341.525 80.4525 338.899 83.4133C337.018 85.697 335.202 88.1264 333.451 90.7015C331.762 93.1873 330.175 95.8124 328.691 98.5766C328.628 98.6658 328.749 98.6842 329.054 98.6318ZM403.319 115.127C395.705 116.438 389.226 115.006 383.882 110.83C378.984 106.969 375.932 101.537 374.726 94.5318C373.834 89.3543 374.123 83.9736 375.592 78.3897C378.257 68.3665 382.937 58.8977 389.634 49.9834C396.407 41.056 405.365 33.2029 416.506 26.4242C421.823 23.1568 427.109 21.0709 432.362 20.1664C437.54 19.275 441.918 19.6581 445.496 21.3156C449.061 22.897 451.158 25.515 451.787 29.1698C452.102 30.9971 452.131 32.9911 451.876 35.1518C451.684 37.2232 450.902 39.5137 449.531 42.0232C446.3 48.3025 442.169 53.6783 437.138 58.1508C434.533 60.324 432.027 61.9315 429.619 62.9732C427.287 64.0018 425.017 64.7062 422.809 65.0863C417.403 66.017 413.836 63.9657 412.107 58.9324L412.028 58.4755C411.858 57.4857 412.344 56.8925 413.486 56.6958C414.552 56.5123 415.208 56.9089 415.455 57.8856C416.732 61.6639 419.199 63.2384 422.853 62.6092C426.432 61.9931 430.268 59.6863 434.362 55.6888C436.523 53.6704 438.43 51.539 440.082 49.2947C441.721 46.9742 443.188 44.5657 444.483 42.0693C447.209 36.5041 448.284 32.0464 447.707 28.6962C446.776 23.2902 442.466 21.2492 434.776 22.5732C429.522 23.4777 424.263 25.7159 418.998 29.2878C413.657 32.8728 408.807 36.8045 404.448 41.0829C400.075 45.2851 396.201 49.8721 392.823 54.8438C387.694 62.3907 384.178 69.9733 382.275 77.5918C380.869 83.0865 380.605 88.3845 381.484 93.4859C382.493 99.3487 384.822 103.769 388.471 106.747C392.744 110.167 398.269 111.293 405.045 110.126C406.492 109.877 407.995 109.501 409.555 108.997C411.128 108.57 412.757 108.015 414.442 107.333C421.4 104.488 429.329 99.0857 438.229 91.125C445.169 84.9911 450.14 79.941 453.142 75.9747C455.185 73.271 456.626 71.8471 457.463 71.7029C457.616 71.6767 457.705 71.7397 457.731 71.892C457.823 72.425 457.452 73.2335 456.62 74.3176C453.453 78.234 450.664 81.6148 448.253 84.4602C445.842 87.3056 443.834 89.5327 442.23 91.1417C438.364 95.0999 434.452 98.5566 430.492 101.512C426.608 104.454 422.703 107.047 418.778 109.291C413.345 112.343 408.192 114.288 403.319 115.127ZM486.021 89.835C484.499 90.0971 483.005 89.8447 481.54 89.0778C480.151 88.2977 479.264 87.4704 478.878 86.5961C478.467 85.5695 479.22 81.5199 481.138 74.4475L479.16 78.6687C478.306 80.5404 477.42 82.2218 476.501 83.7128C475.581 85.2038 474.712 86.5294 473.893 87.6897C471.471 90.9289 469.231 92.4904 467.173 92.3744C462.421 92.095 459.691 89.8995 458.983 85.7879C458.42 82.5138 459.26 78.0574 461.503 72.4186C462.231 70.7253 463.225 68.9862 464.485 67.2013C465.746 65.4163 467.242 63.63 468.972 61.8426C473.431 57.2334 478.021 54.5225 482.742 53.7097C485.635 53.2116 488.507 53.5011 491.358 54.5782C492.301 55.0431 492.831 55.6182 492.949 56.3035C493.041 56.8365 492.934 57.1292 492.63 57.1816C492.554 57.1947 492.471 57.1698 492.382 57.1067C490.481 55.6308 488.198 55.1222 485.534 55.581C482.412 56.1185 479.227 57.882 475.978 60.8715C472.73 63.8611 470 67.5846 467.788 72.042C464.66 78.4604 463.404 83.4589 464.02 87.0375C464.374 89.0933 465.32 90.2631 466.858 90.5471C468.817 90.9938 472.117 86.9371 476.758 78.3767C478.683 74.9878 480.242 71.9755 481.435 69.3398C482.703 66.6911 483.688 64.444 484.39 62.5985C484.702 61.6823 485.468 61.1193 486.686 60.9096C488.97 60.5163 490.23 61.005 490.466 62.3755C490.506 62.6039 490.494 62.7627 490.431 62.852C485.616 74.4998 483.529 82.1891 484.171 85.92C484.329 86.8337 484.68 87.2827 485.227 87.2671C486.904 87.4487 489.366 85.8097 492.612 82.3502C496.527 78.2266 499.986 73.0449 502.989 66.805C503.629 65.5187 504.293 64.8165 504.978 64.6986C505.206 64.6592 505.334 64.7157 505.36 64.868C505.425 65.2487 505.207 66.031 504.705 67.215C503.539 70.0029 502.156 72.6713 500.557 75.2202C499.033 77.756 497.255 80.1788 495.223 82.4887C492.358 85.8826 489.918 88.1058 487.904 89.1581C487.41 89.4782 486.783 89.7039 486.021 89.835ZM509.537 90.2551C506.263 90.8188 504.278 89.0829 503.583 85.0475C503.007 81.6973 503.255 76.99 504.327 70.9255C504.498 69.6418 504.994 67.2829 505.814 63.8491C506.621 60.3391 507.707 55.7226 509.074 49.9995L504.3 51.6445C503.337 51.9672 502.564 52.2571 501.981 52.5142C501.385 52.6952 500.928 52.7739 500.61 52.7502C500.356 52.6372 500.202 52.4285 500.15 52.1239C499.861 50.4488 500.046 49.4762 500.706 49.2059L510.063 46.1837C510.765 44.3382 511.611 42.1934 512.601 39.7494C513.578 37.2292 514.738 34.4033 516.08 31.2715C517.903 27.7433 519.738 25.1932 521.584 23.621C522.495 22.9938 523.61 22.4099 524.928 21.8694C526.309 21.2396 527.951 20.7609 529.855 20.4331C532.748 19.935 534.886 20.7428 536.269 22.8566C536.692 23.4895 536.969 24.1866 537.1 24.948C537.362 26.4708 536.922 27.3305 535.78 27.5271C534.485 27.75 533.229 26.8295 532.012 24.7656C531.332 23.5499 530.269 23.0665 528.822 23.3156C526.69 23.6826 524.951 24.9621 523.603 27.154C523.162 27.7787 522.621 28.7343 521.98 30.0206C521.415 31.2938 520.674 32.9108 519.758 34.8718C518.791 36.9982 517.982 38.9014 517.33 40.5815C516.742 42.1724 516.273 43.5466 515.924 44.7044C516.139 44.5889 516.621 44.4276 517.369 44.2203C518.117 44.0131 519.094 43.7666 520.299 43.4807C521.2 43.2472 522.069 43.0584 522.906 42.9142C523.731 42.6939 524.524 42.5182 525.285 42.3871C528.483 41.8365 530.032 41.7266 529.932 42.0574C529.289 42.8738 524.276 44.9519 514.895 48.2918C513.242 52.8097 511.586 58.8963 509.924 66.5516C507.777 75.937 507.018 82.457 507.647 86.1118C507.896 87.5584 508.434 88.4066 509.261 88.6562C510.178 88.9688 510.642 89.1632 510.655 89.2394C510.747 89.7723 510.374 90.1109 509.537 90.2551ZM534.253 81.1785C532.045 81.5586 530.012 81.3599 528.153 80.5823C525.683 79.4397 524.199 77.4217 523.7 74.5283C523.163 71.4066 523.84 67.3702 525.731 62.4191C528.301 55.9402 532.67 49.8962 538.838 44.2872C540.393 42.8436 542.046 41.9711 543.797 41.6696C546.081 41.2763 547.842 41.7178 549.081 42.994C549.835 43.7267 550.303 44.626 550.487 45.692C551.037 48.8899 549.051 52.838 544.529 57.5364C543.19 58.8646 541.723 60.1362 540.13 61.3514C538.599 62.4774 536.876 63.4011 534.962 64.1226L530.228 65.996C528.964 69.5846 528.522 72.483 528.903 74.6911C529.427 77.7367 531.478 78.9514 535.057 78.3353C537.874 77.8503 541.097 76.0802 544.726 73.0251C549.595 68.9727 553.492 63.8331 556.419 57.6063C556.87 56.5877 557.363 56.0326 557.896 55.9408C558.124 55.9015 558.265 56.0341 558.317 56.3387C558.383 56.7194 558.214 57.3363 557.812 58.1895C552.341 70.5775 545.052 78.1041 535.946 80.7693C535.655 80.8979 535.357 80.9884 535.052 81.0408C534.824 81.0801 534.558 81.126 534.253 81.1785ZM531.264 63.8185C533.396 63.4514 535.973 62.0278 538.996 59.5475C543.258 56.0698 545.98 52.0733 547.162 47.5579C547.512 46.4001 547.628 45.4787 547.51 44.7934C547.392 44.1081 547.066 43.8114 546.533 43.9031C545.543 44.0735 543.735 45.6392 541.109 48.6C539.229 50.8837 537.413 53.313 535.661 55.8882C533.972 58.374 532.386 60.999 530.902 63.7633C530.839 63.8525 530.96 63.8709 531.264 63.8185Z" fill="#2F2F2F"/>
</svg>
