<svg width="55" height="41" viewBox="0 0 55 41" fill="none" xmlns="http://www.w3.org/2000/svg">
<path d="M12.5181 16.3615C12.2179 16.3615 11.9177 16.3722 11.6175 16.3936C11.3173 16.415 11.0386 16.4471 10.7813 16.4898C10.8671 16.1904 10.9635 15.8803 11.0708 15.5595C11.178 15.2387 11.2959 14.9285 11.4246 14.6291C11.5961 14.2441 11.7998 13.8592 12.0357 13.4742C12.2715 13.0892 12.4967 12.7042 12.7111 12.3192C12.9255 11.9343 13.1936 11.5921 13.5152 11.2926C13.8368 10.9932 14.1263 10.6724 14.3836 10.3302C14.6838 9.988 15.0055 9.69927 15.3485 9.46401C15.6916 9.22874 16.0133 8.9614 16.3134 8.66197C16.5708 8.36254 16.8817 8.12728 17.2462 7.95618C17.6107 7.78508 17.9431 7.59259 18.2433 7.37872C18.5864 7.20761 18.8973 7.03652 19.176 6.86541C19.4548 6.69431 19.7442 6.56599 20.0444 6.48044L21.524 5.83881L22.8105 5.32551L21.4597 0L19.8515 0.384977C19.5942 0.470528 19.3047 0.545383 18.983 0.609546C18.6614 0.673709 18.3076 0.748565 17.9216 0.834116C17.5786 0.919667 17.2033 1.04799 16.7959 1.21909C16.3885 1.39019 15.9704 1.56129 15.5415 1.73239C15.1127 1.9035 14.6517 2.07459 14.1585 2.2457C13.6653 2.4168 13.1828 2.67345 12.7111 3.01565C12.2394 3.31508 11.7462 3.60381 11.2316 3.88185C10.717 4.15989 10.2023 4.49139 9.68772 4.87637C9.25887 5.30412 8.77642 5.71048 8.24035 6.09546C7.70429 6.48044 7.24328 6.92958 6.85731 7.44288C6.38557 7.95618 5.93528 8.46948 5.50643 8.98279C5.07758 9.49609 4.69162 10.0522 4.34854 10.651C3.91969 11.2071 3.56589 11.7846 3.28713 12.3834C3.00838 12.9823 2.71891 13.5811 2.41871 14.18C2.1614 14.8216 1.92554 15.4418 1.71111 16.0407C1.49669 16.6395 1.30371 17.2384 1.13216 17.8372C0.789084 19.0777 0.542496 20.254 0.392398 21.3662C0.2423 22.4784 0.145809 23.5263 0.102924 24.5102C0.0171536 25.494 -0.0150101 26.3923 0.00643308 27.205C0.0278763 28.0177 0.0814811 28.7235 0.167252 29.3224C0.167252 29.579 0.188695 29.8464 0.231579 30.1244C0.274464 30.4025 0.295907 30.627 0.295907 30.7981L0.360234 31.2473H0.488889C1.08928 34.0277 2.50447 36.3482 4.7345 38.2089C6.96453 40.0696 9.55905 41 12.5181 41C15.9489 41 18.8651 39.7916 21.2667 37.3748C23.6682 34.958 24.869 32.06 24.869 28.6807C24.869 25.2587 23.6682 22.35 21.2667 19.9546C18.8651 17.5592 15.9489 16.3615 12.5181 16.3615ZM42.752 16.3615C42.4519 16.3615 42.1517 16.3722 41.8515 16.3936C41.5513 16.415 41.2511 16.4471 40.9509 16.4898C41.0366 16.1904 41.1331 15.8803 41.2403 15.5595C41.3476 15.2387 41.4869 14.9285 41.6585 14.6291C41.7871 14.2441 41.9694 13.8592 42.2053 13.4742C42.4411 13.0892 42.6877 12.7042 42.945 12.3192C43.1595 11.9343 43.4168 11.5921 43.717 11.2926C44.0172 10.9932 44.2959 10.6724 44.5532 10.3302C44.8534 9.988 45.175 9.69927 45.5181 9.46401C45.8612 9.22874 46.1828 8.9614 46.483 8.66197C46.7832 8.36254 47.1049 8.12728 47.448 7.95618C47.791 7.78508 48.1127 7.59259 48.4129 7.37872C48.7559 7.20761 49.0669 7.03652 49.3456 6.86541C49.6244 6.69431 49.9138 6.56599 50.214 6.48044L51.6936 5.83881L52.9801 5.32551L51.6936 0L50.0211 0.384977C49.7637 0.470528 49.4743 0.545383 49.1526 0.609546C48.831 0.673709 48.4986 0.748565 48.1556 0.834116C47.7696 0.919667 47.3729 1.04799 46.9655 1.21909C46.5581 1.39019 46.14 1.56129 45.7111 1.73239C45.2823 1.9035 44.8213 2.07459 44.3281 2.2457C43.8349 2.4168 43.3524 2.67345 42.8807 3.01565C42.409 3.31508 41.9158 3.60381 41.4012 3.88185C40.8865 4.15989 40.3934 4.49139 39.9216 4.87637C39.4499 5.30412 38.9567 5.71048 38.4421 6.09546C37.9275 6.48044 37.4557 6.92958 37.0269 7.44288C36.5552 7.95618 36.1049 8.46948 35.676 8.98279C35.2472 9.49609 34.8612 10.0522 34.5181 10.651C34.1322 11.2071 33.7891 11.7846 33.4889 12.3834C33.1887 12.9823 32.8885 13.5811 32.5883 14.18C32.331 14.8216 32.0951 15.4418 31.8807 16.0407C31.6663 16.6395 31.4733 17.2384 31.3018 17.8372C31.0016 19.0777 30.7657 20.254 30.5942 21.3662C30.4226 22.4784 30.3154 23.5263 30.2725 24.5102C30.2296 25.494 30.2189 26.3923 30.2404 27.205C30.2618 28.0177 30.294 28.7235 30.3368 29.3224C30.3797 29.579 30.4119 29.8464 30.4333 30.1244C30.4548 30.4025 30.4869 30.627 30.5298 30.7981L30.5942 31.2473H30.6585C31.2589 34.0277 32.6848 36.3482 34.9363 38.2089C37.1877 40.0696 39.793 41 42.752 41C46.14 41 49.0454 39.7916 51.4684 37.3748C53.8914 34.958 55.1029 32.06 55.1029 28.6807C55.1029 25.2587 53.8914 22.35 51.4684 19.9546C49.0454 17.5592 46.14 16.3615 42.752 16.3615Z" fill="#88A640"/>
</svg>
