<?xml version="1.0" encoding="UTF-8"?>
<svg id="ly_2" data-name="ly_2" xmlns="http://www.w3.org/2000/svg" width="320" height="120" viewBox="0 0 320.88 120.2">
  <defs>
    <style>
      .cls-1 {
        fill: #302722;
      }

      .cls-2 {
        fill: #78a632;
      }
    </style>
  </defs>
  <g id="ly_1-2" data-name="ly_1">
    <g>
      <path class="cls-2" d="M21.53,73.69c-2.95-3.55-5.88-7.12-8.88-10.63-.66-.77-.81-1.32,0-2,.33-.28.58-.67.98-1.13,3.93,4.91,7.82,9.78,11.7,14.63-.04.12-.05.2-.09.25-.72.82-1.31,2.07-2.2,2.33-.91.27-1.95-.77-2.91-1.26-3.24-1.63-6.46-3.29-9.68-4.94-.08-.02-.21-.09-.24-.06-.13.12-.02.21.07.29,2.8,3.75,5.6,7.51,8.45,11.33-.77.92-1.51,1.8-2.28,2.71-5.49-3.01-10.94-6-16.45-9.02.52-.86,1.17-1.54,1.88-2.31,4.37,2.55,8.73,5.09,13.1,7.63.08.02.16.03.24.05l-.1-.21c-2.35-3.18-4.7-6.37-7.05-9.55-.69-.93-1.35-1.88-2.06-2.85.55-.65,1.08-1.27,1.65-1.94,4.63,2.21,9.18,4.51,13.69,6.91.1.06.21.14.29,0,.02-.03-.08-.13-.12-.2Z"/>
      <path class="cls-2" d="M81.67,33.23c-.91.47-1.8.91-2.66,1.38-.49.26-.69-.09-.92-.37-1.95-2.25-3.9-4.51-5.85-6.76-.24-.27-.38-.65-.86-.79.83,3.53,1.65,7.01,2.46,10.44-.12.11-.16.17-.22.2q-2.64,1.5-4.67-.73c-2.53-2.79-5.05-5.59-7.64-8.46.88-.45,1.69-.87,2.56-1.32,2.46,2.83,4.93,5.59,7.38,8.45-.82-3.64-1.63-7.27-2.45-10.91.1-.08.14-.13.2-.16,2.15-1.12,2.17-1.13,3.76.65,1.8,2.02,3.57,4.07,5.36,6.1.2.22.33.53.75.63-.91-3.68-1.8-7.31-2.71-11,.8-.41,1.56-.8,2.42-1.25,1.03,4.66,2.05,9.25,3.08,13.9ZM71.3,35.66s.06-.04.06-.06c0-.02-.03-.04-.05-.07-.02.02-.05.04-.05.06,0,.02.03.04.04.06Z"/>
      <path class="cls-2" d="M41.59,55.48c.17-.38-.12-.65-.25-.94-1.4-3.14-2.82-6.28-4.24-9.46.58-.71,1.35-1.15,2.1-1.78,2.96,2.25,5.91,4.5,8.86,6.75.09.07.17.27.3.13.1-.1,0-.25-.11-.34-1.38-2.94-2.73-5.89-4.16-8.8-.43-.87-.49-1.48.46-1.98.38-.2.7-.53,1.15-.87,1.93,4.38,3.82,8.68,5.73,13.02-.92.72-1.77,1.4-2.73,2.15-2.84-2.2-5.68-4.38-8.51-6.57-.03-.08-.06-.17-.17-.1-.02.01.04.14.07.21,1.47,3.22,2.95,6.45,4.45,9.73-.89.71-1.75,1.39-2.62,2.08-3.8-2.82-7.58-5.63-11.46-8.52.76-.61,1.47-1.17,2.25-1.79,3.06,2.26,5.98,4.65,8.91,7.05.03.04.06.08.09.13,0-.04.02-.08.03-.12-.04,0-.09,0-.13.01Z"/>
      <path class="cls-2" d="M160.97,8.52c-.9.96-1.71,1.84-2.55,2.69-.35.36-.39.78-.39,1.23,0,1.33,0,2.67,0,4.06-1,.16-1.9.06-2.97.03.12-5.53.23-11.02.35-16.53h2.85v7.64c.34,0,.46-.32.65-.52,1.85-1.97,3.74-3.92,5.52-5.95.71-.8,1.44-1.16,2.48-1.02.49.07.99.01,1.78.01-2.07,2.24-3.94,4.26-5.88,6.35,2.11,3.4,4.2,6.78,6.38,10.29-1.06,0-1.94-.01-2.82,0-.5,0-.6-.41-.78-.71-1.52-2.48-3.03-4.96-4.62-7.57Z"/>
      <path class="cls-1" d="M225.14,17.87c.74-2.07,1.45-4.05,2.18-6.09.95.21,1.78.56,2.73.96-2.07,5.62-4.12,11.2-6.19,16.84-.73-.27-1.4-.51-2.04-.74-.3-.46.11-.89-.03-1.37-.77.13-1.52.34-2.28.37-3.07.14-5.58-2.15-5.66-5.22-.06-2.48.8-4.63,2.73-6.26,2-1.68,5.96-2.22,8.56,1.5ZM216.75,22.66c-.04,1.28.46,2.26,1.6,2.88,1.25.68,2.49.56,3.74-.02.25-.12.32-.35.4-.57.58-1.57,1.14-3.15,1.73-4.71.12-.31.14-.54-.05-.85-1.51-2.5-4.67-2.61-6.31-.2-.7,1.04-1.08,2.2-1.12,3.47Z"/>
      <path class="cls-1" d="M118.85,8.9c-.48-2.02-.96-4.04-1.46-6.14,1-.22,1.88-.41,2.84-.62,1.29,5.86,2.57,11.62,3.86,17.44-.72.37-1.47.47-2.26.55-.19-.4-.36-.76-.52-1.12-.38.05-.49.38-.69.6-2.9,3.16-7.53,2.47-9.28-1.43-1.16-2.59-1.34-5.2.57-7.54,1.81-2.21,4.17-2.53,6.77-1.62.04.04.09.09.13.13.01-.09.03-.17.04-.26ZM113.44,14.43c.05,1.05.29,2.17.9,3.2.67,1.12,1.63,1.75,2.97,1.63,1.41-.12,2.4-.9,3.14-2.06.12-.19.08-.39.04-.59-.38-1.67-.77-3.33-1.12-5-.08-.4-.28-.57-.62-.72-2.68-1.18-5.27.48-5.31,3.54Z"/>
      <path class="cls-1" d="M37.17,62.74c-.56.62-1.04,1.15-1.55,1.7-.49-.34-.9-.62-1.37-.95-.28,1.47-.55,2.87-1.51,4.01-1.42,1.68-3.31,2.15-5.01,1.19-1.86-1.05-2.58-2.93-1.89-5,.49-1.48,1.35-2.75,2.28-3.98.31-.41.62-.81.92-1.21-1.67-1.62-3.04-1.54-4.43.22-.71.9-1.09,1.96-1.39,3.1-.75-.01-1.38-.35-2.13-.57.59-2.42,1.65-4.51,3.73-5.92,1.61-1.1,3.3-.97,4.91.07.6.39,1.17.85,1.66,1.36,1.94,1.98,3.85,3.98,5.79,5.99ZM30.29,59.96c-.49.4-.85,1.02-1.24,1.62-.55.83-1.04,1.69-1.07,2.73-.02.88.38,1.53,1.13,1.93.76.41,1.45.16,2.08-.36,1.07-.88,1.36-2.09,1.47-3.38.02-.27-.15-.45-.32-.61-.67-.64-1.34-1.26-2.04-1.92Z"/>
      <path class="cls-1" d="M84.41,20.72c-.56-.46-1.08-.89-1.69-1.39,1.62-2.16,3.54-3.82,6.31-4.12,1.74-.19,3.01.69,3.97,2.08.69.99,1.09,2.12,1.53,3.24.83,2.13,1.66,4.25,2.51,6.44-.76.3-1.41.55-2.06.81-.48-.3-.53-.83-.87-1.19-.41.05-.45.45-.62.71-.89,1.32-1.99,2.34-3.58,2.74-1.54.39-2.88,0-3.86-1.24-1.05-1.34-1.37-2.84-.52-4.41.94-1.73,2.55-2.72,4.16-3.71.46-.28.94-.54,1.41-.81-.96-2.21-2.29-2.65-4.32-1.43-.95.57-1.65,1.41-2.39,2.3ZM91.82,21.54c-1.46.84-2.85,1.54-3.72,2.89-.81,1.25-.22,2.92,1.07,3.1,1.25.17,2.17-.43,2.95-1.33.7-.82,1.14-1.66.48-2.76-.33-.54-.49-1.19-.78-1.9Z"/>
      <path class="cls-1" d="M65.38,41.98c-.66.43-1.25.81-1.85,1.2-.56-.16-.69-.77-1.22-1.04-.45,1.04-.81,2.11-1.59,2.93-1.22,1.29-2.64,2.13-4.47,1.55-1.66-.52-2.58-1.77-2.81-3.46-.19-1.37.48-2.51,1.28-3.57.97-1.29,2.21-2.32,3.4-3.37-.82-1.83-2.58-2.14-4.05-.96-1.02.82-1.65,1.89-2.29,3.02-.7-.27-1.31-.62-1.91-1.03.93-2.02,2.23-3.7,4.21-4.77,2.01-1.08,3.88-.77,5.51.85,1.03,1.03,1.73,2.29,2.5,3.49,1.09,1.69,2.17,3.39,3.28,5.14ZM59.24,37.73c-1.66,1.29-2.69,2.46-3.09,3.48-.38.97-.21,1.81.56,2.51.78.71,1.59.44,2.35-.03,1.06-.64,1.54-1.69,1.87-2.82.09-.29-.01-.52-.17-.76-.5-.77-.99-1.54-1.52-2.38Z"/>
      <path class="cls-1" d="M198.85,17.2c-.03-3.74,2.72-6.68,6.29-6.71,3.73-.03,6.67,2.72,6.7,6.29.04,3.77-2.67,6.71-6.23,6.76-3.78.06-6.72-2.7-6.75-6.34ZM201.74,17.43c0,2.11.87,3.35,2.44,3.8,1.49.43,2.97-.17,3.85-1.62.73-1.2,1.07-2.52.9-3.92-.17-1.41-.92-2.4-2.32-2.83-1.39-.44-2.57-.07-3.51,1.01-.96,1.1-1.33,2.44-1.37,3.56Z"/>
      <path class="cls-1" d="M171.11,11.62c.04-3.88,2.71-6.57,6.49-6.53,3.71.04,6.48,2.78,6.45,6.39-.03,3.89-2.71,6.61-6.47,6.58-3.82-.04-6.51-2.71-6.48-6.43ZM174.01,12.07c.03.23.05.54.11.84.33,1.82,1.43,2.89,3.09,3.05,1.57.15,2.95-.83,3.54-2.55.38-1.12.48-2.27.23-3.44-.32-1.5-1.33-2.47-2.84-2.71-1.4-.22-2.65.43-3.4,1.77-.51.92-.67,1.92-.73,3.04Z"/>
      <path class="cls-1" d="M288.19,74.08c-.66-.66-1.17-1.16-1.72-1.71.26-.41.51-.8.8-1.25-1.61-.32-3.09-.78-4.27-1.92-1.92-1.86-1.86-4.43.15-5.83,1.02-.71,2.12-.67,3.24-.31,1.49.48,2.75,1.37,3.99,2.29.44.33.86.67,1.29,1,1.36-1.37,1.33-2.61-.04-3.88-.98-.9-2.18-1.39-3.49-1.81.16-.65.31-1.26.49-1.96,2.46.7,4.54,1.84,5.95,3.96,1.22,1.83,1.01,3.75-.63,5.53-1.84,1.98-3.77,3.88-5.74,5.9ZM290.52,67.55c-.52-.4-.92-.72-1.33-1.01-.36-.26-.73-.51-1.12-.72-.69-.38-1.39-.75-2.21-.69-1.09.07-1.86,1.07-1.57,2.04.4,1.32,2.55,2.7,3.91,2.48.15-.02.32-.11.43-.22.61-.59,1.21-1.19,1.89-1.87Z"/>
      <path class="cls-1" d="M238.04,27.32c.75-1.79.29-2.91-1.39-3.62-1.25-.53-2.58-.54-3.97-.51-.07-.69-.13-1.29-.2-2.02,2.78-.16,5.36.2,7.48,2.11,1.37,1.24,1.61,2.9.95,4.53-1.07,2.65-2.32,5.23-3.53,7.91-.78-.36-1.44-.67-2.06-.95-.14-.53.33-.91.08-1.42-1.48.18-2.96.29-4.4-.3-2.59-1.05-3.5-3.7-1.91-5.71,1.13-1.43,2.73-1.4,4.33-1.22,1.56.19,3.06.66,4.61,1.19ZM237.38,28.83c-1.63-.47-3.15-1.12-4.83-.77-.74.15-1.21.61-1.39,1.34-.16.68.09,1.22.61,1.63,1.25.97,2.65.96,4.1.6.24-.06.33-.23.41-.41.36-.77.71-1.54,1.1-2.39Z"/>
      <path class="cls-1" d="M261.42,43.64c-2.48-1.59-4.92-3.16-7.36-4.73-1.91,2.63.07,5.42,4.59,6.48v1.77c-3.34.21-8.43-2.81-7.79-7.65.32-2.47,2.35-4.91,4.81-5.61,2.45-.7,5.18.23,6.78,2.3,1.62,2.11,1.23,5.15-1.02,7.44ZM260.44,40.86c1.12-1.94.89-3.35-.65-4.4-1.6-1.09-3.55-.75-4.8.89,1.81,1.16,3.61,2.32,5.46,3.51Z"/>
      <path class="cls-1" d="M138.22,11.94c-2.87.39-5.77.79-8.67,1.19.54,3.34,3.87,4.14,7.78,1.89.37.46.76.92,1.14,1.39-2.93,2.58-7.4,2.73-9.99.37-2.14-1.95-2.62-5.78-1.04-8.3,1.61-2.58,4.83-3.67,7.61-2.58,2.14.84,3.52,3.41,3.18,6.05ZM129.27,11.34c2.19-.3,4.31-.6,6.43-.89-.45-2.26-1.54-3.12-3.49-2.89-1.79.21-3.04,1.76-2.94,3.78Z"/>
      <path class="cls-1" d="M307.11,88.83c-1.76-2.32-3.53-4.66-5.3-7-2.63,2.16-1.71,5.51,2.19,7.72-.21.54-.43,1.09-.65,1.64-4.19-1.32-6.52-6.12-4.77-9.73,1.17-2.42,4.2-4.08,6.77-3.73,2.81.38,5.01,2.53,5.48,5.34.37,2.17-1.29,4.77-3.72,5.76ZM303.23,80.71c1.31,1.73,2.61,3.45,3.91,5.17,1.68-1.29,1.99-2.71,1-4.21-1.1-1.66-3.02-2.06-4.9-.96Z"/>
      <path class="cls-1" d="M302.24,71.44c.59.7,1.14,1.35,1.72,2.03-.43.54-.97.94-1.53,1.37-.61-.69-1.2-1.35-1.82-2.05-2.62,2.25-5.18,4.46-7.82,6.72-.63-.73-1.22-1.41-1.88-2.17,2.61-2.25,5.19-4.48,7.81-6.75-.4-.49-.77-.93-1.2-1.44.48-.41.93-.8,1.44-1.23.47.44.92.85,1.36,1.26,4.07-3.2,6.62-2.73,8.53,1.63-.57.26-1.15.53-1.71.79-1.77-2.57-2.38-2.6-4.9-.16Z"/>
      <path class="cls-1" d="M185.39,17.47c.56-.47,1.07-.9,1.61-1.35,1.24,1.14,2.51,2.1,4.24,2.15.88.03,1.67-.14,1.98-1.09.29-.91-.34-1.4-.97-1.83-.99-.67-2.04-1.25-3.01-1.95-1.6-1.15-2.08-2.53-1.45-3.97.55-1.25,1.6-1.87,2.88-2.03,2.5-.31,4.64.48,6.5,2.32-.55.45-1.07.87-1.6,1.31-1.07-.94-2.15-1.7-3.59-1.66-.74.02-1.36.21-1.63.98-.28.78.21,1.25.76,1.61,1,.66,2.05,1.23,3.04,1.9.99.66,1.82,1.47,1.87,2.78.08,2.05-1.48,3.56-3.85,3.65-2.64.1-4.86-.88-6.79-2.81Z"/>
      <path class="cls-1" d="M246.22,28.81c-.58-.34-1.11-.65-1.72-1,.3-.54.59-1.06.92-1.66.66.29,1.27.57,1.95.88.65-.93,1.29-1.85,1.96-2.81.68.37,1.33.73,2.08,1.14-.54,1.01-1.06,1.98-1.61,3.01,1.03.58,2,1.13,3.02,1.7-.16.68-.59,1.2-.91,1.85-1.07-.58-2.05-1.11-3.17-1.72-1.13,2.09-2.29,4.12-3.31,6.22-.46.93,0,1.74,1.03,2.25.39.19.82.31,1.26.48.17.33-.11.63-.14.96-.03.3-.15.58-.24.9-1.03-.17-1.95-.49-2.8-1.01-2.13-1.32-2.66-2.98-1.54-5.22.99-1.98,2.1-3.9,3.22-5.95Z"/>
      <path class="cls-1" d="M285.91,55.82c-.63.29-1.33.22-1.97.37-1.15-2.67-2.56-3.63-4.67-3.21-1.97.39-3.77,2.55-3.8,4.57-.04,2.03,1.37,3.39,4.23,4.03.03.62,0,1.25-.14,1.87-3.08.24-6.43-2.76-6.81-6.05-.36-3.13,2.52-6.63,5.76-7.04,3.52-.45,7.22,2.5,7.41,5.46Z"/>
    </g>
  </g>
</svg>