<?xml version="1.0" encoding="UTF-8"?>
<svg id="ly" data-name="ly_2" xmlns="http://www.w3.org/2000/svg" width="345" height="36" viewBox="0 0 342.4 35.65">
  <defs>
    <style>
      .cls-1 {
        fill: #312823;
      }
    </style>
  </defs>
  <g id="ly_1-2" data-name="ly_1">
    <g>
      <path class="cls-1" d="M126.61,25.64c.44,1.6,1.43,2.48,2.88,2.86,1.52.39,2.98.13,4.37-.58,1.44-.73,1.65-.65,2.5.78.03.06.07.12.1.18,1.25,2.08,1.16,2.5-1.03,3.41-3.75,1.57-7.48,1.75-10.94-.69-3.29-2.31-4.25-5.73-3.68-9.5.6-3.97,2.82-6.8,6.86-7.8,4.8-1.19,9.77,1.16,10.32,7.38.07.81.06,1.65-.02,2.46-.13,1.25-.46,1.49-1.73,1.49-2.88,0-5.76,0-8.64,0-.3,0-.59,0-.99,0ZM126.69,21.11h5.95c-.32-1.55-1-2.2-2.35-2.31-1.76-.14-2.95.59-3.6,2.31Z"/>
      <path class="cls-1" d="M182.87,7.61V2.87h14.89V0h5.99v2.85h14.82v4.7h-6.53c2.49,1.97,4.84,3.64,6.92,5.86-1.81,1.06-3.55,2.08-5.4,3.17,0,2.2,0,4.52,0,6.84,0,2.33.02,4.65,0,6.98-.04,3.08-.99,4.16-4.03,4.64-1.83.29-3.69.26-5.53.28-.37,0-.66-.04-.77-.48-.31-1.26-.87-2.43-1.51-3.69,1.63,0,3.15.01,4.67,0,1.23-.01,1.38-.22,1.12-1.54h-13.51v5.67h-5.86V15.81h24.87c-.62-1.38-1.27-1.79-2.63-1.75-8.32.23-16.64.46-24.96.68-.34,0-.68,0-1.16,0v-4.81c1.32,0,2.72-.08,4.1.03,1.05.08,1.67-.3,2.08-1.21.16-.37.41-.69.69-1.15h-8.23ZM206.1,7.74c-.02-.06-.03-.12-.05-.17-1.94,0-3.91.16-5.83-.05-1.91-.2-2.67,1.02-3.59,2.18h9.67c-.63-.5-1.05-.84-1.5-1.2.48-.28.88-.52,1.29-.76ZM207.55,24.84h-13.58c-.03.38-.11.72.07,1.04h13.48c.14-.36.12-.66.03-1.04ZM193.98,21.12h13.53c.15-.37.18-.69,0-.99h-13.53v.99Z"/>
      <path class="cls-1" d="M142.07,21.54v-5.41h15.57v-5.8c1.08-.32,2.17.21,3.1-.31,1.27-.71,2.51-1.49,3.78-2.57h-18.18V2.26c.35-.25.77-.12,1.17-.12,7.19,0,14.39,0,21.58,0,.17,0,.36.04.51,0,2.11-.69,3.63.42,5.13,1.63.5.4,1.05.75,1.65,1.18-1.84,1.85-3.77,3.47-5.79,4.97-1.87,1.38-3.73,2.8-5.79,3.88-1.01.53-1.25,1.21-.94,2.29h15.42v5.42h-15.34c-.3.33-.19.66-.19.95-.01,2.29.01,4.58-.01,6.88-.04,3.67-1.22,5.08-4.81,5.7-1.96.34-3.95.43-5.93.42-.33,0-.67.07-.8-.41-.47-1.79-1.34-3.41-2.22-5.08,2.12,0,4.16,0,6.21,0,1.37,0,1.49-.11,1.49-1.44,0-2.29,0-4.57,0-6.96h-15.6Z"/>
      <path class="cls-1" d="M5.9,25.98c-1.17,1.46-2.29,2.78-3.33,4.16-.47.62-.97.97-1.74.73-.73-.23-.8-.84-.8-1.49,0-1.4.09-2.81-.02-4.21-.09-1.13.34-1.98,1.03-2.77,1.46-1.67,2.89-3.36,4.39-4.98.85-.92.48-1.97.57-3.1-1.46,0-2.85,0-4.24,0-1.39,0-1.71-.31-1.72-1.67,0-.72-.01-1.44,0-2.16.02-1.16.37-1.51,1.56-1.51,1.43-.01,2.87,0,4.4,0,0-1.46,0-2.85,0-4.24,0-1.39.32-1.71,1.67-1.72.93,0,1.85-.01,2.78,0,1.16.02,1.51.37,1.52,1.56,0,2.36,0,4.71,0,7.22.72-.45,1.33-.86,1.95-1.24,3.3-1.97,6.8-2.47,10.39-1.07,2.12.83,3.49,2.6,4.28,4.71,1.32,3.51,1.65,7.14.57,10.77-1.33,4.41-4.44,7.09-8.78,8.42-1.48.46-3,.69-4.54.79-1.07.07-1.52-.35-1.6-1.4,0-.07,0-.14,0-.21-.1-3.24-.09-3.2,3.03-3.9,3.17-.71,5.64-2.34,6.49-5.67.57-2.24.38-4.49-.54-6.63-.65-1.51-2.45-2.27-4.07-1.92-1.8.39-3.27,1.33-4.58,2.57-.52.49-.99,1.05-1.54,1.51-.83.7-1.09,1.53-1.08,2.61.01,4.07-.06,8.14-.12,12.2-.02,1.26-.33,1.59-1.57,1.63-.86.03-1.71.03-2.57,0-1.18-.04-1.51-.38-1.52-1.56-.01-2.42.05-4.84-.27-7.44Z"/>
      <path class="cls-1" d="M40.1,25.65c-1.32,1.65-2.49,3.05-3.6,4.51-.47.61-.98.96-1.74.71-.73-.24-.79-.85-.78-1.5,0-1.4.08-2.81-.02-4.21-.08-1.09.31-1.92.97-2.69,1.29-1.5,2.47-3.1,3.9-4.45,1.14-1.08,1.23-2.25,1.06-3.7-1.43,0-2.86,0-4.29,0-1.25,0-1.59-.34-1.6-1.57,0-.65,0-1.3,0-1.95,0-1.52.29-1.81,1.78-1.81,1.36,0,2.73,0,4.19,0,0-1.5,0-2.92,0-4.35,0-1.25.34-1.59,1.57-1.6.92,0,1.85,0,2.78,0,1.29.01,1.61.34,1.61,1.67,0,2.32,0,4.64,0,7.11.72-.46,1.33-.85,1.96-1.24,2.84-1.75,5.94-2.34,9.13-1.47,2.53.69,4.48,2.35,5.45,4.89,1.41,3.67,1.78,7.44.56,11.24-1.38,4.32-4.49,6.89-8.74,8.19-1.44.44-2.93.67-4.44.77-1.12.08-1.59-.34-1.64-1.45-.03-.72-.01-1.44,0-2.16.02-1.24.32-1.57,1.55-1.68,1.76-.16,3.43-.62,4.91-1.61,2.25-1.51,3.31-3.68,3.32-6.35,0-1.64-.14-3.28-.94-4.78-.85-1.58-2.1-2.1-3.84-1.73-3.09.65-5.13,2.78-6.99,5.06-.74.9-.38,2.25-.41,3.38-.09,3.42-.03,6.84-.03,10.26,0,1.56-.29,1.84-1.86,1.85-.72,0-1.44.01-2.16,0-1.31-.03-1.64-.35-1.64-1.64,0-2.46,0-4.92,0-7.69Z"/>
      <path class="cls-1" d="M74.02,25.69c-1.29,1.55-2.47,2.96-3.62,4.38-.46.56-1.03.85-1.71.63-.75-.24-.81-.93-.8-1.61.01-1.3.09-2.61-.02-3.9-.09-1.13.32-1.98,1.01-2.78,1.46-1.66,2.89-3.36,4.39-4.98.86-.92.49-1.98.58-3.12-1.48,0-2.9,0-4.33,0-1.3,0-1.62-.34-1.63-1.65,0-.75-.02-1.51,0-2.26.03-1.05.38-1.41,1.44-1.43,1.47-.02,2.94,0,4.52,0,0-1.48,0-2.9,0-4.32,0-1.3.34-1.62,1.65-1.63.96,0,1.92-.02,2.88,0,1.05.02,1.42.38,1.43,1.44.02,2.39,0,4.79,0,7.34.71-.45,1.32-.85,1.94-1.23,3.12-1.88,6.43-2.41,9.91-1.25,2.47.82,4.02,2.7,4.84,5.08,1.56,4.57,1.78,9.12-.8,13.45-2.09,3.5-5.4,5.21-9.27,5.97-.94.19-1.9.28-2.85.36-.91.08-1.41-.4-1.48-1.31,0-.1,0-.21,0-.31-.09-3.23-.09-3.19,3.03-3.89,3.17-.71,5.64-2.34,6.48-5.68.56-2.24.4-4.5-.55-6.62-.79-1.75-1.93-2.26-4.02-1.9-3.08.54-5.07,2.74-6.91,4.99-.76.93-.39,2.31-.42,3.48-.09,3.39-.03,6.78-.03,10.16,0,1.58-.28,1.86-1.84,1.88-.79,0-1.58.03-2.36,0-1.11-.05-1.45-.39-1.45-1.52-.01-2.53,0-5.06,0-7.77Z"/>
      <path class="cls-1" d="M267.38,28.45c1.49.29,2.84.71,4.26.67.58-.01,1.17-.02,1.74-.1,1.03-.14,1.65-.74,1.82-1.79.24-1.46.31-2.93.34-4.39.05-2.49.01-4.98.01-7.54h-6.52c-.17,5.22-1.62,10.05-5.07,14.14-2.34,2.77-5.25,4.75-8.74,6.22,0-2.22,0-4.35,0-6.48,0-.45.47-.55.76-.75,4.42-3.01,6.49-7.26,6.61-12.53,0-.2-.02-.4-.04-.68h-7.05v-5.79h7.28v-5.16h6.36v5.09h12.67c.06.16.13.25.13.34,0,5.99.12,11.97-.4,17.95-.42,4.79-3.04,7.29-7.85,7.43-1.85.05-3.69-.07-5.5-.55-.58-.16-.86-.35-.84-1.02.06-1.64.02-3.28.02-5.05Z"/>
      <path class="cls-1" d="M236.14,11.47h-12.96v-5.58h27.49v5.58c-1.08.2-2.19.34-3.28.61-4.22,1.06-7.74,3.23-10.36,6.74-1.08,1.45-1.85,3.08-1.48,4.96.42,2.13,2.24,3.71,4.61,4.09,3.08.5,6.15.13,9.29-.1v5.84c-1.48.33-2.99.26-4.48.31-3.13.11-6.23-.07-9.22-1.09-6.84-2.34-9.23-9.67-5.12-15.63,1.35-1.96,2.98-3.65,4.9-5.06.21-.15.51-.22.62-.66Z"/>
      <path class="cls-1" d="M290.81,34.08v-5.89c1.73-.31,3.47-.6,5.17-1.12,7.15-2.21,11.1-7.46,11.28-15.52h-19.19v-5.91h25.67c.5,7.62-.07,14.92-5.83,20.78-3.48,3.55-7.81,5.56-12.55,6.79-1.48.38-2.97.68-4.55.87Z"/>
      <path class="cls-1" d="M333.74,28.82h8.66v4.92h-23.41v-4.9h8.78v-13.24h-8.15v-4.9h22.05v4.88h-7.93v13.24Z"/>
      <path class="cls-1" d="M113.25,31.98c-1.66,1-3.37,1.62-5.29,1.42-3.11-.33-5.46-1.78-6.62-4.74-1.53-3.92-1.48-7.79,1.1-11.29,2.3-3.11,5.87-4.07,9.51-2.81.19.07.37.13.63.22,0-2.04,0-4.02,0-6,0-1.47.36-1.83,1.81-1.84.75,0,1.51,0,2.26,0,1.35.01,1.71.36,1.71,1.71,0,6.23,0,12.45,0,18.68,0,1.4.02,2.81,0,4.21-.02,1.21-.33,1.49-1.54,1.51-.68,0-1.37-.02-2.06,0-.76.03-1.34-.18-1.51-1.07ZM112.58,23.51c0-.99,0-1.98,0-2.97,0-.36-.04-.64-.36-.89-1.78-1.36-4.46-.77-5.39,1.26-.77,1.68-.75,3.47-.25,5.2.69,2.4,3.03,3.13,5.12,1.72.62-.42.95-.88.89-1.67-.07-.88-.02-1.77-.02-2.66Z"/>
    </g>
  </g>
</svg>