<?xml version="1.0" encoding="UTF-8"?>
<svg id="_レイヤー_2" data-name="レイヤー_2" xmlns="http://www.w3.org/2000/svg" viewBox="0 0 225.24 207.28">
  <defs>
    <style>
      .cls-1 {
        fill: #faf9f9;
      }

      .cls-2 {
        fill: #302722;
      }

      .cls-3 {
        fill: #7fac3a;
      }

      .cls-4 {
        fill: #342b26;
      }

      .cls-5 {
        fill: #332a26;
      }

      .cls-6 {
        fill: #f9f8f8;
      }

      .cls-7 {
        fill: #7aa734;
      }

      .cls-8 {
        fill: #f7f7f7;
      }

      .cls-9 {
        fill: #fdfdfd;
      }
    </style>
  </defs>
  <g id="_レイヤー_1-2" data-name="レイヤー_1">
    <g>
      <path class="cls-4" d="M105.55,0c25.66.46,49.73,9.86,69.76,28.99,13.88,13.26,23.4,29.21,28.21,47.86,1.2,4.64,2.31,9.31,2.84,14.08.07.62.3.75.9.77,3.35.09,6.71.08,10.04.6,2.13.33,3.77,1.34,5.05,3.16,3.79,5.41,3.89,11.14.2,16.45-1.07,1.54-2.5,2.47-4.26,3.01-3.31,1.03-6.7,1.32-10.14,1.26-1.74-.03-1.71,0-2,1.76-2.01,12.13-5.31,23.84-11.33,34.67-14.13,25.42-35.08,42.39-62.99,50.58-14.83,4.35-29.97,5.27-45.16,2.53-32.36-5.82-56.92-23.02-73.37-51.52C5.49,140.75,1.35,126.12.25,110.6-2.29,74.76,14.51,39.45,43.99,18.87,57.48,9.46,72.36,3.54,88.62,1.11c4.95-.74,9.94-1.06,16.93-1.11ZM103.61,4.4c-6.18.12-12.29.6-18.33,1.78-21.32,4.14-39.64,13.92-54.26,29.97C9.25,60.06.85,88.25,5.89,120.18c3.22,20.41,12.32,38.14,26.91,52.77,20.96,21.02,46.46,30.87,76.15,29.58,13.81-.6,26.99-4.02,39.2-10.45,30.75-16.21,48.59-41.7,53.78-76.06.11-.76,0-1-.83-.99-4.59.06-9.18.06-13.77.05-.67,0-.9.17-1.03.87-1.06,5.51-2.12,11.04-4.11,16.31-7.49,19.78-20.39,34.98-39.06,44.99-18.69,10.02-38.51,12.59-59.15,7.63-20.19-4.85-36.44-15.84-48.49-32.72-11.78-16.5-16.84-35.01-15.28-55.26,1.21-15.72,6.46-30.03,15.85-42.66,14.45-19.43,33.82-30.68,57.87-33.7,12.79-1.61,25.3-.11,37.44,4.17,27.76,9.79,50.1,34.16,54.98,67,.1.69.32.9,1.02.9,4.56-.02,9.11-.02,13.67.05.95.01,1.04-.31.95-1.12-.32-2.69-.94-5.32-1.45-7.98-2.69-13.99-8.27-26.78-16.76-38.15C163.79,18.68,136.83,5.34,103.61,4.4ZM199.31,112.53v-.03c3.84,0,7.67,0,11.51,0,1.44,0,2.88-.13,4.27-.5,1.64-.43,3.37-.73,4.38-2.37.57-.94,1.1-1.89,1.49-2.92,1.46-3.78-.46-10.27-5.71-11.2-.98-.17-1.95-.33-2.96-.33-5.03,0-10.06,0-15.09-.03-4.11-.03-8.22.12-12.33-.09-.97-.05-1.29-.49-1.4-1.37-.16-1.29-.37-2.58-.63-3.85-1.27-6.24-2.76-12.42-5.38-18.28-15.17-34.05-49.87-53.18-86.71-47.44-18.87,2.94-34.85,11.7-47.43,26.11-16.54,18.93-22.94,41.07-19.28,65.89,2.53,17.14,10.06,32.06,22.44,44.21,19.42,19.05,42.87,26.77,69.75,22.7,21.13-3.19,38.25-13.75,51.36-30.66,8.52-10.98,13.47-23.5,15.66-37.17.45-2.81-.19-2.56,3.2-2.66,4.28-.13,8.56-.03,12.85-.03Z"/>
      <path class="cls-9" d="M103.61,4.4c33.22.94,60.18,14.28,80.17,41.02,8.49,11.37,14.07,24.15,16.76,38.15.51,2.66,1.14,5.29,1.45,7.98.1.81,0,1.13-.95,1.12-4.56-.07-9.11-.06-13.67-.05-.7,0-.92-.21-1.02-.9-4.88-32.85-27.22-57.21-54.98-67-12.15-4.28-24.65-5.78-37.44-4.17-24.05,3.02-43.42,14.27-57.87,33.7-9.39,12.63-14.64,26.94-15.85,42.66-1.56,20.25,3.5,38.76,15.28,55.26,12.05,16.88,28.3,27.86,48.49,32.72,20.63,4.96,40.46,2.39,59.15-7.63,18.67-10.01,31.57-25.21,39.06-44.99,1.99-5.27,3.05-10.8,4.11-16.31.13-.69.35-.87,1.03-.87,4.59.02,9.18,0,13.77-.05.83-.01.95.23.83.99-5.19,34.36-23.02,59.85-53.78,76.06-12.21,6.44-25.39,9.85-39.2,10.45-29.69,1.29-55.19-8.56-76.15-29.58-14.59-14.63-23.68-32.36-26.91-52.77-5.04-31.93,3.36-60.12,25.13-84.03,14.62-16.06,32.95-25.83,54.26-29.97,6.04-1.17,12.14-1.66,18.33-1.78Z"/>
      <path class="cls-9" d="M199.31,112.53c-4.28,0-8.57-.1-12.85.03-3.39.1-2.75-.15-3.2,2.66-2.18,13.67-7.14,26.19-15.66,37.17-13.11,16.91-30.23,27.47-51.36,30.66-26.88,4.06-50.33-3.65-69.75-22.7-12.38-12.14-19.91-27.06-22.44-44.21-3.66-24.83,2.74-46.96,19.28-65.89,12.58-14.41,28.56-23.17,47.43-26.11,36.84-5.75,71.54,13.38,86.71,47.44,2.61,5.86,4.1,12.03,5.38,18.28.26,1.27.47,2.56.63,3.85.11.88.43,1.32,1.4,1.37,4.11.21,8.22.06,12.33.09,5.03.04,10.06.03,15.09.03,1,0,1.98.15,2.96.33,5.24.92,7.16,7.41,5.71,11.2-.4,1.03-.92,1.98-1.49,2.92-1.01,1.64-2.74,1.94-4.38,2.37-1.39.37-2.83.5-4.27.5-3.84,0-7.67,0-11.51,0v.03ZM104.9,32.27c-39.46-.71-72.06,30.66-72.66,70.14-.6,39.37,30.31,71.51,69.36,72.46,40.19.98,72.69-30.33,73.26-70.4.56-39.24-30.62-71.39-69.96-72.2Z"/>
      <path class="cls-2" d="M104.9,32.27c39.34.82,70.52,32.96,69.96,72.2-.57,40.07-33.08,71.38-73.26,70.4-39.05-.95-69.97-33.09-69.36-72.46.61-39.48,33.2-70.85,72.66-70.14ZM83.58,161.28c3.91-4.91,8.89-8.18,15.03-9.54,5.43-1.2,10.96-1.66,16.52-1.75,7.05-.12,13.61-2.15,19.94-5.08,1.14-.53,2.24-1.19,3.11-2.17-.95.3-1.81.76-2.73,1.09-7.43,2.71-15.08,3.98-22.98,3.35-4.65-.37-9.14.17-13.55,1.67-6.54,2.22-11.85,6.02-15.5,11.98-.65.97-1.09,2.02-1.26,3.19.48-.91.95-1.82,1.43-2.74ZM149.68,89.02c-.24-.29-.46-.6-.73-.86-4.95-4.59-10.77-7.29-17.51-7.97-3.59-.36-7.1.23-10.6.9-.15-.04-.31-.08-.46-.13l-2.31-5.9c-.2-3.06-.7-6.09-1.19-9.12-.71-4.42-1.57-8.81-3.12-13.02-.22-.6-.32-1.5-1.2-1.47-.76.02-.79.86-.98,1.4-1.02,2.86-1.98,5.75-2.98,8.62-.22.63-.55,1.19-1.3,1.32-.83-.52-1.66-1.05-2.5-1.57-.22-.82,0-1.51.51-2.2,2.77-3.86,5.71-7.6,8.34-11.57.17-.26.61-.51.37-.87-.2-.31-.64-.17-.97-.14-2.89.29-5.73.84-8.54,1.58-6.17,1.61-12.14,3.77-17.92,6.46-2.16,1.01-4.39,1.91-6.37,3.29-.73.28-1.46.58-2.2.83-13.46,4.47-22.68,17.17-22.59,31.36.06,8.37,2.84,15.87,7.71,22.67,3.19,4.44,6.93,8.39,10.66,12.36,3.43,3.65,6.33,7.65,7.76,12.55.76,2.63.65,5.31.67,7.99.02-.39.19-.77.22-1.16.38-5.11-.16-10.04-2.71-14.62-2.35-4.22-5.54-7.81-8.57-11.52-4.57-5.59-8.5-11.58-10.76-18.53-1.66-5.12-2.14-10.32-1.06-15.6,2.53-12.41,12.24-21.51,25.05-23.55,11.75-1.86,23.99,4.23,30.01,14.98,1.17,2.09,2.12,4.29,2.48,6.69-.19.3-.48.46-.79.63-1.89,1.04-3.72,2.17-5.49,3.41-2.89,2.03-4.97,4.7-6.09,8.03-.73,2.16-.62,2.32,1.76,2.76.03,0,.07,0,.1,0,4.88.2,9.6-.49,14.15-2.3.51-.2.76-.51.82-1.05.26-2.18.33-4.35.03-6.53-.12-.85-.41-1.76.23-2.56.87-.51,1.85-.69,2.83-.84,8.79-1.35,16.35,1.12,22.7,7.31-.25.4-.48.82-.74,1.21-1.14,1.7-2.23,3.42-3.14,5.26-.77,1.54-.93,2.77.61,3.88.38.27.62.72.95,1.06,2.87,2.94,6.25,5.15,9.93,6.93-.08,1.16-.15,2.32-.26,3.48-1,10.46-9.83,20.01-20.16,21.99-6.43,1.23-12.93,1.92-19.42,2.65-5.15.58-10.26,1.38-15.1,3.31-8.7,3.47-15.33,8.95-17.6,18.55-.23.56-.29,1.14-.21,1.73.22-.56.5-1.1.49-1.71,1.51-4.51,4.46-7.98,8.03-10.96,5.64-4.72,12.41-6.67,19.53-7.62,7.47-1,14.99-1.41,22.48-2.25,11.82-1.32,22.54-11.05,24.85-22.7.4-2.02.46-4.06.73-6.09.19-.56-.11-1.07-.12-1.62-.04-5.15-1.53-9.87-4.35-14.17-1.17-1.79-2.28-3.64-4-4.99ZM58.38,117.67c1.51,1.11,2.67,2.59,3.8,4.01,4.22,5.33,8.33,10.74,11.81,16.63,2.8,4.74,4.29,9.85,5.31,15.18.19.97.01,1.91.14,2.89.23-.39.39-.79.44-1.2.51-4.08.06-8.11-.76-12.11-1.11-5.39-4.09-9.81-7.42-14.01-3.1-3.91-6.99-7.02-10.85-10.13-.73-.59-1.56-1-2.47-1.26ZM105.85,156.62c-.32-.38-.64-.34-.94-.34-2.76-.03-5.52-.13-8.27.33-3.88.64-7.46,1.94-10.56,4.38-1.18.93-2.21,2.02-3,3.61,6.7-5.68,14.55-7.23,22.77-7.98ZM93.95,80.42c-.48.1-1.1.27-1.62.7-.39.31-.51.59.11.74.76.19,1.06.53.55,1.28-.19.28-.43.68.1.94.48.23.81.06.95-.41.26-.88.72-.81,1.32-.34.21.17.46.37.64-.05.46-1.01-.75-2.85-2.05-2.87ZM129.2,102.3c-.02.39-.04.66.36.71.38.04.73,0,.78-.43.1-.87.41-1.24,1.3-.77.61.32.63-.09.53-.53-.22-.89-.6-1.77-1.52-2.05-.93-.28-1.72.22-2.36.91-.16.17-.4.32-.32.6.09.32.4.22.61.23.73.02.98.34.69,1.03-.05.12-.06.26-.07.29ZM82.83,165.42c.1-.13.17-.2.21-.29.06-.15.25-.42-.13-.34-.17.04-.22.31-.08.63Z"/>
      <path class="cls-1" d="M118.08,75.07c.77,1.97,1.54,3.93,2.31,5.9-1.26.13-2.29.9-3.46,1.25-.35-2.41-1.3-4.6-2.48-6.69-6.02-10.75-18.26-16.85-30.01-14.98-12.81,2.03-22.52,11.13-25.05,23.55-1.08,5.28-.6,10.48,1.06,15.6,2.26,6.96,6.19,12.94,10.76,18.53,3.03,3.71,6.22,7.3,8.57,11.52,2.55,4.58,3.09,9.51,2.71,14.62-.03.39-.21.78-.22,1.16-.02-2.67.09-5.36-.67-7.99-1.42-4.91-4.33-8.91-7.76-12.55-3.73-3.97-7.47-7.91-10.66-12.36-4.88-6.79-7.66-14.29-7.71-22.67-.1-14.19,9.12-26.89,22.59-31.36.74-.25,1.47-.55,2.2-.83,3.08-.43,6.17-.72,9.27-.87,3.98.17,7.83.93,11.52,2.48,1.26.62,2.53,1.23,3.79,1.85.83.52,1.66,1.05,2.5,1.57.98.75,1.96,1.5,2.94,2.25,1.76,1.49,3.16,3.33,4.75,4.99,1.02,1.68,2.05,3.36,3.07,5.03Z"/>
      <path class="cls-6" d="M158.14,109.8c-.27,2.03-.33,4.08-.73,6.09-2.31,11.65-13.02,21.38-24.85,22.7-7.49.84-15.01,1.25-22.48,2.25-7.12.95-13.89,2.9-19.53,7.62-3.56,2.98-6.52,6.45-8.03,10.96-.09,0-.19-.01-.28-.02,2.27-9.6,8.9-15.08,17.6-18.55,4.84-1.93,9.96-2.73,15.1-3.31,6.49-.73,12.99-1.42,19.42-2.65,10.33-1.98,19.16-11.53,20.16-21.99.11-1.16.17-2.32.26-3.48,1.12.12,2.24.25,3.35.37Z"/>
      <path class="cls-7" d="M116.92,82.22c1.18-.36,2.2-1.13,3.46-1.25.15.04.31.08.46.13.27,1.17.54,2.35.8,3.52-.64.8-.35,1.7-.23,2.56.31,2.18.24,4.36-.03,6.53-.06.53-.31.85-.82,1.05-4.55,1.81-9.28,2.5-14.15,2.3-.03,0-.07,0-.1,0-2.38-.44-2.49-.6-1.76-2.76,1.13-3.33,3.2-6.01,6.09-8.03,1.77-1.24,3.6-2.36,5.49-3.41.3-.17.6-.32.79-.63ZM108.65,94.11c2.77-.1,5.38-.51,7.97-1.07,1.45-.31,1.44-.35,1.49-1.89.04-1.47-.11-2.93-.19-4.39-.05-.92-.37-.84-.96-.46-1.75,1.13-3.54,2.2-5.24,3.39-1.52,1.07-2.37,2.65-3.07,4.42Z"/>
      <path class="cls-7" d="M158.14,109.8c-1.12-.13-2.23-.25-3.35-.37-3.68-1.78-7.06-3.99-9.93-6.93-.33-.34-.58-.79-.95-1.06-1.54-1.1-1.38-2.34-.61-3.88.92-1.84,2-3.56,3.14-5.26.26-.39.5-.81.74-1.21.97-.53,1.56-1.51,2.5-2.07,1.72,1.35,2.83,3.2,4,4.99,2.81,4.3,4.3,9.02,4.35,14.17,0,.54.3,1.06.12,1.62ZM154.42,105.96c0-1.1-.34-2-.53-2.92-.65-3.2-2.2-6.01-3.95-8.72-.22-.34-.41-.41-.67-.02-1.06,1.59-2.19,3.14-2.87,4.95-.2.52-.07.8.35,1.12,1,.77,1.95,1.61,2.94,2.39,1.47,1.16,3.03,2.19,4.73,3.19Z"/>
      <path class="cls-7" d="M89.51,56.9c-3.1.15-6.19.44-9.27.87,1.98-1.37,4.2-2.28,6.37-3.29,5.78-2.69,11.75-4.85,17.92-6.46,2.81-.73,5.65-1.29,8.54-1.58.32-.03.76-.17.97.14.24.36-.2.6-.37.87-2.63,3.97-5.57,7.71-8.34,11.57-.5.69-.72,1.38-.51,2.2-1.26-.62-2.53-1.23-3.79-1.85,2.18-2.82,4.36-5.64,6.53-8.46-6.58,1.01-12.74,3.05-18.82,5.71.34.12.56.2.77.27Z"/>
      <path class="cls-8" d="M83.41,160.82c3.65-5.96,8.96-9.76,15.5-11.98,4.4-1.5,8.9-2.04,13.55-1.67,7.9.64,15.56-.64,22.98-3.35.91-.33,1.78-.79,2.73-1.09-.87.98-1.96,1.64-3.11,2.17-6.33,2.93-12.89,4.97-19.94,5.08-5.56.09-11.08.55-16.52,1.75-6.14,1.36-11.12,4.62-15.03,9.53-.06-.15-.11-.3-.17-.45Z"/>
      <path class="cls-1" d="M149.68,89.02c-.94.56-1.53,1.54-2.5,2.07-6.36-6.19-13.91-8.66-22.7-7.31-.98.15-1.96.33-2.83.84-.27-1.17-.54-2.35-.8-3.52,3.5-.67,7.01-1.26,10.6-.9,6.74.67,12.55,3.38,17.51,7.97.27.25.49.57.73.86Z"/>
      <path class="cls-7" d="M58.38,117.67c.91.25,1.74.67,2.47,1.26,3.86,3.11,7.75,6.22,10.85,10.13,3.33,4.2,6.31,8.61,7.42,14.01.82,4,1.28,8.02.76,12.11-.05.41-.21.81-.44,1.2-.13-.97.05-1.92-.14-2.89-1.02-5.33-2.52-10.44-5.31-15.18-3.47-5.88-7.59-11.29-11.81-16.63-1.13-1.42-2.28-2.9-3.8-4.01Z"/>
      <path class="cls-7" d="M118.08,75.07c-1.02-1.68-2.05-3.36-3.07-5.03-.55-3.78-1.1-7.55-2.47-11.4-1.13,2.17-1.42,4.4-2.28,6.41-.98-.75-1.96-1.5-2.94-2.25.74-.14,1.08-.69,1.29-1.32,1-2.87,1.96-5.75,2.98-8.62.19-.54.23-1.38.98-1.4.87-.03.97.87,1.2,1.47,1.55,4.22,2.41,8.6,3.12,13.02.49,3.03.99,6.05,1.19,9.12Z"/>
      <path class="cls-7" d="M105.85,156.62c-8.22.74-16.08,2.3-22.77,7.98.79-1.59,1.82-2.69,3-3.61,3.11-2.44,6.69-3.74,10.56-4.38,2.76-.46,5.51-.36,8.27-.33.3,0,.62-.03.94.34Z"/>
      <path class="cls-8" d="M93.95,80.42c1.3.02,2.51,1.86,2.05,2.87-.19.41-.43.21-.64.05-.6-.47-1.06-.54-1.32.34-.14.47-.47.64-.95.41-.53-.26-.29-.66-.1-.94.51-.76.22-1.1-.55-1.28-.62-.15-.5-.43-.11-.74.52-.42,1.14-.59,1.62-.7Z"/>
      <path class="cls-8" d="M129.2,102.3s.01-.17.07-.29c.29-.7.05-1.01-.69-1.03-.21,0-.52.09-.61-.23-.08-.28.16-.43.32-.6.64-.69,1.43-1.19,2.36-.91.92.28,1.29,1.16,1.52,2.05.11.44.08.85-.53.53-.9-.47-1.2-.1-1.3.77-.05.44-.4.48-.78.43-.4-.05-.38-.32-.36-.71Z"/>
      <path class="cls-3" d="M83.41,160.82c.06.15.11.3.17.45-.48.91-.95,1.82-1.43,2.74.17-1.17.61-2.22,1.26-3.19Z"/>
      <path class="cls-3" d="M82.25,159.4c.09,0,.19.01.28.02.01.62-.27,1.15-.49,1.71-.08-.59-.01-1.17.21-1.73Z"/>
      <path class="cls-7" d="M82.83,165.42c-.14-.32-.09-.59.08-.63.38-.08.19.19.13.34-.04.09-.11.16-.21.29Z"/>
      <path class="cls-2" d="M89.51,56.9c-.22-.08-.43-.15-.77-.27,6.08-2.67,12.25-4.71,18.82-5.71-2.18,2.82-4.36,5.64-6.53,8.46-3.69-1.54-7.54-2.3-11.52-2.48Z"/>
      <path class="cls-5" d="M110.25,65.04c.86-2.01,1.15-4.24,2.28-6.41,1.37,3.85,1.93,7.62,2.47,11.4-1.59-1.66-2.99-3.49-4.76-4.99Z"/>
      <path class="cls-2" d="M108.65,94.11c.69-1.76,1.55-3.35,3.07-4.42,1.7-1.2,3.49-2.26,5.24-3.39.59-.38.91-.46.96.46.07,1.46.23,2.92.19,4.39-.04,1.55-.04,1.58-1.49,1.89-2.59.56-5.2.97-7.97,1.07Z"/>
      <path class="cls-2" d="M154.42,105.96c-1.71-1-3.26-2.03-4.73-3.19-.99-.78-1.94-1.62-2.94-2.39-.42-.32-.54-.6-.35-1.12.68-1.81,1.81-3.36,2.87-4.95.26-.39.45-.33.67.02,1.75,2.71,3.29,5.51,3.95,8.72.19.92.53,1.82.53,2.92Z"/>
    </g>
  </g>
</svg>