<?xml version="1.0" encoding="UTF-8"?>
<svg id="name_1" data-name="name_1" xmlns="http://www.w3.org/2000/svg" width="250" height="92"  viewBox="0 0 128.66 47.51">
  <defs>
    <style>
      .cls-1 {
        fill: #352c27;
      }

      .cls-2 {
        fill: #362d28;
      }

      .cls-3 {
        fill: #372e29;
      }

      .cls-4 {
        fill: #342b26;
      }

      .cls-5 {
        fill: #332a26;
      }
    </style>
  </defs>
  <g id="name_1-2" data-name="name_1">
    <g>
      <path class="cls-5" d="M27.89,34.08c-.65,0-.87-.13-.89-.82-.07-2.28-.1-2.28,2.2-2.29.31,0,.62,0,.92,0,.58,0,.79-.44.84-.86.06-.57-.43-.61-.85-.62-1.1,0-2.19-.03-3.29,0-.54.02-.69-.17-.71-.7-.09-2.35-.11-2.35,2.23-2.35,1.92,0,3.84,0,5.75,0,.96,0,1.74-.17,1.61-1.4-.05-.46.24-.48.58-.48.68,0,1.37.04,2.05,0,.8-.05,1.38-.04,1.27,1.07-.08.73.6.81,1.17.81,2.47,0,4.93.04,7.4-.02.78-.02.97.2.96.96-.04,2.09,0,2.09-2.07,2.09-.24,0-.48,0-.72,0-.24,0-.5,0-.6.29-.1.29.13.43.31.58.89.75,1.78,1.5,2.67,2.25.44.37.64.76-.09,1-2.5.83-3.12,2.6-2.83,5.07.21,1.76.05,3.56.03,5.34-.02,2.1-.56,2.8-2.62,3.09-1.42.2-2.86.18-4.3.26-.28.02-.58.01-.6-.37-.04-.68-.06-1.37-.07-2.05,0-.4.3-.38.59-.37.82.01,1.64.01,2.47.02.37,0,.71-.05.71-.53,0-.54-.42-.45-.73-.45-2.23,0-4.45,0-6.68,0-.9,0-1.32.45-1.35,1.31,0,.14,0,.27,0,.41q-.02,1.99-2.06,1.99-1.69,0-1.69-1.64c0-3.36.02-6.71-.02-10.07,0-.72.19-.92.91-.91,4.45.03,8.9.03,13.36,0,.46,0,1.29.27,1.3-.33,0-.75-.84-.72-1.46-.72-2.64,0-5.27,0-7.91,0M37.79,40.53c-1.27,0-2.53,0-3.8,0-.27,0-.59-.03-.57.39.01.35.29.33.52.33,2.46,0,4.93,0,7.39,0,.29,0,.62-.04.63-.37.02-.48-.41-.35-.68-.35-1.16-.01-2.33,0-3.49,0ZM39.6,30.85c.3-.02.77.16.83-.33.04-.37-.3-.64-.61-.75-1.3-.47-2.6-.45-3.88.08-.12.05-.24.14-.33.23-.16.17-.36.36-.23.62.1.2.32.22.53.22.61,0,1.23,0,1.84,0M37.54,38.19c1.26,0,2.53,0,3.79,0,.29,0,.63-.07.63-.38,0-.38-.38-.31-.64-.31-2.43,0-4.85,0-7.28,0-.26,0-.62-.04-.62.35,0,.4.37.33.62.33,1.16,0,2.32,0,3.48,0Z"/>
      <path class="cls-5" d="M21.95,27.8c-2.06,2.08-4.41,3.77-6.85,5.36-.11.07-.23.15-.35.21-.41.23-.78.51-.61,1.04.15.48.59.51,1.02.51,2.6,0,5.21.03,7.81-.02.75-.01,1.06,0,.99.95-.18,2.52.81,2.49-2.56,2.54-1.85.03-3.7-.02-5.55,0-1.75.03-1.94.25-1.94,1.98,0,1.1.01,2.19-.01,3.29-.04,1.95-.64,2.75-2.48,3.25-1.87.51-3.8.42-5.72.46-.5,0-.64-.26-.62-.72.02-.92,0-1.89.04-2.64.03-.62.04-.13,2.61-.17s2.22.17,2.26-2.23c0-.58.02-1.17,0-1.75-.04-1.04-.49-1.48-1.54-1.48-2.53-.01-5.07-.03-7.6.01-.72.01-.88.19-.8-1.12.16-2.7-.89-2.34,2.41-2.37,1.92-.02,3.84,0,5.75,0,1.37,0,1.78-.42,1.79-1.76,0-.21,0-.41,0-.62,0-1.99-.21-.96,1.21-1.42.21-.07.47-.08.69-.17.56-.22,1.21-.57,1.11-1.17-.1-.6-.84-.42-1.33-.42-2.71-.01-5.41-.02-8.12,0-.64,0-.89-.12-.89-.83,0-2.58-.04-2.58,2.52-2.58,4.01,0,8.02.15,12.02-.06,2-.11.9-.35,4.76,1.91Z"/>
      <path class="cls-4" d="M72.62,47.51c0-1.41.02-2.64-.01-3.87-.01-.53.35-.7.68-.93,2.11-1.5,3.44-3.49,3.87-6.06.3-1.75-.1-2.23-1.84-2.26-.81-.01-1.6-.06-2.24-.06-.79,0-.32-.14-.47-2.55-.06-.94-.14-1.27,1.29-1.18.68.04,1.37.03,2.05.01,1.06-.02,1.48-.44,1.5-1.5.05-1.83-.5-1.84,1.37-1.84.03,0,1.29.01,1.32.01,1.96,0,1.28,0,1.41,1.97.06.98.45,1.35,1.54,1.36,1.92.02,3.84.03,5.76,0,.68-.01.95.11.94.88-.04,3.39,0,6.78-.22,10.17-.05.83-.18,1.63-.43,2.42-.67,2.08-2.27,2.89-4.3,3.07-1.27.11-2.53-.04-3.77-.32-.49-.11-.69-.31-.67-.83.04-.82.04-1.65,0-2.47-.03-.62.19-.65.72-.5.92.26,1.88.36,2.85.27.92-.08,1.42-.56,1.5-1.5.16-1.81.26-3.62.18-5.44-.03-.7-.02-1.62-.81-1.84-.97-.26-2.07-.34-2.99.23-.49.31-.44.96-.52,1.5-.76,5.33-3.64,9.02-8.7,11.27Z"/>
      <path class="cls-4" d="M60.85,28.32c2.67,0,5.34.02,8.02-.01.66,0,.93.15.88.84-.06.89.25,1.94-.13,2.62-.37.67-1.55.4-2.36.64-2.6.79-4.82,2.14-6.4,4.38-1.88,2.67-.82,5.18,2.4,5.74,1.64.29,3.28.11,4.91-.06.64-.07.87.09.81.75-.05.65-.07,1.31,0,1.95.09.83-.18,1.16-1.03,1.17-2.33.05-4.65.17-6.95-.38-5.17-1.22-7.08-6.26-4-10.6.56-.79,1.2-1.49,1.92-2.14.27-.24.5-.53.39-.89-.12-.42-.53-.35-.87-.35-1.88,0-3.77-.02-5.65.01-.61.01-.87-.13-.82-.79.07-.91.09-1.95.18-2.68.04-.32,1.73-.18,2.64-.2,2.02-.03,4.04-.01,6.06-.01Z"/>
      <path class="cls-1" d="M107.21,28.26c.36.02.73.01,1.09-.04,1.65-.23,1.94-.09,1.93.89-.03,2.74.07,5.49-1,8.1-2.03,4.95-6.08,7.18-10.95,8.72-.82.26-3.05,1.03-3.04.35s.13-1.65.05-2.57c-.08-.86-.29-1,.48-1.11,1.74-.24,4.07-.87,5.6-1.78,2.81-1.67,4.19-4.25,4.53-7.48.08-.72-.49-1.36-1.22-1.36-3.35,0-6.69-.04-10.04.02-1.06.02-.86-.39-.88-1.72,0-.19-.02-.38-.02-.57.01-1.39.06-1.61,1.05-1.59,4.14.1,8.29-.09,12.43.13Z"/>
      <path class="cls-2" d="M16.02,16.63c0-1.35,0-2.4,0-3.44,0-.35.26-.55.46-.77.86-.97,1.74-1.94,2.6-2.91.32-.36.65-.71.78-1.19.55-2.03,0-2.5-1.62-2.4-.41.02-1.15-.02-1.56.04-.84.12-.73-.26-.7-1.04.04-.94-.32-1.1,1.06-1.1,2.87.01,3.01.02,2.99-2.87,0-.74.21-.91.92-.89,1.55.04,1.55,0,1.55,1.58,0,1.16,0,2.33,0,3.49,0,.32-.13.73.25.93.42.21.7-.13.99-.36,1.7-1.35,3.6-2.08,5.8-1.88,2.15.2,3.66,1.26,4.36,3.33.69,2.02.86,4.09.21,6.15-1.25,3.92-5.03,5.25-8.18,5.42-.36.02-.45-.11-.49-.46-.15-1.29-.01-1.47,1.3-1.73,4.66-.91,6.16-4.43,4.83-8.42-.59-1.77-2.09-2.54-3.91-2.11-2.03.49-3.49,1.83-4.77,3.38-.38.46-.41,1.07-.41,1.66.01,2.43-.02,4.86.02,7.29.01.71.17.9-.58.89-.24,0-1.16,0-1.4,0-.64-.02-.54-.13-.51-.82.05-1.44.04-2.88,0-4.31-.01-.56.3-1.41-.2-1.61-.56-.22-.83.65-1.2,1.06-.83.93-1.61,1.9-2.62,3.09Z"/>
      <path class="cls-1" d="M61.57,16.61c0-1.35,0-2.4,0-3.44,0-.35.25-.55.45-.77.93-1.05,1.83-2.14,2.82-3.13.63-.63.77-1.31.72-2.13-.05-.79-.47-1.19-1.23-1.22-.72-.03-1.44-.05-2.16,0-.76.05-.66-.48-.58-.87.09-.43-.47-1.21.55-1.22.79,0,1.57,0,2.36,0,.69,0,1.1-.31,1.05-1.07-.02-.34,0-.68,0-1.03,0-1.75,0-1.71,1.75-1.69.62,0,.73.24.71.78-.03,1.3-.01,2.6,0,3.9,0,.47-.1,1.02.44,1.27.47.22.73-.26,1.04-.49,1.9-1.42,4-2.08,6.37-1.59,2.29.47,3.64,2.13,4.03,4.85.82,5.66-2.33,9.53-8.06,9.89-.39.02-.95.18-.78-.51.14-.54-.63-1.46.62-1.58,1.64-.16,3.15-.69,4.33-1.88,1.79-1.8,2.11-5.31.71-7.44-.75-1.14-2.04-1.61-3.52-1.28-3.11.7-5.19,3.3-5.19,6.46,0,1.99-.03,3.97.02,5.96.02.68-.2.93-.86.84-.27-.04-.55-.04-.82,0-.65.09-.81-.19-.8-.81.04-1.75.02-3.49,0-5.24,0-.25.15-.6-.21-.71-.32-.1-.48.2-.65.4-.98,1.16-1.95,2.33-3.11,3.73Z"/>
      <path class="cls-1" d="M38.74,16.61c0-1.33.01-2.35,0-3.36,0-.39.24-.62.47-.87.96-1.07,1.89-2.17,2.89-3.2.68-.71.68-1.53.61-2.39-.04-.44-.34-.61-.74-.73-.71-.21-1.43-.16-2.14-.11-.81.06-1.1-.12-1.11-1.03-.01-.96.3-1.18,1.16-1.08.57.06,1.16,0,1.74.01.73.01,1.07-.38,1.1-1.06.02-.41-.01-.82.02-1.23.03-.47-.23-1.14.13-1.35.58-.34,1.33-.12,2.01-.11.43,0,.29.39.29.63.01,1.47,0,2.94.01,4.42,0,.39-.16.91.27,1.12.41.2.64-.3.92-.52,1.29-1.01,2.69-1.76,4.35-1.92,3.63-.34,5.83,1.4,6.34,5,.8,5.65-2.4,9.54-8.11,9.85-.36.02-.88.17-.73-.46.13-.55-.6-1.47.57-1.62,1.28-.16,2.49-.49,3.55-1.22,2.47-1.69,3.19-5.67,1.51-8.16-.76-1.13-2.06-1.6-3.53-1.22-1.91.49-3.35,1.68-4.52,3.21-.48.63-.64,1.42-.63,2.23.02,2.29-.02,4.59.02,6.88.01.69-.13,1.04-.89.92-.2-.03-.41-.03-.61,0-.75.12-1.02-.13-.99-.94.07-1.67.03-3.35.01-5.03,0-.29.17-.7-.17-.84-.41-.16-.55.31-.76.55-.96,1.12-1.89,2.25-3.04,3.63Z"/>
      <path class="cls-3" d="M120.95,46.32c-2.22,0-4.45-.02-6.67.01-.6,0-.83-.12-.84-.78-.04-2.46-.06-2.46,2.44-2.46q3.32,0,3.32-3.33c0-1.16.01-2.33,0-3.49-.02-1.27-.39-1.62-1.68-1.64-.99-.01-1.99-.02-2.98,0-.46.01-.65-.11-.68-.62-.17-2.6-.19-2.6,2.4-2.6,3.66,0,7.32.02,10.99-.02.73,0,.92.21.91.92-.01,2.31.01,2.31-2.28,2.31q-2.92,0-2.92,2.94c0,1.33-.02,2.67,0,4,.03,1.17.4,1.51,1.55,1.51,1.13,0,2.26.02,3.39,0,.5-.01.71.11.73.67.11,2.57.13,2.57-2.43,2.57-1.75,0-3.49,0-5.24,0Z"/>
      <path class="cls-3" d="M94.75,10.31c0,2.26,0,4.52-.01,6.78,0,.3.21.84-.25.86-.64.03-1.6.41-1.89-.21-.43-.92-.82-.55-1.32-.27-1.67.93-3.39,1.03-5.13.28-2.44-1.07-3.6-4.49-2.5-7.24,1.08-2.72,4.16-4.11,6.95-3.14,1.42.49,1.52.42,1.5-1.04-.02-1.06.01-2.12-.01-3.18-.01-.44.13-.57.58-.61,2.1-.16,2.1-.18,2.1,1.93,0,1.95,0,3.9,0,5.85ZM92.04,12.77c.01-.65-.08-1.43-.27-2.2-.18-.7-.55-1.23-1.27-1.48-1.72-.59-3.48.19-4.15,1.85-.79,1.95-.1,4.49,1.43,5.16.31.14.65.22.99.25,2.21.23,3.34-.98,3.27-3.58Z"/>
      <path class="cls-3" d="M104.3,13.25c-.86,0-1.71-.02-2.57,0-.83.02-1.06.44-.74,1.22.53,1.28,2.11,2.11,3.85,2,.79-.05,1.56-.2,2.28-.55.92-.46.9.48,1.18.85.44.57-.25.58-.5.69-2.42,1.02-4.87,1.15-7.21-.17-2.17-1.23-3.09-3.77-2.38-6.22.7-2.42,3.12-4.09,5.81-4.01,2.63.08,4.3,1.31,4.87,3.58.35,1.4-.45,2.52-1.92,2.6-.89.05-1.78,0-2.67,0h0ZM103.8,11.66s0,.01,0,.02c.58,0,1.16.01,1.74,0,1.06-.02,1.36-.55.88-1.53-.46-.93-1.5-1.44-2.76-1.35-1.2.09-2.45.92-2.73,1.86-.17.56-.01.97.63.99.75.03,1.5,0,2.25,0Z"/>
    </g>
  </g>
</svg>