<?xml version="1.0" encoding="UTF-8"?>
<svg id="_レイヤー_2" data-name="レイヤー_2" xmlns="http://www.w3.org/2000/svg" viewBox="0 0 349.66 325.28">
  <defs>
    <style>
      .cls-1 {
        fill: #302722;
      }

      .cls-2 {
        fill: #fefefe;
      }

      .cls-3 {
        fill: #78a632;
      }
    </style>
  </defs>
  <g id="_レイヤー_1-2" data-name="レイヤー_1">
    <g>
      <path class="cls-1" d="M349.66,167.67c-.54.88-.68,1.88-.82,2.88-.14,1.01-.55,1.89-1.24,2.63-.5.55-1.09.88-1.88.87-1.11,0-1.31.27-1.05,1.43-1.73.04-3.03,1.22-4.62,1.71-.98.31-1.79,1.2-2.66,1.86-1.04.79-1.25.78-2.05-.27-.26-.34-.52-.55-.93-.41-1.56.55-3.29.37-4.81,1.15-.56.29-1.24.3-1.9.29-1.74-.02-3.48-.09-5.23.29.05,3.97-.95,7.83-1.41,11.75-1.36,11.75-3.87,23.22-8.6,34.12-6.13,14.13-14.33,27.01-23.8,39.11-16.98,21.71-38.73,37.08-63.87,47.81-11.11,4.74-22.81,7.68-34.71,9.76-8.18,1.43-16.41,2.29-24.71,2.57-5.7.19-11.37-.21-17.03-.77-11.89-1.18-23.53-3.59-34.98-6.99-15.9-4.72-30.23-12.53-43.84-21.82-26.1-17.8-44.37-41.96-57.02-70.58-4.23-9.56-6.86-19.69-8.94-29.94C1.32,184.13-.19,173.02.02,161.79c.39-21.5,4.39-42.38,12.75-62.2,8.11-19.24,19.73-36.32,34.25-51.33,8.37-8.65,17.94-15.9,28.06-22.38,9.65-6.18,19.67-11.65,30.49-15.52,13.34-4.76,27.06-7.78,41.12-9.45,18.55-2.2,36.77-.22,54.83,4.02,26.57,6.24,49.8,18.87,70.13,36.93,10.79,9.58,19.59,20.85,27.38,32.93,6.96,10.79,13.05,22.01,17.17,34.23,2.54,7.52,4.15,15.24,5.46,23.04.54,3.21,1.13,6.4,1.72,9.6.2,1.06.28,2.12-.16,3.13-.33.75.35,1.48-.06,2.2.57.38,1.09.02,1.58-.09,1.74-.41,3.48-.07,5.2.07,2.38.19,4.71.68,6.98,1.52,3.31,1.22,5.9,3.34,7.93,6.14,2.12,2.92,3.19,6.36,4.47,9.69.14.37-.12.83.31,1.1v2.26ZM288.29,178.75c-.66,4.35-1.18,8.56-1.97,12.72-2.03,10.71-5.06,21.09-10.2,30.75-8.89,16.71-20.97,30.71-36.11,42.06-9.29,6.97-19.22,12.89-30.05,17.14-10.23,4.01-20.87,6.56-31.77,7.97-5.85.76-11.72,1.29-17.62,1.12-5.07-.15-10.11-.61-15.14-1.33-10.74-1.54-21.31-3.93-31.27-8.23-23.01-9.91-42.13-24.68-56.54-45.46-14.58-21.03-21.76-44.34-22.93-69.71-.29-6.22.24-12.39,1.03-18.54,1.45-11.39,3.93-22.56,8.46-33.11,9.45-22,23.26-40.7,42.95-54.73,8.67-6.18,17.76-11.64,27.66-15.58,10.67-4.24,21.78-6.86,33.16-8.29,5.44-.68,10.91-1.16,16.4-1,9.33.27,18.54,1.55,27.65,3.61,21.83,4.96,40.94,15.15,57.35,30.26,13.48,12.41,23.41,27.46,31.05,44.04,3.98,8.64,6.13,17.83,7.58,27.19.28,1.81.65,3.6.96,5.29,1.39.39,2.66.32,3.93.35.58.01,1.19.07,1.64.46.38.32.78.35,1.24.37,3.63.16,7.25.21,10.88.19,1.16,0,2.33,0,3.49.05,3.19.14,6.38.32,9.63.48-.13-.81,0-1.94-.44-2.26-.76-.54-.79-1.19-.92-1.87-.76-4.07-1.55-8.14-2.21-12.22-1.56-9.67-4.11-19.06-7.97-28.06-5-11.66-11.53-22.45-18.87-32.78-18.96-26.68-44.25-44.85-74.96-55.66-11.56-4.07-23.54-6.5-35.72-7.88-5.96-.67-11.94-1.17-17.94-1-10.88.3-21.64,1.65-32.26,4.03-10.47,2.34-20.77,5.27-30.48,9.91-25.77,12.33-47.73,29.27-63.97,53.11-7.62,11.18-14.39,22.8-18.95,35.61-4.19,11.78-7.02,23.88-8.6,36.28-.85,6.7-1.47,13.42-1.32,20.18.19,8.81,1.23,17.54,2.75,26.23,3.77,21.55,11.67,41.41,24.01,59.51,6.21,9.11,12.92,17.81,20.87,25.47,7.12,6.86,14.91,12.92,23.18,18.34,9.87,6.47,20.13,12.2,31.28,16.21,12.35,4.44,25.06,7.37,38.08,8.97,5.99.73,12,1.25,18.04,1.15,11.51-.18,22.86-1.7,34.09-4.16,28.98-6.35,54-20.1,75.24-40.68,11.16-10.82,20.07-23.44,27.81-36.89,5.92-10.29,10.55-21.11,13.08-32.75,1.8-8.3,2.54-16.77,3.99-25.29-9.88.98-19.51-.92-29.29-1.59ZM332.29,150.58c.07.59-.04.86-.73.75-1.34-.23-2.69-.48-4.04-.49-9.41-.04-18.82-.21-28.23-.66-2.32-.11-4.64-.22-6.95-.46-.78-.08-1.66.07-2.38-.47-1.12-.84-2.46-1.07-3.79-1.23-.6-.07-.82-.28-.92-.84-.37-2.12-.78-4.24-1.16-6.36-1-5.59-1.86-11.21-3.63-16.63-6.21-19.09-17.03-35.35-30.68-49.86-28.47-27.03-62.23-38.73-101.31-34.77-10.87,1.1-21.5,3.59-31.59,7.78-20.47,8.5-38.07,20.98-51.67,38.71-7.05,9.2-13.08,19.01-17.45,29.76-3.8,9.35-6.21,19.11-7.7,29.09-.99,6.61-1.65,13.26-1.42,19.96.27,8.02,1.45,15.93,2.96,23.82,5.59,29.21,25.44,56.65,44.22,71.1,22.46,17.28,47.75,25.99,75.91,26.71,7.83.2,15.58-.81,23.27-2.24,8.7-1.61,17.27-3.79,25.37-7.34,18.39-8.05,34.27-19.55,47.43-34.84,14.54-16.89,22.95-36.36,25.69-58.39.34-2.71.79-5.41,1.2-8.17.4.13.72.25,1.05.33,2.58.64,5.22.97,7.82.56,1.61-.25,3.18-.31,4.78-.31.85,0,1.7.15,2.56.17,5.89.09,11.78.25,17.67.22,4.91-.02,9.85.56,14.74-.22,3.85-.62,7.37-1.99,10.02-5.09,2.39-2.8,2.98-5.99,2.4-9.5-.17-1.04-1.29-1.9-.61-3.11,0-.02-.02-.06-.04-.09-.59-.94-1.06-1.99-1.79-2.8-2.92-3.23-6.46-5.22-11-5.12Z"/>
      <path class="cls-2" d="M288.29,178.75c9.78.66,19.42,2.56,29.29,1.59-1.45,8.52-2.19,16.99-3.99,25.29-2.53,11.65-7.16,22.46-13.08,32.75-7.74,13.45-16.65,26.07-27.81,36.89-21.24,20.58-46.25,34.33-75.24,40.68-11.24,2.46-22.59,3.99-34.09,4.16-6.04.09-12.05-.42-18.04-1.15-13.02-1.59-25.73-4.52-38.08-8.97-11.15-4.01-21.41-9.74-31.28-16.21-8.27-5.42-16.06-11.48-23.18-18.34-7.95-7.66-14.66-16.36-20.87-25.47-12.34-18.09-20.24-37.95-24.01-59.51-1.52-8.69-2.55-17.42-2.75-26.23-.15-6.76.47-13.48,1.32-20.18,1.57-12.4,4.41-24.51,8.6-36.28,4.55-12.8,11.33-24.42,18.95-35.61,16.24-23.84,38.2-40.78,63.97-53.11,9.71-4.65,20.01-7.57,30.48-9.91,10.62-2.38,21.38-3.73,32.26-4.03,6-.17,11.98.32,17.94,1,12.18,1.38,24.15,3.81,35.72,7.88,30.71,10.8,56.01,28.98,74.96,55.66,7.33,10.32,13.86,21.12,18.87,32.78,3.87,9,6.42,18.39,7.97,28.06.66,4.09,1.45,8.15,2.21,12.22.13.68.15,1.34.92,1.87.44.31.31,1.45.44,2.26-3.25-.16-6.44-.34-9.63-.48-1.16-.05-2.33-.05-3.49-.05-3.63.01-7.26-.04-10.88-.19-.45-.02-.86-.05-1.24-.37-.46-.39-1.06-.45-1.64-.46-1.26-.03-2.53.04-3.93-.35-.31-1.69-.68-3.48-.96-5.29-1.45-9.36-3.6-18.55-7.58-27.19-7.64-16.58-17.57-31.63-31.05-44.04-16.41-15.11-35.52-25.3-57.35-30.26-9.11-2.07-18.31-3.34-27.65-3.61-5.49-.16-10.96.32-16.4,1-11.38,1.43-22.49,4.05-33.16,8.29-9.91,3.94-18.99,9.4-27.66,15.58-19.68,14.04-33.5,32.73-42.95,54.73-4.53,10.54-7.01,21.72-8.46,33.11-.78,6.16-1.31,12.33-1.03,18.54,1.17,25.36,8.35,48.68,22.93,69.71,14.41,20.78,33.53,35.55,56.54,45.46,9.96,4.29,20.53,6.68,31.27,8.23,5.02.72,10.07,1.19,15.14,1.33,5.9.17,11.77-.36,17.62-1.12,10.9-1.41,21.54-3.95,31.77-7.97,10.83-4.25,20.76-10.17,30.05-17.14,15.14-11.35,27.22-25.35,36.11-42.06,5.14-9.66,8.17-20.05,10.2-30.75.79-4.17,1.31-8.38,1.97-12.72Z"/>
      <path class="cls-2" d="M332.29,150.58c4.54-.11,8.08,1.88,11,5.12.73.81,1.2,1.86,1.79,2.8.02.03.05.07.04.09-.68,1.21.44,2.07.61,3.11.58,3.52,0,6.71-2.4,9.5-2.65,3.1-6.17,4.47-10.02,5.09-4.89.78-9.82.2-14.74.22-5.89.03-11.78-.13-17.67-.22-.85-.01-1.7-.17-2.56-.17-1.6,0-3.17.05-4.78.31-2.6.41-5.25.09-7.82-.56-.33-.08-.64-.2-1.05-.33-.41,2.76-.86,5.45-1.2,8.17-2.73,22.03-11.14,41.5-25.69,58.39-13.17,15.29-29.04,26.79-47.43,34.84-8.1,3.55-16.67,5.73-25.37,7.34-7.69,1.42-15.45,2.44-23.27,2.24-28.16-.72-53.45-9.44-75.91-26.71-18.78-14.45-38.63-41.89-44.22-71.1-1.51-7.89-2.68-15.79-2.96-23.82-.23-6.7.43-13.35,1.42-19.96,1.49-9.98,3.9-19.74,7.7-29.09,4.37-10.75,10.4-20.56,17.45-29.76,13.6-17.74,31.2-30.21,51.67-38.71,10.08-4.19,20.72-6.68,31.59-7.78,39.08-3.96,72.84,7.74,101.31,34.77,13.65,14.52,24.46,30.77,30.68,49.86,1.76,5.42,2.63,11.04,3.63,16.63.38,2.12.79,4.24,1.16,6.36.1.56.32.76.92.84,1.33.17,2.67.39,3.79,1.23.72.54,1.59.38,2.38.47,2.31.24,4.63.35,6.95.46,9.4.44,18.81.61,28.23.66,1.35,0,2.7.26,4.04.49.68.12.8-.16.73-.75ZM162.65,272.69c5.77-.16,11.6-.64,17.39-1.61,8.39-1.41,16.65-3.4,24.46-6.76,17.41-7.47,32.25-18.42,44.28-33.16,10.42-12.76,17.23-27.12,20.12-43.35,1.01-5.7,1.77-11.43,2.6-17.15.37-2.54,1.18-5.08.32-7.7-.18-.55.02-1.22,0-1.84-.03-1.47-.07-2.93-.19-4.4-.17-2-.55-4.02-.27-6.02.22-1.58-.13-3.05-.38-4.56-.16-.91-.32-1.82-.48-2.73-.98-5.59-1.91-11.2-3.8-16.58-5.66-16.13-14.66-30.26-26.6-42.35-13.91-14.07-30.65-23.5-49.91-28.3-9.4-2.35-18.93-3.8-28.64-3.65-12.62.2-24.88,2.58-36.79,6.72-8.73,3.03-16.67,7.57-24.31,12.68-18.08,12.09-30.78,28.62-39.43,48.36-3.85,8.78-5.99,18.1-7.33,27.58-.78,5.46-1.28,10.95-1.12,16.48.18,6.35.9,12.63,2.12,18.86,1.85,9.43,4.48,18.61,8.88,27.21,7.64,14.9,17.39,28.1,30.82,38.34,8.94,6.82,18.43,12.69,29.02,16.6,12.63,4.67,25.71,7,39.25,7.31Z"/>
      <path class="cls-1" d="M162.65,272.69c-13.54-.3-26.62-2.64-39.25-7.31-10.59-3.91-20.08-9.78-29.02-16.6-13.43-10.25-23.19-23.45-30.82-38.34-4.4-8.59-7.03-17.78-8.88-27.21-1.22-6.23-1.94-12.51-2.12-18.86-.16-5.53.35-11.02,1.12-16.48,1.35-9.48,3.49-18.8,7.33-27.58,8.65-19.74,21.35-36.27,39.43-48.36,7.64-5.11,15.58-9.66,24.31-12.68,11.92-4.14,24.17-6.52,36.79-6.72,9.71-.16,19.24,1.3,28.64,3.65,19.26,4.81,36,14.23,49.91,28.3,11.95,12.09,20.95,26.22,26.6,42.35,1.89,5.38,2.82,10.98,3.8,16.58.16.91.33,1.82.48,2.73.26,1.51.6,2.98.38,4.56-.28,2,.11,4.02.27,6.02.12,1.47.16,2.93.19,4.4.01.62-.19,1.29,0,1.84.86,2.62.05,5.16-.32,7.7-.83,5.72-1.58,11.45-2.6,17.15-2.89,16.23-9.7,30.58-20.12,43.35-12.03,14.74-26.87,25.68-44.28,33.16-7.82,3.36-16.07,5.35-24.46,6.76-5.79.97-11.62,1.45-17.39,1.61ZM139.98,235.54c-.27.26-.72.18-.95.52-4.53,1.85-7.63,5.55-11.15,8.69-.25.22-.42.56-.03.85.34.03.49-.23.71-.38,1.25-.88,1.92-2.29,3-3.33.42-.4.81-.66,1.42-.63.51.02,1.17-.02,1.38-.57.27-.74.79-1.24,1.29-1.79,1.02-1.1,2.42-1.72,3.5-2.75.42-.03.72-.22.86-.63l-.03-.03v.05ZM182.52,129.83c-.24-.11-.33.07-.43.22-.24-.06-.37.11-.52.24-2.55,2.23-4.86,4.72-7.05,7.29-2.02,2.37-3.73,4.97-4.93,7.91.15.09.26.17.38.21,2.32.92,4.67,1.37,7.2,1.04,3.55-.46,7.11-.77,10.56-1.89,1.28-.41,2.01-.98,2.27-2.33.16-.85.7-1.63.97-2.47.47-1.51.84-3.04,1.13-4.61.24-1.3-.12-2.74.62-3.89,1.49-2.34,3.2-4.51,5.97-5.48.86-.3,1.72-.63,2.58-.94.91-.28,1.81-.62,2.74-.83,5.55-1.25,11.03-.71,16.23,1.37,7.44,2.98,13.99,7.33,18.66,14.07,1.49,2.16,3.07,4.29,3.49,6.99.08.48-.13.87-.37,1.24-2.86,4.33-4.1,9.35-6.01,14.08-.56,1.4-.29,1.85,1.12,2.45,1.16.49,2.3,1.08,3.5,1.44,1.74.52,2.7,1.6,2.94,3.37-.31,4.41-.57,8.82-1.85,13.09-.32,1.07-.15,2.12-.22,3.45.9-1.06,1.16-2.18,1.81-3.07-.04.38-.14.74-.26,1.08-3.96,10.83-11.04,19.22-20.69,25.27-11.48,7.18-24.39,10.26-37.67,11.97-3.01.39-6.09.14-9.07.97-5.73,1.61-11.47,3.17-17.19,4.79-2.83.8-5.46,2.1-8.06,3.45.25,0,.47-.06.69-.15,4.09-1.68,8.36-2.53,12.76-2.89,3.51-.29,7.06-.18,10.54-.84,2.63-.5,5.3-.76,7.97-.65,2.21.09,4.38-.18,6.51-.69,7.68-1.84,15.26-4.06,22.59-7.01,8.64-3.46,15.91-8.93,22.22-15.69,4.32-4.63,7.99-9.7,10.48-15.6,2.13-5.05,2.87-10.37,3.63-15.72.31-.44.37-.96.45-1.46.11-.62.4-.85.97-.68.95.28,2.06.16,2.76,1.36.1-.72.97-.6.84-1.32-.28-1.61-.43-3.25-.84-4.82-.83-3.21-1.95-6.35-2.67-9.57-.82-3.68-2.26-6.97-4.84-9.75-.11-.25-.19-.51-.32-.74-1.47-2.58-3.04-5.12-4.41-7.76-.92-1.77-2.26-3.25-3.69-4.43-2.38-1.97-4.98-3.73-7.78-5.12-.46-.23-.92-.49-1.61-.36.92.79,2.09,1.03,2.88,1.98-2.48-.34-4.61-1.17-6.42-2.97,1.27-.09,2.19.87,3.34.64-.8-.44-1.63-.79-2.45-1.15-3.82-1.67-7.89-2.09-11.99-2.35-4.72-.31-9.39-.01-14.04.87-.58.11-.99.58-1.61.58-.86,0-1.74-.08-2.58.3-.32.14-.83.14-1.15,0-1.57-.73-2.3-2.1-2-3.86.12-.7.03-1.27-.3-1.85-.55-2.67-1.04-5.36-2.07-7.91-2.75-6.81-5.65-13.57-8.24-20.45-1.99-5.29-5.09-9.8-8.81-13.96-.25-.28-.53-.69-.92-.5-.92.45-1.27,1.37-1.65,2.26-.3.71.38.76.66,1.08.41.48.84.94-.17,1.25-.46.14-.66.57-.87.97-.64,1.25-1.26,2.5-1.77,3.81-.53,1.37-.88,2.89-1.72,4.04-1.23,1.67-2.02,3.46-2.53,5.42-.16.64-.52.93-1.14.95-1.82-.5-3.64-1-5.46-1.49-.68-.18-1.29-.61-2.02-.59-.2-.17-.39-.35-.59-.52.17-.2.43-.27.47-.54.19-1.29.94-2.33,1.54-3.44,2.15-3.95,5.39-7.15,7.72-10.98.95-1.56,2.09-3.01,3.18-4.57-1-.33-1.93-.5-2.82-.28-3.07.76-6.21.87-9.33,1.16-4.51.41-8.84,1.53-12.95,3.42-6.24,2.87-12.09,6.39-17.53,10.58-1.73,1.33-3.45,2.68-4.73,4.5-.28.17-.42.59-.83.54-1.45-.19-2.57.61-3.69,1.31-2.65,1.68-4.99,3.78-7.09,6.07-6.13,6.69-11.51,13.92-15.25,22.26-.85,1.9-1.92,3.74-2.29,5.81-.56,3.1-.81,6.24-1.02,9.38-.39,5.67-.55,11.34-.3,17.04.31,6.89,2.26,13.35,5.12,19.49,2.94,6.3,6.97,11.99,11,17.66,3.08,4.33,7.21,7.68,10.7,11.63,2.44,2.77,4.83,5.54,6.19,9.07.67,1.73,1.63,3.35,2.47,5.01.1.2.16.52.49.52-.5-4.91-2.74-9.12-5.23-13.23-.78-1.29-1.67-2.49-2.78-3.53-2.96-2.78-5.51-5.9-7.56-9.42-.12-.21-.23-.46-.42-.57-1.07-.65-1.49-1.75-1.96-2.81-1.37-3.1-2.64-6.25-4.16-9.28-1.29-2.57-2.6-5.12-3.59-7.82-4.83-13.25-6.96-26.68-2.76-40.55,3.21-10.63,8.99-19.72,16.6-27.71,1.14-1.2,2.45-2.27,4.05-2.73,2.91-.84,5.57-2.27,8.42-3.25,4.92-1.7,9.8-3.5,15.01-4.13.77-.09,1.36-.02,1.97.52.42.37,1.04.54,1.64.34.54-.17.04-.66.24-1,.38,0,.75-.02,1.13,0,.86.05,1.57.67,2.46.64.23.4.84.3,1.06.87-1.43,2.04-2.9,4.13-4.36,6.22-.23.33-.79.63-.42,1.13.32.43.89.56,1.38.55.56,0,.83-.54,1.12-.95,1.26-1.78,2.53-3.55,3.76-5.35.43-.63.8-1.1,1.63-.56.35.23.71-.04,1.01-.26.88-.06,1.67.22,2.48.51,1.91.67,3.56,1.9,5.49,2.52.01.2.1.44.03.6-.82,1.89-.88,3.98-1.55,5.91-.24.68-.35,1.24.54,1.53.85.28,1.35.07,1.6-.81.42-1.47.92-2.93,1.3-4.41.3-1.14.79-2.05,2.01-2.39.4-.22.72-.01,1.05.17,1.02.56,2.06,1.09,3.06,1.68,4.45,2.65,8.1,6.28,11.95,9.67,2.85,2.51,4.24,5.8,5.23,9.29.46,1.64.88,3.29,1.42,4.91.17.49.28.99.29,1.5.01.69-1.2,1.74-1.86,1.64-.83-.12-2.46.92-2.84,1.8l.02-.02ZM202.58,229.63c-.61-.34-1.02-.33-1.51-.11-.78.35-1.59.63-2.4.9-3.56,1.2-7.22,2.04-10.89,2.86-2.65.59-5.21,1.65-8,1.55-.92-.03-1.85.09-2.76.21-2.44.31-4.81,1.1-7.22,1.45-5.65.82-11.1,2.34-16.44,4.24-3.84,1.37-7.43,3.2-10.14,6.47-1.29,1.56-2.08,3.26-2.72,5.29.27-.14.37-.17.45-.23,6.83-5.4,14.58-9.11,22.65-12.16,3.44-1.3,7.2-1.57,10.81-2.31,2.44-.5,4.98-.37,7.42-.96,5.18-1.24,10.29-2.78,15.35-4.43,1.87-.61,3.62-1.55,5.41-2.78ZM97.99,204.73c.47,1.2,1.13,2.16,1.86,3.05,3.39,4.19,6.13,8.89,9.83,12.84,1.43,1.52,2.09,3.5,3.23,5.2,1.58,2.35,3.73,4.33,3.91,7.52.08,1.51.31,3.04.35,4.57.01.37-.2.82.25,1.11.56-.09.56-.58.67-.94,1.29-4.14.78-8.21-.83-12.1-2.43-5.89-6.83-10.35-11.27-14.72-2.24-2.2-5.15-3.63-7.2-6.07-.17-.2-.34-.44-.8-.46ZM176.41,246.15c-.31-.45-.68-.48-1-.49-4.98-.22-9.91-.02-14.65,1.84-1.61.63-2.94,1.73-4.55,2.36-2.58,1-5.15,2.05-7.45,3.65-.43.3-1.05.62-1.07,1.04-.04.77-.61.99-1,1.4-.44.47-.96.87-1.42,1.34-.38.39-.68.83-.48,1.56,1.01-.47,1.92-.98,2.73-1.65,1.31-1.09,2.7-2.09,4.21-2.87,5.42-2.82,11.16-4.85,17.1-6.22,1.81-.42,3.51-1.22,5.36-1.45.72-.09,1.48-.09,2.21-.52ZM154.08,129.86c-2.12-1.96-4.58-2.77-7.3-3.33.19,1.29.5,2.4,1.08,3.41.37.64.45,1.26.15,1.95-.48,1.12-.4,1.23.88,1.42.27-1.57,1.78-2.6,5.18-3.46ZM213.51,149.75c-.59-.12-.96-.24-1.3-.49-.82-.59-1.77-.91-2.76-1.04-.73-.1-1.67-.4-2.1.33-.43.74.42,1.27.85,1.79.53.64,1,1.22.89,2.16-.07.58.04,1.3.67,1.73.08-.1.21-.18.21-.25-.15-2.36,1.44-3.32,3.26-4.11.03-.01.06-.03.29-.12ZM141.51,234.7c.9.21,1.35-.53,1.95-1-.65.33-1.3.67-1.95,1Z"/>
      <path class="cls-2" d="M147.1,94.07c-.88.03-1.6-.6-2.46-.64-.37-.02-.75,0-1.13,0-.2.33.29.82-.24,1-.6.19-1.22.03-1.64-.34-.61-.54-1.21-.61-1.97-.52-5.21.63-10.09,2.44-15.01,4.13-2.85.98-5.51,2.41-8.42,3.25-1.6.46-2.91,1.54-4.05,2.73-7.61,7.99-13.39,17.07-16.6,27.71-4.19,13.87-2.07,27.31,2.76,40.55.98,2.7,2.3,5.25,3.59,7.82,1.52,3.03,2.79,6.18,4.16,9.28.47,1.07.89,2.16,1.96,2.81.19.11.3.37.42.57,2.05,3.52,4.6,6.64,7.56,9.42,1.11,1.05,2,2.24,2.78,3.53,2.49,4.11,4.73,8.32,5.23,13.23-.33,0-.38-.31-.49-.52-.85-1.66-1.81-3.28-2.47-5.01-1.36-3.53-3.74-6.3-6.19-9.07-3.49-3.95-7.62-7.29-10.7-11.63-4.03-5.67-8.07-11.36-11-17.66-2.86-6.14-4.81-12.6-5.12-19.49-.25-5.69-.09-11.37.3-17.04.21-3.14.46-6.28,1.02-9.38.37-2.07,1.44-3.91,2.29-5.81,3.74-8.34,9.12-15.57,15.25-22.26,2.1-2.29,4.43-4.39,7.09-6.07,1.11-.71,2.23-1.5,3.69-1.31.41.05.54-.37.83-.54.27-.02.53-.04.8-.07,1.77-.22,3.52-.63,5.32-.72.16,1.14-.9.94-1.47,1.29.58.74,2.72.82,2.93.07.39-1.38,1.49-1.7,2.59-2.02,5.4-1.58,10.87-1.97,16.41-.77.67.15,1.26.14,1.82-.26.41.12.88-.05,1.26.33-.43,1.12-1.05,2.18-1.1,3.42Z"/>
      <path class="cls-2" d="M247.74,171.06c-.76,5.34-1.5,10.67-3.63,15.72-2.49,5.9-6.16,10.97-10.48,15.6-6.31,6.76-13.58,12.23-22.22,15.69-7.34,2.94-14.91,5.17-22.59,7.01-2.13.51-4.3.78-6.51.69-2.68-.11-5.34.15-7.97.65-3.48.66-7.03.56-10.54.84-4.4.36-8.67,1.21-12.76,2.89-.21.09-.44.14-.69.15,2.6-1.35,5.23-2.64,8.06-3.45,5.72-1.63,11.46-3.19,17.19-4.79,2.97-.83,6.05-.58,9.07-.97,13.28-1.71,26.2-4.79,37.67-11.97,9.65-6.04,16.74-14.44,20.69-25.27.13-.34.22-.7.26-1.08-.65.89-.92,2.01-1.81,3.07.07-1.33-.1-2.38.22-3.45,1.28-4.27,1.54-8.68,1.85-13.09,1.61.07,3.05.55,4.19,1.75ZM210.29,216.35c1.69-.51,3.28-1.25,4.79-2.15-1.7.49-3.22,1.36-4.79,2.15ZM200.84,219.03c-1.2.12-2.33.47-3.39,1.01,1.2-.09,2.34-.4,3.39-1.01ZM210.07,216.46c-.18-.11-.31-.08-.4.12.17.07.32.11.4-.12ZM243.49,182.34l-.02-.09-.02.09h.04Z"/>
      <path class="cls-3" d="M124.66,92c-1.79.09-3.54.5-5.32.72-.27.03-.53.05-.8.07,1.27-1.82,3-3.17,4.73-4.5,5.44-4.19,11.29-7.71,17.53-10.58,4.11-1.89,8.44-3.01,12.95-3.42,3.12-.28,6.27-.4,9.33-1.16.9-.22,1.82-.06,2.82.28-1.1,1.56-2.23,3.01-3.18,4.57-2.33,3.83-5.57,7.02-7.72,10.98-.6,1.1-1.36,2.14-1.54,3.44-.04.27-.3.35-.47.54.2.18.4.35.59.52-.28.84-1.16,1.32-1.29,2.25-.31.22-.66.48-1.01.26-.83-.54-1.2-.07-1.63.56-1.23,1.8-2.5,3.57-3.76,5.35-.29.41-.56.95-1.12.95-.49,0-1.07-.13-1.38-.55-.37-.5.19-.79.42-1.13,1.45-2.1,2.92-4.18,4.36-6.22-.22-.57-.83-.47-1.06-.87.05-1.24.67-2.3,1.1-3.42-.38-.38-.86-.21-1.26-.33.43-.36.95-.55,1.47-.68,1.17-.29,1.95-.95,2.51-2.03,1.8-3.47,4.47-6.31,6.87-9.35.03-.04,0-.13,0-.25-.7-.58-1.43-.87-2.39-.43-.61.27-1.31.38-1.98.47-1.92.25-3.81.72-5.62,1.29-4.21,1.31-8.28,3.04-12.11,5.27-1.79,1.04-3.65,1.98-5.33,3.23.64.81.34,1.24-.47,1.27-1.66.06-2.85.99-4.06,1.95-.39.31-.62.82-1.16.96Z"/>
      <path class="cls-2" d="M242.37,146.74c-.43-2.7-2-4.83-3.49-6.99-4.67-6.74-11.21-11.09-18.66-14.07-5.19-2.08-10.68-2.62-16.23-1.37-.93.21-1.83.55-2.74.83-1.26-.13-2.53-.11-3.78.13-2.72.51-5.36,1.37-7.99,2.22-2.34.76-4.65,1.58-6.98,2.37.38-.88,2.01-1.92,2.84-1.8.66.09,1.87-.96,1.86-1.64-.01-.51-.13-1.01-.29-1.5-.54-1.62-.96-3.27-1.42-4.91-.99-3.49-2.38-6.78-5.23-9.29-3.85-3.39-7.5-7.02-11.95-9.67-1-.59-2.04-1.12-3.06-1.68-.33-.18-.66-.39-1.05-.17.02-.58.2-1.13.35-1.68.79-2.78,2.05-5.34,3.69-7.71-.02.74-.39,1.38-.69,2.02-.27.57-.24,1.05-.05,1.65.4,1.28.92,2.49,1.48,3.7.15.33.34.54.65.73.93.58,1.86,1.16,2.72,1.83,3.12,2.4,6.18,4.86,8.64,7.97.33.42.68.8,1.28.43,2.27,2.56,4.27,5.32,6.16,8.18.54.82,1.08,1.66,1.86,2.3.33.58.42,1.16.3,1.85-.31,1.77.43,3.14,2,3.86.32.15.82.15,1.15,0,.84-.38,1.72-.3,2.58-.3.62,0,1.02-.47,1.61-.58,4.65-.88,9.32-1.18,14.04-.87,4.1.27,8.17.68,11.99,2.35.82.36,1.65.71,2.45,1.15-1.15.23-2.07-.73-3.34-.64,1.82,1.79,3.95,2.63,6.42,2.97-.78-.95-1.96-1.19-2.88-1.98.68-.13,1.15.13,1.61.36,2.8,1.38,5.41,3.15,7.78,5.12,1.43,1.18,2.77,2.66,3.69,4.43,1.37,2.64,2.93,5.18,4.41,7.76.13.23.22.49.32.74-.84.48-1.27,1.39-2.07,1.91Z"/>
      <path class="cls-3" d="M168.25,89.79c-1.64,2.37-2.9,4.93-3.69,7.71-.16.55-.33,1.1-.35,1.68-1.22.33-1.71,1.25-2.01,2.39-.39,1.48-.88,2.93-1.3,4.41-.25.88-.75,1.09-1.6.81-.9-.3-.78-.86-.54-1.53.67-1.93.73-4.02,1.55-5.91.07-.16-.02-.4-.03-.6.27-1.06.54-2.13.81-3.19.63-.02.98-.32,1.14-.95.51-1.96,1.29-3.75,2.53-5.42.85-1.15,1.19-2.67,1.72-4.04.51-1.31,1.13-2.57,1.77-3.81.2-.4.41-.83.87-.97,1.01-.31.58-.77.17-1.25-.28-.32-.96-.36-.66-1.08.38-.89.73-1.81,1.65-2.26.4-.2.68.22.92.5,3.72,4.16,6.82,8.66,8.81,13.96,2.59,6.88,5.49,13.63,8.24,20.45,1.03,2.55,1.52,5.24,2.07,7.91-.78-.64-1.32-1.48-1.86-2.3-1.89-2.85-3.89-5.62-6.16-8.18.63-.82.67-1.75.54-2.72-.26-1.85-1.08-3.51-1.76-5.22-1.65-4.19-3.05-8.49-5.48-12.33-1-1.59-2.08-3.15-2.85-4.85-.4-.88-.98-1.15-1.68-1.17-.75-.02-.69.8-.85,1.33-.32,1.02.02,2.29-1.18,2.98-.16.09-.12.37-.05.58.43,1.1-.08,2.02-.59,2.94v.02s-.09.08-.14.13Z"/>
      <path class="cls-3" d="M182.5,129.85c2.33-.79,4.64-1.61,6.98-2.37,2.63-.85,5.27-1.7,7.99-2.22,1.24-.23,2.51-.25,3.78-.13-.86.31-1.72.64-2.58.94-2.77.98-4.47,3.15-5.97,5.48-.73,1.15-.37,2.59-.62,3.89-.29,1.56-.66,3.1-1.13,4.61-.26.84-.81,1.62-.97,2.47-.25,1.35-.99,1.92-2.27,2.33-3.45,1.12-7,1.43-10.56,1.89-2.53.33-4.89-.12-7.2-1.04-.12-.05-.22-.12-.38-.21,1.2-2.95,2.91-5.54,4.93-7.91,2.19-2.57,4.5-5.06,7.05-7.29.16-.14.28-.3.52-.24.14-.07.29-.14.43-.22,0,0-.02.02-.02.02ZM188.43,133.82c-.04-2.55-1.26-3.28-3.38-2.29-1.66.78-3.06,1.94-4.46,3.09-2.79,2.28-5.4,4.75-7.3,7.85-.39.64-.68,1.32-1.41,1.69-.38.19-.63.56-.25,1.01.45.55,1.6.71,2.13.23.21-.19.39-.34.68-.37,3.29-.33,6.57-.68,9.86-1,.97-.09,1.73-.46,2.09-1.39,1.13-2.92,1.5-6.01,2.04-8.83Z"/>
      <path class="cls-2" d="M202.58,229.63c-1.79,1.23-3.54,2.17-5.41,2.78-5.06,1.65-10.17,3.19-15.35,4.43-2.44.58-4.98.46-7.42.96-3.61.74-7.36,1.01-10.81,2.31-8.07,3.05-15.82,6.76-22.65,12.16-.08.06-.18.09-.45.23.63-2.02,1.42-3.72,2.72-5.29,2.71-3.27,6.3-5.1,10.14-6.47,5.34-1.91,10.79-3.42,16.44-4.24,2.41-.35,4.78-1.14,7.22-1.45.92-.12,1.84-.24,2.76-.21,2.8.1,5.35-.95,8-1.55,3.67-.82,7.32-1.66,10.89-2.86.81-.27,1.62-.55,2.4-.9.49-.22.9-.23,1.51.11Z"/>
      <path class="cls-3" d="M242.37,146.74c.79-.53,1.23-1.44,2.07-1.91,2.57,2.77,4.01,6.07,4.84,9.75.72,3.23,1.84,6.37,2.67,9.57.41,1.57.56,3.22.84,4.82.12.71-.75.6-.84,1.32-.7-1.2-1.81-1.08-2.76-1.36-.58-.17-.87.06-.97.68-.08.49-.15,1.02-.45,1.46-1.14-1.2-2.58-1.68-4.19-1.75-.24-1.77-1.2-2.85-2.94-3.37-1.2-.36-2.34-.94-3.5-1.44-1.41-.6-1.68-1.05-1.12-2.45,1.91-4.73,3.15-9.75,6.01-14.08.24-.37.45-.77.37-1.24ZM250.16,167.23c0-.45.03-.62,0-.78-.74-3.31-.58-6.8-2.61-9.84-1.1-1.64-1.57-3.69-2.34-5.55-.19-.45-.29-.98-.8-1.28-.14.1-.27.16-.35.26-1.77,2.28-3.92,4.23-5.1,7-.65,1.53-.98,2.94-1.02,4.58-.03.98-.07,1.43.84,2.1.79.58,1.51,1.2,2.45,1.52,1.44.48,2.7,1.39,4.38,1.22,1.47-.15,2.98.11,4.55.8ZM245.28,167.05c-.01.33-.29.56-.11.95.29-.2.55-.44.94-.41-.16-.36-.4-.45-.83-.54Z"/>
      <path class="cls-3" d="M97.99,204.73c.46.03.63.26.8.46,2.05,2.44,4.96,3.88,7.2,6.07,4.44,4.37,8.84,8.83,11.27,14.72,1.6,3.89,2.12,7.96.83,12.1-.11.36-.12.85-.67.94-.45-.29-.24-.74-.25-1.11-.04-1.53-.27-3.06-.35-4.57-.18-3.19-2.33-5.17-3.91-7.52-1.14-1.7-1.8-3.68-3.23-5.2-3.7-3.95-6.44-8.65-9.83-12.84-.72-.89-1.39-1.85-1.86-3.05Z"/>
      <path class="cls-3" d="M176.41,246.15c-.73.42-1.48.43-2.21.52-1.85.23-3.55,1.03-5.36,1.45-5.94,1.37-11.68,3.4-17.1,6.22-1.5.78-2.9,1.78-4.21,2.87-.81.67-1.72,1.18-2.73,1.65-.2-.74.1-1.18.48-1.56.45-.47.97-.87,1.42-1.34.39-.41.96-.63,1-1.4.02-.42.65-.75,1.07-1.04,2.3-1.6,4.87-2.65,7.45-3.65,1.61-.63,2.94-1.73,4.55-2.36,4.74-1.86,9.66-2.06,14.65-1.84.32.01.69.04,1,.49Z"/>
      <path class="cls-2" d="M154.08,129.86c-3.4.85-4.92,1.88-5.18,3.46-1.28-.2-1.36-.3-.88-1.42.29-.69.22-1.31-.15-1.95-.58-1.01-.89-2.12-1.08-3.41,2.71.56,5.18,1.37,7.3,3.33Z"/>
      <path class="cls-2" d="M161.08,95.55c-.27,1.06-.54,2.13-.81,3.19-1.93-.62-3.58-1.84-5.49-2.52-.81-.29-1.61-.57-2.48-.51.13-.92,1.01-1.41,1.29-2.25.74-.02,1.34.41,2.02.59,1.82.48,3.64.99,5.46,1.49Z"/>
      <path class="cls-2" d="M213.51,149.75c-.23.09-.26.11-.29.12-1.82.79-3.41,1.75-3.26,4.11,0,.07-.12.15-.21.25-.62-.43-.73-1.14-.67-1.73.11-.95-.36-1.52-.89-2.16-.43-.53-1.28-1.06-.85-1.79.43-.73,1.37-.43,2.1-.33.99.14,1.94.45,2.76,1.04.34.25.71.37,1.3.49Z"/>
      <path class="cls-2" d="M139.14,236.14c-1.07,1.03-2.48,1.65-3.5,2.75-.5.54-1.02,1.05-1.29,1.79-.2.56-.86.6-1.38.57-.61-.03-1.01.23-1.42.63-1.08,1.04-1.74,2.45-3,3.33-.22.15-.36.42-.71.38-.39-.29-.22-.63.03-.85,3.52-3.14,6.62-6.84,11.15-8.69.04.03.07.05.1.08Z"/>
      <path class="cls-2" d="M141.51,234.7c.65-.33,1.3-.67,1.95-1-.6.48-1.06,1.21-1.95,1Z"/>
      <path class="cls-2" d="M140,235.51c-.14.41-.44.6-.86.63-.03-.03-.07-.06-.1-.08.22-.34.68-.27.95-.52l.02-.02Z"/>
      <path class="cls-2" d="M182.52,129.83c-.14.07-.29.14-.43.22.11-.15.2-.33.43-.22Z"/>
      <polygon class="cls-2" points="139.98 235.54 139.97 235.49 140 235.52 139.98 235.54"/>
      <path class="cls-1" d="M124.66,92c.54-.13.77-.64,1.16-.96,1.21-.96,2.41-1.89,4.06-1.95.82-.03,1.11-.46.47-1.27,1.68-1.25,3.54-2.19,5.33-3.23,3.83-2.23,7.91-3.96,12.11-5.27,1.81-.56,3.7-1.04,5.62-1.29.67-.09,1.37-.2,1.98-.47.97-.44,1.69-.15,2.39.43,0,.12.03.21,0,.25-2.4,3.04-5.07,5.88-6.87,9.35-.56,1.08-1.34,1.74-2.51,2.03-.52.13-1.04.32-1.47.68-.56.39-1.15.4-1.82.26-5.53-1.2-11-.81-16.41.77-1.1.32-2.2.64-2.59,2.02-.21.75-2.36.67-2.93-.07.57-.34,1.63-.15,1.47-1.29Z"/>
      <path class="cls-1" d="M210.29,216.35c1.56-.79,3.09-1.67,4.79-2.15-1.51.91-3.1,1.64-4.79,2.15Z"/>
      <path class="cls-1" d="M200.84,219.03c-1.05.61-2.19.92-3.39,1.01,1.07-.55,2.2-.89,3.39-1.01Z"/>
      <path class="cls-1" d="M210.07,216.46c-.08.23-.23.19-.4.12.09-.19.22-.22.4-.12Z"/>
      <polygon class="cls-1" points="243.49 182.34 243.45 182.34 243.47 182.25 243.49 182.34"/>
      <path class="cls-1" d="M168.4,89.64c.51-.92,1.01-1.84.59-2.94-.08-.21-.11-.49.05-.58,1.2-.69.86-1.96,1.18-2.98.17-.53.1-1.34.85-1.33.7.02,1.28.29,1.68,1.17.77,1.7,1.85,3.26,2.85,4.85,2.43,3.85,3.82,8.15,5.48,12.33.67,1.71,1.5,3.37,1.76,5.22.14.97.09,1.9-.54,2.72-.6.37-.95,0-1.28-.43-2.46-3.11-5.53-5.57-8.64-7.97-.86-.67-1.8-1.25-2.72-1.83-.31-.19-.49-.41-.65-.73-.57-1.2-1.08-2.42-1.48-3.7-.19-.6-.21-1.07.05-1.65.3-.64.66-1.28.69-2.02.05-.04.1-.08.15-.13,0,0,0-.02,0-.02Z"/>
      <path class="cls-2" d="M168.4,89.64s0,.02,0,.02c0,0,0-.02,0-.02Z"/>
      <path class="cls-1" d="M188.43,133.82c-.54,2.82-.92,5.91-2.04,8.83-.36.93-1.12,1.3-2.09,1.39-3.29.32-6.57.67-9.86,1-.3.03-.47.17-.68.37-.53.48-1.68.32-2.13-.23-.37-.46-.12-.82.25-1.01.73-.37,1.02-1.05,1.41-1.69,1.9-3.1,4.51-5.57,7.3-7.85,1.4-1.15,2.79-2.31,4.46-3.09,2.13-.99,3.34-.26,3.38,2.29Z"/>
      <path class="cls-1" d="M250.16,167.23c-1.57-.68-3.08-.95-4.55-.8-1.68.17-2.95-.74-4.38-1.22-.94-.31-1.66-.94-2.45-1.52-.92-.67-.87-1.11-.84-2.1.05-1.64.37-3.05,1.02-4.58,1.19-2.76,3.33-4.72,5.1-7,.08-.1.21-.16.35-.26.5.3.61.83.8,1.28.77,1.86,1.25,3.91,2.34,5.55,2.03,3.04,1.87,6.53,2.61,9.84.03.16,0,.33,0,.78Z"/>
      <path class="cls-1" d="M245.28,167.05c.43.09.67.18.83.54-.39-.03-.65.21-.94.41-.18-.39.1-.62.11-.95Z"/>
    </g>
  </g>
</svg>