<?xml version="1.0" encoding="UTF-8"?>
<svg id="text_1" data-name="text_1" xmlns="http://www.w3.org/2000/svg" width="199" height="63" viewBox="0 0 199.44 63.26">
  <defs>
    <style>
      .cls-1 {
        fill: #7fac3a;
      }

      .cls-2 {
        fill: #372f2a;
      }
    </style>
  </defs>
  <g id="text_1-2" data-name="text_1">
    <g>
      <path class="cls-1" d="M6.86,40.6c.29.43.57.83.84,1.24,1.2,1.83,2.34,3.7,3.6,5.49.67.95-.25,1.16-.58,1.64-.32.46-.64.66-1.25.26-2.93-1.9-5.9-3.73-8.84-5.61-.23-.15-.97-.23-.47-.71.4-.37.55-1.47,1.54-.81,2.08,1.39,4.15,2.78,6.23,4.16.32.21.61.51,1.04.57.17-.46-.18-.67-.35-.94-1.37-2.13-2.73-4.27-4.13-6.37-.37-.56-.34-.88.12-1.38.5-.53.85-.45,1.39-.13,2.46,1.46,4.95,2.89,7.5,4.37.1-.49-.26-.72-.45-.98-1.47-2.02-2.96-4.02-4.44-6.04-.52-.71-.28-1.51.5-1.85.35-.15.42.12.54.29,2.11,2.99,4.22,5.98,6.34,8.97.18.25.21.43,0,.71-1.01,1.36-1.22,1.42-2.68.57-1.86-1.09-3.72-2.18-5.58-3.27-.22-.13-.4-.39-.87-.19Z"/>
      <path class="cls-1" d="M47.71,14.68c.29,1.67.58,3.33.88,5,.26,1.44.04,1.76-1.39,2.1-.52.13-.67-.23-.89-.51-1.55-1.91-3.1-3.83-4.63-5.77-.18-.23-.8-.58-.25-.84.49-.23,1.07-1.09,1.75-.16,1.09,1.49,2.21,2.96,3.32,4.44.13.18.29.34.61.44-.25-1.61-.5-3.21-.75-4.82-.05-.34-.07-.69-.17-1.01-.21-.66-.06-1.01.62-1.34.72-.35,1.03-.07,1.42.44,1.02,1.33,2.06,2.64,3.11,3.95.2.25.29.65.79.64-.37-1.99-.73-3.97-1.09-5.94-.13-.7.57-1.49,1.24-1.42.29.03.27.25.3.45.43,2.63.83,5.27,1.28,7.9.18,1.06-.81.8-1.25,1.15-.38.3-.74.33-1.11-.17-1.16-1.56-2.38-3.07-3.57-4.6-.08.02-.16.04-.24.07Z"/>
      <path class="cls-1" d="M31.76,27.86c-.73-1.84-1.46-3.69-2.18-5.53-.28-.7.2-1.52.93-1.65.32-.06.33.19.39.35.96,2.56,1.91,5.13,2.85,7.69.04.12.11.33.06.37-.51.4-1.01.82-1.57,1.14-.44.24-.65-.26-.91-.48-1.43-1.21-2.83-2.45-4.41-3.57.64,1.67,1.27,3.34,1.91,5.01.4,1.04-.1,2-1.16,2.26-.2.05-.33-.03-.46-.14-2.23-1.86-4.45-3.73-6.73-5.64.36-.26.66-.44.91-.66.45-.41.8-.3,1.22.09,1.43,1.32,2.9,2.6,4.36,3.9.1.07.26.2.28.19.14-.15.05-.29-.05-.42-.67-1.82-1.31-3.65-2.02-5.46-.24-.62-.08-.93.43-1.25.47-.3.8-.47,1.32,0,1.52,1.36,3.11,2.65,4.67,3.97.05.04.12.12.15.1.12-.06.09-.16.03-.25Z"/>
      <path class="cls-2" d="M72.99,8.26c0-2.74,2.19-4.54,4.73-3.92.74.18.84,0,.7-.66-.17-.83-.26-1.69-.46-2.52-.13-.55.05-.81.58-.75.43.04,1.09-.68,1.25.37.55,3.44,1.12,6.88,1.68,10.31.04.24.14.55-.21.56-.43.01-.97.45-1.29-.1-.25-.42-.4-.35-.68-.1-1.23,1.12-2.63,1.47-4.15.73-1.65-.81-1.99-2.4-2.16-3.93ZM79.18,8.64c-.05-.31-.13-.91-.25-1.51-.15-.8-.4-1.52-1.41-1.6-1.13-.09-1.93.31-2.34,1.24-.44,1.01-.28,2.01.11,2.98.43,1.06,1.33,1.52,2.38,1.28,1.1-.25,1.52-.83,1.51-2.38Z"/>
      <path class="cls-2" d="M139.13,16.59c0-3.15,2.74-5.43,5.39-4.48.59.21,1.1.54,1.5,1.03.39.47.66.37.88-.16.32-.79.7-1.56.97-2.37.23-.72.63-.57,1.08-.31.37.22,1.07.15.7,1-1.38,3.12-2.7,6.27-4.05,9.41-.1.23-.12.63-.51.48-.39-.15-1.09-.16-1.03-.65.11-1.02-.51-.55-.87-.5-2.18.28-4.06-1.31-4.05-3.45ZM145.61,15.32c.04-.66-.18-1.2-.78-1.54-.74-.42-1.49-.45-2.23,0-1.02.61-1.78,2.28-1.57,3.46.17.92.81,1.38,1.65,1.61.83.22,1.54-.06,1.96-.75.51-.84.91-1.75.97-2.77Z"/>
      <path class="cls-1" d="M110.59.68c-.95,1-1.85,2.03-2.84,2.96-.63.59-.76,1.07-.3,1.85,1.09,1.85,2.09,3.75,3.13,5.66-1.66.31-1.88.21-2.63-1.17-.58-1.08-1.19-2.16-1.74-3.26-.37-.74-.77-.65-1.38-.25-1.2.8-1.33,1.99-1.27,3.25.03.77-.2,1.07-1.05,1.02-.8-.05-.94-.29-.87-1.05.27-2.93.49-5.86.67-8.8.04-.72.25-.93.97-.88.73.05,1.05.24.94,1.03-.13.91-.16,1.84-.22,2.76-.02.29-.19.7.12.85.38.19.58-.25.81-.47.9-.84,1.84-1.65,2.66-2.57.86-.97,1.78-1.44,3.01-.93Z"/>
      <path class="cls-2" d="M59.26,7.46c1.27.04,2.11.68,2.62,1.74.88,1.82,1.29,3.81,1.99,5.69.1.26.08.51-.25.53-.4.03-.8.61-1.18.07-.35-.5-.58-.31-.85.04-.45.58-.99,1.03-1.68,1.31-1.19.47-2.35.18-3.03-.75-.77-1.05-.72-2.31.14-3.3.66-.76,1.52-1.26,2.38-1.75.4-.23,1.11-.3.82-1.04-.25-.64-.79-.93-1.48-.86-.82.09-1.49.52-2.02,1.11-.41.45-.67.6-1.2.08-.6-.59-.12-.81.2-1.12,1-.99,2.16-1.65,3.55-1.76ZM61.35,13.7c-.05-.98-.3-1.58-1.19-1.57-.87.01-2.1,1.27-2.06,2.1.04.76.42,1.21,1.22,1.19,1.01-.02,2.04-1.02,2.03-1.72Z"/>
      <path class="cls-2" d="M22.43,36.5c-.25.6-.43,1.2-.72,1.73-.79,1.41-2.34,1.95-3.55,1.28-1.36-.75-1.76-2.18-1.03-3.71.36-.75.85-1.4,1.38-2.03.28-.34.7-.7.37-1.14-.37-.49-.94-.67-1.56-.41-.89.38-1.37,1.13-1.68,1.97-.22.6-.45.66-1.03.45-.67-.24-.53-.57-.31-1,.2-.4.37-.81.61-1.18,1.67-2.62,3.88-2.82,5.94-.53,1.03,1.14,2.01,2.33,2.99,3.51.18.21.69.46.19.8-.35.23-.56,1.02-1.23.43-.09-.08-.23-.12-.35-.18ZM18.32,36.67c.03.95.84,1.57,1.6,1.29.81-.29,1.51-1.45,1.38-2.3-.14-.95-1.23-1.65-1.83-1.13-.66.57-1.06,1.32-1.16,2.14Z"/>
      <path class="cls-2" d="M37.82,16.89c.96.03,1.8.62,2.36,1.53.99,1.6,1.88,3.26,2.83,4.89.18.3.19.54-.15.64-.37.12-.71.77-1.13.25-.51-.62-.61-.18-.8.2-.34.69-.81,1.27-1.47,1.68-1.04.65-2.22.58-3.04-.18-.94-.86-1.16-2.06-.57-3.18.51-.96,1.33-1.64,2.13-2.34.32-.27.88-.47.57-1.04-.28-.52-.77-.77-1.38-.69-.97.14-1.64.77-2.05,1.56-.5.95-.94.38-1.43.09-.16-.1-.17-.23-.1-.43.42-1.29,2.68-2.97,4.24-2.98ZM40.3,22.55c-.09-.45-.19-1.11-.86-1.22-.9-.13-1.4.56-1.87,1.19-.42.56-.57,1.17-.13,1.79.3.42.69.62,1.23.47.92-.26,1.63-1.16,1.63-2.23Z"/>
      <path class="cls-2" d="M183.33,44.51c1.22.04,2.2.86,3.21,1.62.41.31.82.94,1.38.36.55-.56.33-1.21-.12-1.76-.48-.6-1.11-1.06-1.83-1.27-.72-.2-.43-.61-.35-1.02.14-.64.53-.37.85-.23,1.12.49,2.1,1.15,2.82,2.16.85,1.19.87,2.38-.07,3.49-1.15,1.37-2.62,2.4-3.9,3.63-.16.15-.37.27-.52.05-.23-.35-.88-.57-.64-1.05.32-.65-.11-.68-.48-.82-1.06-.4-1.96-.98-2.42-2.08-.62-1.48.36-3.05,2.06-3.09ZM183.79,46.02c-.51.03-.98.31-1.04,1-.06.77,1.11,1.87,2.02,1.86.72,0,1.26-.36,1.3-1.15.04-.75-1.17-1.69-2.28-1.71Z"/>
      <path class="cls-2" d="M150.65,19.35c.96.06,1.89.31,2.79.63.41.14.84.45,1.16-.12.27-.49.13-.95-.22-1.32-.65-.69-1.51-.87-2.42-.94-.28-.02-.63.12-.83-.23-.32-.59,0-1.15.68-1.12,1.25.06,2.43.37,3.46,1.11,1.13.81,1.53,1.94,1.04,3.25-.62,1.67-1.61,3.16-2.4,4.75-.09.18-.21.41-.46.22-.33-.25-.98-.23-.97-.77.02-.69-.41-.59-.81-.59-.84,0-1.63-.18-2.34-.63-1.01-.64-1.43-1.62-1.14-2.62.31-1.06,1.19-1.65,2.44-1.62ZM152.05,23.17c.9,0,1.54-.63,1.5-1.44-.03-.64-1.06-1.16-2.27-1.12-.77.03-1.35.35-1.38,1.2-.02.71,1.07,1.37,2.15,1.37Z"/>
      <path class="cls-2" d="M133.83,8.42c2.37.03,4.27,1.86,4.24,4.09-.03,2.41-1.9,4.34-4.16,4.3-2.37-.04-4.24-1.86-4.23-4.11.02-2.45,1.82-4.31,4.15-4.28ZM131.54,12.97c-.05,1.38.8,2.37,2.08,2.42,1.35.05,2.53-1.36,2.62-3.13.06-1.34-.83-2.37-2.09-2.41-1.37-.05-2.54,1.35-2.6,3.12Z"/>
      <path class="cls-2" d="M116.32,12.51c-2.38.01-4.28-1.78-4.28-4.07,0-2.46,1.78-4.33,4.14-4.32,2.38,0,4.25,1.83,4.23,4.12-.02,2.42-1.78,4.26-4.09,4.27ZM113.94,8.81c.08.8.29,1.65,1.23,2.07.81.37,1.6.31,2.31-.25.95-.76,1.33-2.68.78-3.87-.42-.91-1.37-1.39-2.36-1.2-1.09.21-1.87,1.37-1.96,2.92,0,.07,0,.14,0,.32Z"/>
      <path class="cls-2" d="M199.44,58.72c.03.53-.19,1.13-.57,1.68-.99,1.41-2.08,1.41-3.05-.02-.5-.73-.98-1.49-1.52-2.19-.59-.76-1.16-.65-1.49.24-.44,1.18.09,2.49,1.53,3.47.5.34.5.61.25,1.06-.16.3-.29.36-.63.21-1.66-.73-3-3.05-2.79-4.89.2-1.67,1.72-3.18,3.55-3.53,2.34-.45,4.72,1.46,4.73,3.95ZM198.07,58.45c.02-1.1-1.01-2.16-2.08-2.17-.31,0-.61,0-.8.32-.2.34-.13.64.09.94.33.47.65.95.98,1.43.27.39.55.9,1.1.7.52-.19.63-.75.71-1.22Z"/>
      <path class="cls-2" d="M166.48,25.03c2.42-.02,4.33,2.05,3.9,4.21-.3,1.53-1.63,2.08-2.93,1.2-.79-.54-1.55-1.12-2.34-1.66-.71-.48-1.02-.31-1.12.55-.16,1.43.76,2.59,2.59,3.06.6.15.67.39.6.91-.05.36-.19.43-.53.42-1.55-.07-3.54-1.58-4.12-3.16-.56-1.53-.03-3.35,1.33-4.53.75-.66,1.62-1.01,2.62-1ZM166.77,26.44c-.47.05-1.09.03-1.3.66-.21.63.44.76.78,1.03.47.39,1,.7,1.48,1.08.59.45.92.21,1.15-.38.43-1.12-.65-2.38-2.1-2.39Z"/>
      <path class="cls-2" d="M87.48,2.79c1.63,0,2.78.8,3.27,2.29.37,1.12-.14,2-1.32,2.15-.95.12-1.91.14-2.86.23-.4.04-.87,0-1.04.49-.17.51.18.86.51,1.15,1.11.95,2.36.86,3.55.24.62-.32.83-.09,1.12.35.19.28.08.39-.14.57-1.29,1.02-3.88,1.13-5.37.19-1.44-.91-2.15-2.81-1.71-4.6.46-1.86,2.03-3.06,3.98-3.06ZM85.8,6.35c1.08-.08,1.83-.12,2.58-.2.91-.1,1.1-.54.59-1.3-.43-.64-1.06-.82-1.79-.75-.81.08-1.41.48-1.76,1.21-.35.75-.13,1.06.38,1.04Z"/>
      <path class="cls-2" d="M191.78,49.83c-.21-.38-.76-.83.05-1.25.26-.14.45-.31.68,0,.42.6.82.34,1.29.01,1.81-1.27,3.43-.8,4.42,1.25.15.31.39.63-.17.79-.34.09-.7.52-.98-.15-.32-.75-.91-1.15-1.73-.68-1.05.61-1.28.97-.43,1.76.38.35.3.59-.1.88-.37.27-.66.5-.96-.05-.48-.91-1.02-.73-1.7-.17-1.18.99-2.45,1.87-3.61,2.88-.66.58-.89.16-1.24-.29-.34-.43-.63-.73.03-1.2,1.34-.95,2.6-2,3.89-3.02.24-.19.52-.35.55-.77Z"/>
      <path class="cls-2" d="M125.71,5.94c.83.04,1.83.43,2.67,1.19.19.17.76.35.25.74-.32.25-.63.82-1.17.22-.42-.46-.99-.72-1.62-.8-.51-.06-1-.02-1.24.47-.26.53.07.91.49,1.21.61.43,1.25.83,1.85,1.29.78.6,1.28,1.34.96,2.39-.33,1.06-1.13,1.5-2.16,1.59-1.59.14-2.94-.46-4.12-1.49-.23-.2-.65-.44-.14-.78.32-.21.59-.78,1.09-.22.54.6,1.22.99,2.01,1.15.59.12,1.2.11,1.52-.52.33-.65-.17-1.02-.6-1.35-.48-.38-1.01-.7-1.5-1.07-1.13-.83-1.49-1.66-1.15-2.59.36-.99,1.25-1.49,2.87-1.45Z"/>
      <path class="cls-2" d="M159.29,19.91c.21.1.41.23.64.31.81.28,1-.47,1.27-.89.45-.68.8-.43,1.32-.13.65.37.28.69.07,1.05-.7,1.16-.69,1.14.42,1.88.32.21.98.26.54,1.01-.4.68-.73.46-1.2.16-1.2-.75-1.21-.73-1.95.48-.45.73-.91,1.44-1.34,2.18-.6,1.04-.48,1.56.59,2.03.55.24.58.5.41,1-.23.69-.64.32-.97.2-2.27-.86-2.76-2.34-1.49-4.42.48-.79.97-1.57,1.45-2.35.3-.49.45-.94-.2-1.28-.24-.12-.38-.3-.18-.57.18-.23.24-.58.61-.65Z"/>
      <path class="cls-1" d="M180.07,36.36c1.84.03,3.72,1.45,4.14,3.13.07.29.25.65-.26.68-.36.02-.83.38-1.06-.2-.16-.38-.25-.78-.55-1.09-.73-.74-1.59-1.09-2.6-.7-1.21.46-2.01,1.31-2.15,2.63-.12,1.07.4,1.84,1.33,2.34.24.13.5.23.77.28.66.12.41.58.39.96-.02.55-.39.46-.73.4-1.97-.36-3.74-2.66-3.53-4.58.23-2.08,2.21-3.86,4.27-3.83Z"/>
    </g>
  </g>
</svg>