<!--?xml version="1.0" encoding="UTF-8"?-->
<svg id="lay_1" data-name="lauy_1" xmlns="http://www.w3.org/2000/svg" viewBox="0 0 562.94 189.06" style="">
  <defs>
    <style>
      .cls-1 {
        stroke-width: 6px;
      }

      .cls-1, .cls-2, .cls-3, .cls-4 {
        fill: none;
        stroke: #ffffff;
        stroke-linecap: round;
        stroke-linejoin: round;
      }

      .cls-2 {
        stroke-width: 7px;
      }

      .cls-5 {
        fill: #88a640;
      }

      .cls-6 {
        fill: #2f2f2f;
      }

      .cls-3 {
        stroke-width: 10px;
      }

      .cls-4 {
        stroke-width: 8px;
      }
    </style>
  </defs>
  <g id="mask-line">
    <path class="cls-5 TdDHSGyx_0" d="M49.15,183.43c2.2-.37.83-3.35,1.17-5.29,2.57-1.43,1.37,2.12,2.37,3.58,1.58-1.18,2.65-4.39,3.88-4.5.13.5.38.65.14,1.37,1.56-2.91,5.14-1.16,6.95-4.77.17.26.26.51.31.75-.43-1.55-.59-3.16-.6-4.34.98-.26,1.7-2.39,2.21-.37-.61.06-.6.92-.84,1.63l.97-1.13c1.13,2.83-1.34,1.33-1.2,3.57,1.95-1.39,4.13-4.36,5.74-3.82.52,2.9-3.55,1.72-1.32,3.93l-2.46-.65c2.13,4.3-1.47-.03.53,4.62,3.2.23,3.42-2.21,6.61-1.99.6-1.78-.39-2.38.2-4.16,4.27-3.84,4,6.72,7.02,2.13.72-2.14.8-5.94,3.27-4.44l-.58,3.51c3.06-.29,1.42-5.15,4.76-3.56-.48,1.43-2.32,1.59-1.83,1.89,2.24,2.22,1.34-2.18,2.92-2.5l.52,2.89c3.21-1.11,6.64-3.98,10.2-5.24-.14.91-.7,1.97.2,2.71,4.43-2.39,9.69-1.58,14.17-.71l1.5-2.88c.39-.05.79,1.01.41,1.58,1.77.62-.02-1.63.73-2.81.96-.38,1.38,1.21.81,2.11,2.86-2.77,8.25-6.39,11.59-4.3l-.57.88c2.53.55,2.44-5.79,4.88-3.87l-.41.53c5.42.03,11.18-3.5,15.51-.47.53-3.84,5.4.58,5.41-4.62,3.22,1.93,2.41,3.01,6.82,3.86,1.17,0,1.5-3.55,2.88-4.38l.21,2.68,1.74-3.2,1.23,3,1.29-.96c-.54-.05-1.2-.97-1.18-1.77,2-1.63,5.19.85,5.34,2.2l4.77-3.26c-.04,1.1-.84,1.63-1.45,2.45,2.45-3.26.66,2.73,2.91-.26-.36-.55.07-1.63.09-2.18,1.31,1.39,4.04.85,6.02-.25l-.27,1.94c3.68-.26,7.64-2.44,11.74-3.24-1.53-.56-1.4-3.84-.22-4.39l.67,2.73c.66-1.91-1.33-.82.13-3.28,1.55.01,1.24,3.01.42,4.11l1.79-1.36c.17.82-.24,1.35-.29,2.47.65-1.92,3.4,2.19,4.3-1.08l.16.82c4.1-.79,5.89-2.15,9.22-2.96-.1-2.45,1.24-2.18,2.11-4.36,2.5.29,5.35,1.66,8.29.86,2-1.63.47-2.19,1.31-3.84.3,2.19,3.24,1.38,1.81,3.3,3.52-1.08,4.5-1.36,8.87-4.07-.55-.82-1.12-1.1-.89-1.92.79-.53,1.92.56,1.87,1.66l-.2.27c4.81-4.36,12.04,4.15,15.75-1.29l-.21.28,4-3.26c1.94,0-1.04,1.9.47,3,4.24-4.62,7.12-.89,10.65-4.1,3.29,5.99,10.11-2.5,14.25.91l-.33-1.5c.89-1.72,1.27.65,2.02.85-.18-1.18-1.17-1.18-.61-2.13,8.33-3.57,17.58-1.26,26.34-1.61,3.2-.22,1.27-8.37,5.51-5.48l-.95,3.1c6.17-4.74,13.08-2.51,19.15-6.7-.33.74-.28,1.6-.9,1.72,1.46,1.82,4.89-.88,4.81-2.59.99,0,.33,1.49.98,2.24,1.4.96,3.15-3.34,3.99-1.4.14.31-.33.75-.56.97.8-1.19,4.05-.55,3.06-2.79,2.42.68,4.42-1.98,6.39-.93,1.05-2.93,4.11.49,4.24-3.4.09,3.96,4.32,2.35,5.69.19-.42,1.28,1.37.97.9,2.74,1.69-.4,3.19-1.44,2.77-3.4,3.43,4.08,6.03-5.05,8.18.62,4.89-3.13,9.46-5.5,13.93-7.33.09,3.96-4.98,1.39-4.51,5.48,4.19-2.48,6.45-6.35,10.77-6.26,1.14.31-.51,1.83-.84,2.58,4.18-2.48,8.32-1.32,12-4.22.02.37-.37.85-.74,1.22.74-.27,1.79.21,1.59-1.55l-.7.62c-1.37-2.35,2.64-6,2.68-7.41-.94,5.37,3.86.53,2.25,7.4.47-.44,1.04-1.41.85-2.58.76.21,1.04.85.38,2.36,2.63-1.51,1.55-3.22,4-3.67.05.86-.42,1.3-.61,2.36,1.13-1.94,2.26-3.88,4.37-3.55-.09.55.2,1.17-.42,1.28,3.53-.98,5.75-5.7,9.75-4.86-.9,3.97,1.41.96,1.82,4.17l2.03-1.39-.94-1.41c1.83-.31,3.3-3.01,4.95-2.26l-1.28,1.61,3.39-1.31-2.02-.84c1.74-2.05-.47-4.07,2.03-3.66-.47.42,1.84-.32,2.91,1.39h0c.84-1.21,1.7-2.49,3.11-1.96.42.97-.05,3.65.23,4.29.71-2.9,4.24-1.62,5.18-4.74-.33.75-.24,2.46-.09,2.79l.61-2.36c.9.53,1.04.85.99,2.24,2.58-.12-1.08-3.96,2.06-2.79-.23.23-.09.53-.57.97,3.1.31,5.79-2.58,8.66-2.07,1.04,3.1-2.39,1.29-1.27,3.86,3.99-1.41,8.09-5.59,12.04-5.61l-.75-.22c.24-4.73,3.06,1.69,4.88-.88-.46.44-.46,2.69-.37,2.14,2.72.2,5.39-2.24,9.34-4.51l-.42,1.28c1.64.74,4.18-.22,5.92-.03.43-1.28,1.41-1.29.71-2.89,5.69,5.69,9.77-5.64,14.79-.94-.56.11-1.26,1.31-.82,1.22l3.89-1.89c-.45-1.95-.6-1.11-1.54-2.5.42-1.3,1.48-2.44,2.46-2.64-1.69,1.69.23,3.22,1.07,4.18-.17-.59.05-1.32-.06-1.93,2.31,3.16.08-4.12,3.07-2.28l-.08,1.09c1.02-.75,1.91-2.34,3.07-2.27.62,2.24-1.05,1.32-1,3.23,1.59-.46,2.87-5.04,4.47-3.02-.64.78-1.62.99-2.25,1.78,1.76,2.41,1.9,1.69,3.1,1.88l-.12-.04,2.79.7-.74-.6c1.61-6.46,4.01-1.93,6.45-6.45-2.38,4.29-.29,2.27-.32,4.93.74.6,1.84,1.2,1.59,2,1.14-2.39,2.24,1.24,3.84-2.22.14.83,1.37-.2,1.22,1.99,1.62-1.01-.49-1.39-.42-2.5,2.37-3.42,6.24,2.3,9.66-2.41,3.07-2.28,3.47-5.25,6.32-7.27,1.08,1.15-.61,3.25-.61,3.25,1.68.92,2.88.45,4.32-.82-.26.8.1,1.36.62,2.22,1.2-.46.61-3.25,2.29-2.33-.21,1.01-.47,2.58-.99,3.65,1.38-1.07,2.68-2.93,4.11-4,.49,1.39-.75,2.42-1.2,3.49,1.62-1,4.22-2.2,4.58-4.65l-1.12-.61c.6-.23.44,1.95.02,2.47-1.31,2.13-2.11-.4-2.24-1.23l1.02-.75c-1.41-4.75-4.18,1.65-6.32,1.79l.65-3.8-1.98,3.45c-.52-.84-.98-2.8.04-3.55-1.64-1.47-1.26,1.56-2.7-.17-.17-.28-.11-.48.01-.64l-1.41,1.37c.24-.83-.41-2.51.53-2.16-2.8-1.55-4.12,3.58-5.31,1.04l.21-.28c-3.62,1.97-.18,2.73-2.75,6.4l-2.3-6.17-.19,2.73c-.39-.01-1.15-.06-1.08-1.15-1.3,2.11.32,1.1-.39,2.99-1.99-2.05-4.99,2.16-5.68-2-.53,2.16,1.86,1.21,0,3-.86-4.44-2.22,1.24-4.03-.51.36-2.45,2.03-1.53.22-3.29-.75,4.18-3.32-.22-4.69.84.14,3.17-2.99,1.94-5.3,3.46.08-1.09-4.58-.83-6.87-1.54l.03-.55c-.22,3.28-2.54,3.14-4.15,4.13-.06-1.93.19-2.74,1.03-3.78l-1.56.31c-.3,1.12-.75,1.75-1.74,2.32l.24-2.47c-2.07.56-4,3.65-6.77,2.59,0,2.25,2.53,5.77-.19,7.83-.19-1.18-.42-3.23.28-3.87-.23.2-.8,1.17-1.32.76l1-2.25c-1.28-.64-.52,1.82-1.51,1.83-.09-1.72-.8-1.08-.75-2.48.24-.22.9.53,1.23-.22-1.12-.09-2.51-.85-3.04-2.05.16.96.15,2.32-.64,2.69-2.07.54-.85-1.93-2.12-2.56-.43,1.3-1.83.32-1.7,2.89-.61.12-.8-1.07-1.08-1.71-1,1.35-5,1.33-3.61,3.82l.29.13c-.05.06-.11.08-.17.14-3.36,3.26-7.41.02-10.84,1.83l-.06-.86c-2.02,1.4-4.6,1.52-5.97,3.66-.62.12-1.56-1.27-1.36-2.35-1.55.97-1.67,1.97-4.06,1.02,1.5-1.83-.64-1.22,1.57-1.44-2.12-.32-2.68-1.6-4.75,1.19.61-2.35-1.74-2.46-2.68-1.6l1.56,1.29c-1.09.55-2.07.54-3.06.55l.34-3.01c-4.47-2.66-7.26,7.52-10.87,2.28-.99,2.25,2.4.96,1.55,3.53-1.98,0-4.28-3.74-4.89-3.63-2.78-1.06-2.22,4.74-5.08,4.2.43.96.94,3.65-1.08,5.04-1.98,0-2.68-3.84-1.5-4.92.46-.19.71.11.71.45.61-.51,1.4-1.11.56-2.07l-.18,1.08c-1.04-.86-3.71-.2-3.2-2.03-1.41,1.28-.52,1.81.61,2.13-2.6-.98-3.92.74-6.56.26.45.49.9,1.62.49,1.69-3.86-.51-1.54,2.3-4.07,3.26-1.56-1.29.27-3.86-2.22-2.02-1.64-.74-.51-2.68.06-3.63-2.22,2.47-4.47-.42-5.84-.52l1.18-1.08c-.71.64-1.31.75-1.93.87l.84,1.93c-.75-.21-1.36-.1-1.41-.96-.66,1.5.8,3.32-.57,5.46-1.04-.85-2.88,1.71-3.39-.95,3.11.32-.51-2.68,2.03-3.64-.47.42-1.08.53-1.84.32-.13-.28.06-.59.25-.78-3.08-1.87-1.14,3.37-4.16,3.92.28-1.63-.89-2.79-1.36-2.35,1.22-.21.75,2.46-.29,3.87-2.01-.81-2.05,1.31-3.07,1.38l1.2.33c-.29,1.61-1.27,1.61-2.59,2.37-.2-1.17,1.17-1.08.65-1.5-1.32,3.02-3.57-2.13-5.54.12-1.04-.85-.28-2.88-1.18-3.41-2.21,2.48-2.68-1.61-5.03.55.85,1.93.94,1.4-.66,3.77l3.95-2.27-2.4,3.55c1.23-.22,2.49-1.82,3.25-1.62-1.13,1.94-1.03,1.41-.33,3.01-1.87-2.78-3.2,2.48-5.26.77l-.28-5.15c-3.06-1.7-4.99,3.68-8.85,3.15l1.27.65c-.37,2.14-2.31.76-3.48,1.84,0-1.74-.8-2.22-1.39-3.17.15,1.26-2.77.43-2.89,3.94l-1.83-1.92c-3.11-.31-3.15,5.59-6.12,5.6.76-2.05-.65-2.99,1.22-4.72-.98.18-1.88.04-1.82,1.24-.64-.96-2.56,2.86-3.57,1.4-.36.83-.38,2.66-1.49,2.74-.14-.33-.05-.84-.05-.84.05.84-1.64,1.5-.56,3.21-3.37-4.75-8.39,2.08-11.32-1.99-2.1,1.01-4.63,2.08-6.56,2.6.09-.55-.05-.86.33-.75-2.78-1.06-1.32,5.26-4.48,4.09-1.74-2.46,1.52-1.83.48-2.68-.79-5.56-3.62,1.51-5.88-1.38l.47-.44c-1.69-1.6-3.67,2.92-6.26,3.02,0,0,.09-.53-.04-.86-1.56,3.24-4.81,4.85-7.21,6.15.62-2.36,1.04-1.39.43-3.55-1.08.54.56,3.54-1.6,4.61-.79-1.07-2.45-1.81-2.82-4.16l2.06-.54c-1.27-2.89-2.68.65-3.81.33l.05-1.38c-3.15,1.09-2.97,4.5-6.4,4.94l.42.96c-1.65,3.77-1.69-1.59-3.39,1.3l-.79-3.32c-1.18,1.08-4.1,4.18-6.27,5.27,1.09-2.8,3.59-4.62,5.09-6.45-1.23.22-4.13,1.08-4.66,2.91.47-.44,1.03-1.39,1.55-.97-1.32,3-3.21,4.72-5.65,5.16,0-6.75-6.45-.39-8.56-5.21-4.14,3.34-8.61.68-13.6,2.07,2.12,4.81-1.46.45-.8,5.69-1.15.57-1.6.57-1.72.25l-3.75-2.46c-.94-1.38,1.04-1.39.85-2.57-2.58.1-1.22-2.04-3.01-3.11.47,1.83-.71,2.91-2.22,2.47l2.21,2.04c-3.39,3.54-3.38-3.84-6.8-.31l1.03-1.9c-1.78,1.35-6.83,1.34-8.36,5.97-.37-.55-.89-1.92-.11-2.47-4.46.25-9.54,6.52-13.15,4.59l.25-1.37c-.8.55-1.28,2.73-2.39,1.63.02-.55.24-1.37-.14-1.37-.41.53-2.04,2.73-3.18,2.18l.84-1.65c-4.42-.83-6.38,4.89-9.94,6.51-.24-3.84-3.72-4.4-5.45-4.67l.02-.55c-5.05.54-8.32,4.89-12.87,7.33-3.16-3.58-9.89.22-14.68-1.16.75.55.08,3-.72,3.57-1.14-.56-2.83,3.26-2.89-.29l.39-.02c-1.05-3.29-3.22-1.92-4.98-1.66v4.65c-4.99-5.75-11.79,4.87-14.68-.61-1.03,1.37-2.39,1.63-3.41,3l-.1-2.48c-3.09-.01-4.64-.01-8.38,1.33l.66-1.92c-2.14.26-2.22,7.65-4.18,8.18l-.83-3.56c-3.71.81-7.68-1.67-11.14,2.42.02-.55.07-1.63.66-1.9-1.75.26-6.93-1.12-5.96,3.8-.26-3.27-3.85.45-5.76,2.3l.15-2.49c-1.49,3.44-1.49,4.29-3.79,5.63-.58-.21-.62-1.85.17-1.37-1.95-.9-1.31,2.59-3.65,1.75l.74-1.72c-1.93.2-1.72,1-2.66,3.02-1.14,1.21-3.68.12-4.11-2.02-.17,1.39-1.1,3.39-2.28,2.98-.2-.8.17-1.39.36-1.69-3.32-1.01-4.59,3.78-6.96,1.85-.1-.79-.27-1.17-.47-1.37,2.56-.45,4.62-.74,4.44-.52-.15-2.24-2.24-2.21-.8-5.62-1.54,2.02-4.13,6.24-6.21,5.6-.11-.2-.22-.39-.32-.71l.19-.29c-.48-.14-.88.18-1.25.62-.66-.24-1.09-.43-1.71-.34-.36-1.81-2.43-.52-3.46-.41.25,2.42-1.13,2.31.27,4.07-.18-.14.17-.33.85-.58.15-.11.33-.17.42-.35-.02.07-.03.15-.05.23.67-.21,1.55-.44,2.54-.68-.73,1.41-1.51,2.62-2.73,1.5-.43,1.67-.9,3.41-1.18,4.23-1.63-3.12-4.46-4.42-4.98-6.44-3.05,2-7.34,2.4-9.01,7.38-.85.76-1.11-1.11-1.49-1.77.48-.56,1.1-.61,1.34-1.33-1.71,1.54-5.25,1.53-5.47,4.82-2.34-.99,1.07-3.22-1.98-2.06l.35-1.07c-6.42-3.9-9.35,10.18-16.52,4.96.49.31.74.44.87.97-7.87-1.35-15.66,5.92-23.54,2.83-2.22-.49-2.31,1.6-3.53,3.43l-.64-2.53-2.05,3.49c-3.04,2.87-5.95-5.33-9.71-.33l.64,1.66c-1.47-.04-4.52,1.97-4.42-.12-.13.35-.35,1.94-.98,1.13l-.13-1.37-3.41,3.08c-2.83-.44.07-5.55-3.97-5-1.46.87-4.01,4.9-3.38,5.7.61-.06,1.6.55,1.74,1.92l-1.32,1c.02,4.1-.76,8.46,2.79,10.62l2.18-2.94.89,1.81-1.96.52c1.24,1.63,1.84-.15,2.56-1.43.26,1.01.64,1.68,1.12,1.97l2.05-4.33c.38,1.52-.83,3.35.78,3.92.96-2.01-1.27-3.35.44-4.88,1.24,1.61,1.02,3.18,2.23,1.34.25,1.01.02,1.72-.47,2.29,1.09-1.48,3.07-1.15,3.53-3.43,1.32,2.04,3.92-1.4,4.05,2.46.31-.99,1.87-3.42,2.93-3.81-1.66,4.98,4.05-.54,3.85,4.48,1.19-4.42,5.14-2.89,7.56-5.71-.12.35-.36,1.08-.6.92,1.47.04,1.98,1.2,2.96,1.8-.04-3.44,2.17-4.68,3.25-7.03,1.99,2.93-.81,4.22-.05,7.27-.27-2.74,2.91-3.38,2.15-5.56,1.49,1.77,1.23.75,2.12,3.43-.04-4.31,1.22-.98,2.17-3.83,2.1,1.71.77,3.89,2.85,2.16,1.11,1.1-.71,3-.71,3h-.02ZM100.07,165.71v.05c-.43.15-.81.27-1.05.35.22-.08.52-.18,1.05-.4ZM104.38,164.8c-.53.01-1.19.13-1.88.29-.21-.81-.1-1.72.34-1.76-.2.61.85.9,1.54,1.48ZM94.14,149.7c.66-.49.92-.05,1.05.43-.32.11-.69.26-1.17.53-.01.1-.05.21-.06.32.03-.47.08-.93.19-1.28Z"></path>
  </g>
  <g id="mask-text">
    <path class="cls-6 TdDHSGyx_1" d="M41.49,150.46c-2.82.49-4.19.25-4.12-.7.09-1.27.45-3.06,1.08-5.36.61-2.38,1.52-5.28,2.74-8.7,1.04-3.08,2.13-6.05,3.29-8.91,1.22-2.95,2.45-5.79,3.71-8.52,3.65-7.92,6.5-14.13,8.55-18.64,2.05-4.51,3.29-7.31,3.73-8.4,4.43-10.25,6.39-16.86,5.88-19.83-.17-.99-.62-1.58-1.36-1.76-2.21-.56-4.65-.61-7.32-.15-5.94,1.02-14.41,5.11-25.41,12.25-3.46,2.24-6.61,4.67-9.45,7.27-2.84,2.61-5.43,5.36-7.75,8.27-5.06,6.59-7.19,12.21-6.39,16.86.33,1.9,1.12,3.57,2.39,5,1.33,1.34,3.78,1.9,7.34,1.68,2.96-.12,4.33.12,4.12.7-.51,1.58-2.37,2.64-5.57,3.19-2.74.47-5.6.02-8.58-1.35-2.38-1.08-3.85-3.22-4.4-6.42-.76-4.42.1-8.96,2.59-13.62,2.03-3.72,5.36-7.82,9.99-12.3,5.36-5.31,11.09-9.59,17.19-12.84,11.83-6.43,20.41-10.1,25.74-11.02,6.32-1.09,10.63.25,12.92,4.01.99,1.63-2.18,10.57-9.5,26.8-4.71,10.45-8.63,19.56-11.76,27.31-3.07,7.66-5.39,14.02-6.95,19.07l.04.23c.07.38.42.83,1.06,1.35.64.52.99.97,1.06,1.35.11,1.55-1.51,2.61-4.86,3.19ZM113.5,150.06c-.99.17-2.07.04-3.24-.38-4.79-1.84-13.66-8.08-26.62-18.7-13.73-11.43-20.97-19.36-21.73-23.78-.14-.84-.09-1.44.16-1.79.67-1.13,2.18-2.84,4.53-5.13,2.34-2.36,5.52-5.3,9.54-8.81,3.32-3,6.67-5.89,10.03-8.67,3.35-2.85,6.72-5.59,10.11-8.21,9.46-7.43,17.45-11.82,23.96-13.18l.46-.08c1.75-.3,2.71.04,2.88,1.03.13.76-.41,1.29-1.61,1.57-14.01,4.69-32.06,18.26-54.14,40.72-.22.12-.28.4-.21.86.33,1.9,3.11,5.54,8.35,10.91,2.66,2.68,5.39,5.34,8.2,8,2.87,2.56,5.85,5.07,8.94,7.52,11.06,8.68,18.68,12.66,22.87,11.94.91-.16,1.78-.58,2.6-1.27.82-.69,1.31-1.05,1.46-1.07l.46-.08c.68-.12,1.07.05,1.15.51.2,1.14-.74,2.56-2.8,4.24-.88.78-1.81,1.57-2.77,2.36-.87.86-1.73,1.36-2.56,1.5ZM112.95,135.34c-5.56.96-8.93-1.99-10.11-8.84-1.18-6.85.43-13.87,4.84-21.06.06-.09-.02-.35-.25-.78-.24-.51-.39-.88-.42-1.1-.08-.46.01-.83.28-1.11,2.3-2.59,5.24-4.19,8.82-4.81.99-.17,1.82-.12,2.5.16.81.17,1.59.35,2.33.54.74.19,1.44.42,2.12.69,3.19,1.25,5.53,2.73,7,4.44,1.89-.4,3.48-.76,4.76-1.05,1.28-.3,2.26-.55,2.93-.74l.46-.08c.68-.12,1.07.09,1.17.62.03.15-.11.29-.4.42-.81.3-1.88.68-3.21,1.14-1.25.45-2.82.96-4.68,1.51.32.49.54,1.08.66,1.77.09.53.12.92.08,1.16-.08,6.36-2.16,12.29-6.23,17.77-3.92,5.46-8.13,8.57-12.62,9.35ZM127.3,103.94c-1.55-1.69-4.11-2.23-7.69-1.62-2.74.47-4.48,1.08-5.21,1.84-.21.12-.42.31-.61.57-.19.27-.41.58-.66.94,4.36-.2,9.08-.78,14.17-1.73ZM112.98,133.45c3.35-.58,6.78-3.64,10.3-9.18,3.59-5.56,5.42-10.65,5.48-15.29.01-.39,0-.71-.04-.93.02-.32.02-.59-.02-.82-.08-.46-.23-.9-.46-1.33-1.43.33-2.91.62-4.44.88-1.52.26-3.05.53-4.57.79-1.52.26-2.93.5-4.23.73-1.22.21-2.33.36-3.33.46-2.34,4.64-3.67,8.28-4,10.92-.43,2.97-.42,5.76.03,8.35.71,4.11,2.47,5.92,5.29,5.44ZM141.58,133.94c-.3.05-.48-.03-.52-.26-.17-.99,2.1-3.26,6.82-6.82,1.19-.83,2.26-1.64,3.23-2.44.95-.87,1.76-1.64,2.43-2.3,4.06-4.23,5.87-7.6,5.43-10.11-.33-1.9-2.36-2.53-6.09-1.89-8.71,1.34-13.37.18-14-3.47-.28-1.6.15-3.24,1.27-4.92,1.28-2.1,3.65-4.31,7.09-6.63,3.72-2.52,7.26-4.07,10.61-4.65,2.97-.51,5.34-.18,7.11,1.01.8.57,1.29,1.35,1.46,2.33.18,1.07,0,2.08-.54,3.03-.54.95-1.23,1.5-2.07,1.65-1.52.26-2.54-.62-3.04-2.65-.25-1.45-.62-2.25-1.12-2.4-.5-.15-1.73-.05-3.71.29-2.51.43-5.18,1.75-8.02,3.97-3.4,2.55-4.76,5.13-4.07,7.76.41,1.5,3.44,1.76,9.07.79,7.69-1.32,11.86-.12,12.5,3.61.69,4.04-1.92,8.64-7.85,13.82-3.74,3.31-8.45,6.47-14.12,9.49-.79.45-1.41.71-1.86.79ZM185.11,122.91c-5.56.96-8.93-1.99-10.11-8.84-1.18-6.85.43-13.87,4.84-21.06.06-.09-.02-.35-.25-.78-.24-.51-.39-.87-.43-1.1-.08-.46.01-.83.28-1.11,2.3-2.59,5.24-4.19,8.81-4.81.99-.17,1.82-.12,2.5.16.81.17,1.59.35,2.33.54.74.19,1.44.42,2.12.69,3.19,1.25,5.53,2.73,7,4.44,1.89-.4,3.48-.75,4.76-1.05,1.28-.3,2.26-.55,2.93-.74l.46-.08c.69-.12,1.07.09,1.17.62.03.15-.11.29-.4.42-.81.3-1.88.68-3.21,1.14-1.26.45-2.81.96-4.68,1.51.32.49.54,1.08.66,1.77.09.53.12.92.08,1.16-.08,6.36-2.16,12.29-6.23,17.77-3.92,5.46-8.13,8.57-12.62,9.35ZM199.46,91.51c-1.55-1.69-4.11-2.23-7.69-1.62-2.74.47-4.48,1.08-5.21,1.84-.21.12-.42.31-.61.58-.19.27-.41.58-.66.94,4.36-.2,9.08-.78,14.17-1.73ZM185.14,121.03c3.35-.58,6.78-3.64,10.3-9.18,3.59-5.56,5.42-10.65,5.48-15.29.01-.39,0-.71-.04-.93.02-.32.02-.59-.02-.82-.08-.46-.23-.9-.46-1.33-1.43.33-2.91.62-4.44.88-1.52.26-3.04.52-4.57.79s-2.93.51-4.23.73c-1.22.21-2.33.36-3.33.46-2.34,4.64-3.67,8.27-4,10.92-.43,2.97-.42,5.76.03,8.34.71,4.11,2.47,5.93,5.29,5.44ZM238.96,113.64c-1.45.25-2.88.1-4.31-.43-1.34-.47-2.27-1.1-2.79-1.87-.33-.57-.59-1.35-.76-2.34-.22-1.29-.33-2.81-.31-4.53,0-1.8.14-3.75.41-5.83-.36,1.08-.93,2.35-1.7,3.82-.69,1.45-1.57,3.17-2.64,5.16-3.27,5.58-6.2,8.6-8.79,9.04-.38.07-.69.08-.93.04-4.75-.28-7.48-2.48-8.19-6.59-.56-3.27.28-7.73,2.52-13.37,1.44-3.46,3.93-6.99,7.47-10.58,4.52-4.7,9.11-7.45,13.75-8.25,1.75-.3,3.43-.32,5.05-.05l2.37-6.76c1.21-3.42,2.18-6.49,2.88-9.2.79-2.72,1.4-5.06,1.85-7.02.37-1.48,2.39-2.53,6.04-3.16,1.68-.29,2.43-.22,2.27.2l-10.77,27.61c.38.4.55.92.5,1.56,0,.47-.18.58-.53.33l-.54-.38-1.05,2.77c-4.1,10.82-5.67,18.97-4.73,24.45.37,2.13,1.27,3.07,2.72,2.82,1.6-.28,3.83-1.91,6.68-4.91,3.92-4.12,7.38-9.31,10.38-15.55.64-1.29,1.3-1.99,1.99-2.11.23-.04.36.02.38.17.07.38-.15,1.16-.65,2.35-2.41,5.59-5.46,10.66-9.14,15.22-2.92,3.56-5.28,5.77-7.09,6.63-.72.36-1.5.61-2.34.76ZM216.83,114.87c1.96.45,5.26-3.61,9.9-12.17,1.79-3.29,3.32-6.22,4.6-8.79,1.27-2.65,2.28-4.98,3.03-6.99.2-.66.51-1.58.94-2.75.49-1.26,1.1-2.74,1.82-4.43-.24-.04-.51-.03-.82.02-.23.04-.46.08-.68.12-3.12.54-6.27,2.29-9.44,5.27-3.18,2.9-5.99,6.64-8.42,11.21-1.72,3.2-2.88,6.06-3.46,8.59-.51,2.52-.61,4.65-.31,6.4.35,2.06,1.3,3.23,2.84,3.51ZM281.33,106.35c-1.52.26-3.02.01-4.48-.76-1.39-.78-2.28-1.61-2.66-2.48-.41-1.03.34-5.08,2.26-12.15l-1.98,4.22c-.85,1.87-1.74,3.55-2.66,5.04-.92,1.49-1.79,2.82-2.61,3.98-2.42,3.24-4.66,4.8-6.72,4.68-4.75-.28-7.48-2.47-8.19-6.59-.56-3.27.28-7.73,2.52-13.37.73-1.69,1.72-3.43,2.98-5.22,1.26-1.79,2.76-3.57,4.49-5.36,4.46-4.61,9.05-7.32,13.77-8.13,2.89-.5,5.77-.21,8.62.87.94.47,1.47,1.04,1.59,1.73.09.53-.01.83-.32.88-.08.01-.16-.01-.25-.07-1.9-1.48-4.18-1.98-6.85-1.53-3.12.54-6.31,2.3-9.55,5.29-3.25,2.99-5.98,6.71-8.19,11.17-3.13,6.42-4.39,11.42-3.77,15,.35,2.06,1.3,3.22,2.84,3.51,1.96.45,5.26-3.61,9.9-12.17,1.92-3.39,3.48-6.4,4.68-9.04,1.27-2.65,2.25-4.9,2.96-6.74.31-.92,1.08-1.48,2.3-1.69,2.28-.39,3.54.1,3.78,1.47.04.23.03.39-.03.48-4.82,11.65-6.9,19.34-6.26,23.07.16.91.51,1.36,1.05,1.35,1.68.18,4.14-1.46,7.39-4.92,3.92-4.12,7.38-9.31,10.38-15.54.64-1.29,1.3-1.99,1.99-2.11.23-.04.35.02.38.17.07.38-.15,1.16-.65,2.35-1.17,2.79-2.55,5.46-4.15,8-1.52,2.54-3.3,4.96-5.33,7.27-2.86,3.39-5.3,5.62-7.32,6.67-.49.32-1.12.55-1.88.68ZM305.81,102.84c-6.09-.29-9.48-2.44-10.17-6.48-.2-1.14-.24-2.51-.12-4.1.11-1.67.41-3.52.92-5.57l5.95-23.49c-1.12.35-2.35.72-3.69,1.11-1.34.39-2.84.8-4.49,1.24-.3.05-.5-.19-.59-.72-.18-1.07-.1-1.71.26-1.93l9.36-3.02,4.83-16.35c.45-1.49,2.46-2.54,6.04-3.16,1.68-.29,2.43-.22,2.27.2-1.22,2.95-2.46,5.95-3.74,8.99-1.22,2.95-2.43,5.91-3.65,8.86.22-.12.7-.28,1.45-.48.75-.21,1.72-.45,2.93-.74.9-.23,1.77-.42,2.61-.57.82-.22,1.62-.4,2.38-.53,3.2-.55,4.75-.66,4.65-.33-.44.62-5.44,2.54-15,5.76-5.6,17.11-7.84,28.91-6.73,35.38.41,2.36,1.33,3.65,2.78,3.87,1.12.12,3.58-1.75,7.38-5.62,2.2-2.26,4.14-4.63,5.83-7.12,1.68-2.56,3.14-5.21,4.4-7.93.4-.85.83-1.32,1.29-1.4.3-.05.48.07.54.38.05.3-.06.79-.33,1.47-2.09,5.14-5.18,10.18-9.27,15.12-3.95,4.83-6.64,7.22-8.06,7.15ZM328.89,97.81c-2.21.38-4.24.18-6.1-.6-2.47-1.14-3.95-3.16-4.45-6.05-.54-3.12.14-7.16,2.03-12.11,2.57-6.48,6.94-12.52,13.11-18.13,1.55-1.44,3.21-2.32,4.96-2.62,2.28-.39,4.05.05,5.29,1.32.75.73,1.22,1.63,1.4,2.7.55,3.2-1.43,7.15-5.96,11.84-1.34,1.33-2.81,2.6-4.4,3.81-1.53,1.13-3.25,2.05-5.17,2.77l-4.74,1.87c-1.26,3.59-1.7,6.49-1.33,8.69.52,3.05,2.58,4.26,6.15,3.65,2.82-.49,6.04-2.26,9.67-5.31,4.87-4.05,8.77-9.19,11.69-15.42.45-1.02.94-1.57,1.48-1.67.23-.04.37.09.42.4.07.38-.1,1-.51,1.85-5.47,12.39-12.76,19.91-21.87,22.58-.29.13-.59.22-.89.27-.23.04-.5.09-.8.14ZM325.9,80.45c2.13-.37,4.71-1.79,7.73-4.27,4.26-3.48,6.98-7.47,8.17-11.99.35-1.16.46-2.08.35-2.76-.12-.69-.44-.98-.98-.89-.99.17-2.8,1.74-5.42,4.7-1.88,2.28-3.7,4.71-5.45,7.29-1.69,2.49-3.28,5.11-4.76,7.88-.06.09.06.11.36.06ZM400.16,96.94c-7.61,1.31-14.09-.12-19.44-4.3-4.9-3.86-7.95-9.29-9.16-16.3-.89-5.18-.6-10.56.87-16.14,2.66-10.02,7.35-19.49,14.04-28.41,6.77-8.93,15.73-16.78,26.87-23.56,5.32-3.27,10.6-5.35,15.86-6.26,5.18-.89,9.56-.51,13.13,1.15,3.57,1.58,5.66,4.2,6.29,7.85.32,1.83.34,3.82.09,5.98-.19,2.07-.97,4.36-2.35,6.87-3.23,6.28-7.36,11.66-12.39,16.13-2.61,2.17-5.11,3.78-7.52,4.82-2.33,1.03-4.6,1.73-6.81,2.11-5.41.93-8.97-1.12-10.7-6.15l-.08-.46c-.17-.99.32-1.58,1.46-1.78,1.07-.18,1.72.21,1.97,1.19,1.28,3.78,3.74,5.35,7.4,4.72,3.58-.62,7.42-2.92,11.51-6.92,2.16-2.02,4.07-4.15,5.72-6.39,1.64-2.32,3.11-4.73,4.4-7.23,2.73-5.57,3.8-10.02,3.22-13.37-.93-5.41-5.24-7.45-12.93-6.12-5.25.9-10.51,3.14-15.78,6.71-5.34,3.58-10.19,7.52-14.55,11.8-4.37,4.2-8.25,8.79-11.62,13.76-5.13,7.55-8.64,15.13-10.55,22.75-1.41,5.49-1.67,10.79-.79,15.89,1.01,5.86,3.34,10.28,6.99,13.26,4.27,3.42,9.8,4.55,16.57,3.38,1.45-.25,2.95-.62,4.51-1.13,1.57-.43,3.2-.98,4.89-1.66,6.96-2.85,14.89-8.25,23.79-16.21,6.94-6.13,11.91-11.18,14.91-15.15,2.04-2.7,3.48-4.13,4.32-4.27.15-.03.24.04.27.19.09.53-.28,1.34-1.11,2.43-3.17,3.92-5.96,7.3-8.37,10.14-2.41,2.85-4.42,5.07-6.02,6.68-3.87,3.96-7.78,7.41-11.74,10.37-3.88,2.94-7.79,5.53-11.71,7.78-5.43,3.05-10.59,5-15.46,5.84ZM482.87,71.65c-1.52.26-3.02,0-4.48-.76-1.39-.78-2.28-1.61-2.66-2.48-.41-1.03.34-5.08,2.26-12.15l-1.98,4.22c-.85,1.87-1.74,3.55-2.66,5.04-.92,1.49-1.79,2.82-2.61,3.98-2.42,3.24-4.66,4.8-6.72,4.68-4.75-.28-7.48-2.47-8.19-6.59-.56-3.27.28-7.73,2.52-13.37.73-1.69,1.72-3.43,2.98-5.22,1.26-1.79,2.76-3.57,4.49-5.36,4.46-4.61,9.05-7.32,13.77-8.13,2.89-.5,5.76-.21,8.62.87.94.46,1.47,1.04,1.59,1.73.09.53-.02.83-.32.88-.08.01-.16-.01-.25-.07-1.9-1.48-4.18-1.98-6.85-1.53-3.12.54-6.31,2.3-9.56,5.29-3.25,2.99-5.98,6.71-8.19,11.17-3.13,6.42-4.38,11.42-3.77,15,.35,2.06,1.3,3.23,2.84,3.51,1.96.45,5.26-3.61,9.9-12.17,1.93-3.39,3.48-6.4,4.68-9.04,1.27-2.65,2.25-4.9,2.96-6.74.31-.92,1.08-1.48,2.3-1.69,2.28-.39,3.54.1,3.78,1.47.04.23.03.39-.04.48-4.82,11.65-6.9,19.34-6.26,23.07.16.91.51,1.36,1.06,1.35,1.68.18,4.14-1.46,7.39-4.92,3.92-4.12,7.37-9.31,10.38-15.55.64-1.29,1.3-1.99,1.99-2.11.23-.04.36.02.38.17.07.38-.15,1.16-.65,2.35-1.17,2.79-2.55,5.46-4.15,8.01-1.52,2.54-3.3,4.96-5.33,7.27-2.86,3.39-5.3,5.62-7.32,6.67-.49.32-1.12.55-1.88.68ZM506.38,72.07c-3.27.56-5.26-1.17-5.95-5.21-.58-3.35-.33-8.06.74-14.12.17-1.28.67-3.64,1.49-7.08.81-3.51,1.89-8.13,3.26-13.85l-4.77,1.65c-.96.32-1.74.61-2.32.87-.6.18-1.05.26-1.37.24-.25-.11-.41-.32-.46-.63-.29-1.68-.1-2.65.56-2.92l9.36-3.02c.7-1.85,1.55-3.99,2.54-6.43.98-2.52,2.14-5.35,3.48-8.48,1.82-3.53,3.66-6.08,5.5-7.65.91-.63,2.03-1.21,3.34-1.75,1.38-.63,3.02-1.11,4.93-1.44,2.89-.5,5.03.31,6.41,2.42.42.63.7,1.33.83,2.09.26,1.52-.18,2.38-1.32,2.58-1.3.22-2.55-.7-3.77-2.76-.68-1.22-1.74-1.7-3.19-1.45-2.13.37-3.87,1.65-5.22,3.84-.44.62-.98,1.58-1.62,2.87-.57,1.27-1.31,2.89-2.22,4.85-.97,2.13-1.78,4.03-2.43,5.71-.59,1.59-1.06,2.97-1.41,4.12.21-.12.7-.28,1.45-.48.75-.21,1.72-.45,2.93-.74.9-.23,1.77-.42,2.61-.57.83-.22,1.62-.4,2.38-.53,3.2-.55,4.75-.66,4.65-.33-.64.82-5.66,2.89-15.04,6.23-1.65,4.52-3.31,10.6-4.97,18.26-2.15,9.39-2.91,15.91-2.28,19.56.25,1.45.79,2.29,1.61,2.54.92.31,1.38.51,1.39.58.09.53-.28.87-1.12,1.02ZM531.1,63c-2.21.38-4.24.18-6.1-.6-2.47-1.14-3.95-3.16-4.45-6.05-.54-3.12.14-7.16,2.03-12.11,2.57-6.48,6.94-12.52,13.11-18.13,1.55-1.44,3.21-2.32,4.96-2.62,2.28-.39,4.04.05,5.28,1.32.75.73,1.22,1.63,1.41,2.7.55,3.2-1.44,7.15-5.96,11.84-1.34,1.33-2.81,2.6-4.4,3.81-1.53,1.13-3.25,2.05-5.17,2.77l-4.73,1.87c-1.26,3.59-1.71,6.49-1.33,8.7.52,3.05,2.58,4.26,6.15,3.64,2.82-.48,6.04-2.26,9.67-5.31,4.87-4.05,8.77-9.19,11.69-15.42.45-1.02.94-1.57,1.48-1.67.23-.04.37.09.42.4.07.38-.1,1-.51,1.85-5.47,12.39-12.76,19.91-21.87,22.58-.29.13-.59.22-.89.27-.23.04-.49.09-.8.14ZM528.11,45.64c2.13-.37,4.71-1.79,7.73-4.27,4.26-3.48,6.98-7.47,8.17-11.99.35-1.16.47-2.08.35-2.76s-.44-.98-.98-.89c-.99.17-2.8,1.74-5.42,4.7-1.88,2.28-3.7,4.71-5.45,7.29-1.69,2.49-3.28,5.11-4.76,7.88-.06.09.06.11.36.06Z"></path>
  </g>
  <mask id="mask-ani">
    <path class="cls-3 TdDHSGyx_2" d="M18.38,123.48c-2.75.26-5.53.17-8.26-.26-.87-.14-1.79-.34-2.43-.95-.7-.67-.91-1.68-1.06-2.64-.49-3.07-.7-6.22-.11-9.27,1.04-5.38,4.48-10,8.37-13.86,3.13-3.1,6.61-5.83,10.08-8.55,6.08-4.77,12.17-9.55,18.67-13.73,2.23-1.43,4.54-2.8,7.09-3.49,1.99-.54,4.07-.64,6.13-.67,2.23-.04,4.45,0,6.68.13,1.32.07,2.8.25,3.64,1.27.84,1.03.72,2.52.48,3.83-1.58,8.93-5.98,17.06-10.01,25.19-3.56,7.17-6.87,14.45-9.94,21.84-3.34,8.05-6.44,16.51-6.06,25.22.02.55.1,1.18.56,1.49.49.34,1.45.59,1.12,1.09"></path>
    <path class="cls-3 TdDHSGyx_3" d="M122.29,62.64c-1.94.07-3.74.96-5.46,1.86-18.22,9.45-35.83,21.06-48.34,37.33-1.17,1.52-2.3,3.09-3.05,4.85-.22.52-.42,1.08-.33,1.64.08.52.39.97.69,1.4,4.48,6.37,9.68,12.22,15.48,17.42,8.71,7.8,18.67,14.06,28.71,20.05,1,.59,2.03,1.2,3.18,1.36,1.27.18,2.55-.19,3.74-.66,2.36-.94,4.55-2.31,6.43-4.03"></path>
    <path class="cls-1 TdDHSGyx_4" d="M108.38,109.33c-1.73,4.07-3.11,7.7-3.71,12.27-.4,3.03,1.12,5.99,2.13,8.87.31.89.64,1.81,1.29,2.49,1.05,1.09,2.71,1.32,4.22,1.32,1.31,0,2.64-.15,3.84-.67,1.74-.76,3.04-2.24,4.28-3.67,1.25-1.44,2.49-2.88,3.74-4.32,1.63-1.88,3.28-3.81,4.15-6.14.71-1.91.85-3.98.98-6.02.1-1.63.21-3.25.24-4.88.03-1.75-.06-3.61-1.05-5.05-1.33-1.94-2.85-2.96-5.15-3.45-.97-.2-1.67-.34-2.42-.29-4.13.24-7.52,1-9.47,2.62-1.65,1.37-3.23.66-2.07,4.39,4.66.73,9.54.07,14.12-1.1,4.13-1.05,8.92-2.65,13.05-3.71"></path>
    <path class="cls-4 TdDHSGyx_5" d="M163.73,96c1.05-2.03-.97-2.32-1.74-3.35-.52-.7-1.32-1.2-2.18-1.35-.75-.13-1.51.09-2.23.31-3.23.99-6.44,2.19-9.26,4.07s-5.23,4.49-6.38,7.67c-.45,1.23-.66,2.71.09,3.78.94,1.34,2.87,1.39,4.51,1.31,3.77-.18,7.54-.38,11.31-.55,1.8-.08,3.24.55,4.07,1.75.42.61.31,1.44.3,2.18-.05,2.96-1.32,5.15-3.22,7.42s-4.29,4.08-6.66,5.87c-3.88,2.93-7.77,5.86-11.65,8.8"></path>
    <path class="cls-1 TdDHSGyx_6" d="M180.89,96.94c-1.73,4.07-3.11,7.7-3.71,12.27-.4,3.03,1.12,5.99,2.13,8.87.31.89.64,1.81,1.29,2.49,1.05,1.09,2.71,1.32,4.22,1.32,1.31,0,2.64-.15,3.84-.67,1.74-.76,3.04-2.24,4.28-3.67,1.25-1.44,2.49-2.88,3.74-4.32,1.63-1.88,3.28-3.81,4.15-6.14.71-1.91.85-3.98.98-6.02.1-1.63.21-3.25.24-4.88.03-1.75-.06-3.61-1.05-5.05-1.33-1.94-2.85-2.96-5.15-3.45-.97-.2-1.67-.34-2.42-.29-4.13.24-7.52,1-9.47,2.62-1.65,1.37-3.23.66-2.07,4.39,4.66.73,9.54.07,14.12-1.1,4.13-1.05,8.92-2.65,13.05-3.71"></path>
    <path class="cls-4 TdDHSGyx_7" d="M233.87,78.46c-9.46,4.07-17.17,12.03-20.93,21.62-1.32,3.36-2.16,7.2-.78,10.54s5.72,5.59,8.78,3.67c1.1-.69,1.87-1.78,2.61-2.84,6.51-9.3,13.19-18.99,15.17-30.16.39-2.19.93-4.33,1.55-6.47.57-1.96,1.08-3.79,2.05-6.38,1.76-4.72,5.16-10.62,7.84-14.88-9.26,17.61-17.2,38.57-16.48,58.45,5.21,1.09,9.78-3.37,13.23-7.42,2.97-3.47,5.94-6.96,8.56-10.69,3.9-5.55,7.19-10.99,12.02-15.75s11.88-8.67,18.33-6.56c-6.89-1.09-14.48.35-19.76,4.9s-8.43,12.35-9.32,19.27c-.43,3.34-1.12,5.18.41,8.17,1.04,2.04,3.3,3.95,5.43,3.1.79-.32,1.4-.97,1.97-1.6,6.99-7.79,12.97-16.48,17.75-25.79-3.99,5.9-4.45,13.42-4.79,20.54-.05,1.17-.1,2.4.44,3.44,1.11,2.13,4.27,2.4,6.34,1.17s3.3-3.45,4.44-5.58c9.53-17.76,19.49-37.49,24.12-57.11-6.46,16.31-11.47,35.04-14.27,52.35-.33,2.04-.57,4.34.69,5.98,1.67,2.17,5.2,1.9,7.4.28s3.49-4.16,4.96-6.47c3.39-5.33,8.12-9.81,13.63-12.89,2.49-1.39,5.14-2.51,7.58-3.99,5.78-3.52,10.46-9.97,9.4-16.65-6.4.66-11.99,5.12-15.18,10.71-3.19,5.59-5.27,12.56-5.31,18.99,0,1.3,1.13,2.38,2.11,3.24.67.6,1.64.77,2.54.71,2.19-.14,5.65-.57,7.43-1.84,6.74-4.79,11.62-10.89,17.64-16.56"></path>
    <path class="cls-3 TdDHSGyx_8" d="M294.27,63.53c8.73-2.55,17.46-5.1,26.19-7.64"></path>
    <path class="cls-3 TdDHSGyx_9" d="M410.96,42.23c1.66,2.16,4.37,3.34,7.08,3.61s5.44-.28,8.05-1.05c4.04-1.2,8.04-3.03,10.85-6.17,2.23-2.49,3.58-5.62,4.89-8.7,2.07-4.86,4.16-9.82,4.6-15.09.2-2.45-.09-5.22-1.94-6.84-1.13-.99-2.65-1.39-4.13-1.64-9.81-1.68-19.99,1.59-28.26,7.11s-14.91,13.16-21.03,21.01c-4.92,6.31-9.62,12.88-12.85,20.19s-4.94,15.49-3.66,23.38c.56,3.45,1.74,6.9,4.03,9.54,3.15,3.63,8.09,5.32,12.89,5.43s9.52-1.19,14.07-2.73c14.35-4.84,28.06-12.25,38.59-23.13,1.34-1.39,2.65-2.85,3.48-4.6,1.06-2.24,1.38-4.98,3.26-6.59"></path>
    <path class="cls-1 TdDHSGyx_10" d="M487.97,37.41c-6.87-.71-13.92,1.79-19.16,6.3s-8.14,11.25-10.19,17.64c-.8,2.5-.82,5.34.26,7.74s3.89,4.17,6.37,3.3c.89-.31,1.81-.77,2.37-1.54,6.04-8.36,10.75-19.88,17.25-26.36-2.24,7.78-7.4,15.19-6.26,23.6.06.41.04,1.17.3,1.5.14.18.36.27.58.33,2.93.91,5.93-1.01,8.29-2.96,5.63-4.64,8.66-13.34,11.53-20.04"></path>
    <path class="cls-2 TdDHSGyx_11" d="M532.23,7.19c-.46-2.7-3.76-4.14-6.44-3.56s-4.82,2.55-6.73,4.52c-1.28,1.31-2.52,2.65-3.57,4.15-2.72,3.89-3.97,8.59-5.12,13.2-2.79,11.23-5.26,22.54-7.41,33.91-.43,2.28-.85,4.6-.62,6.91s1.2,4.65,3.07,6.03"></path>
    <path class="cls-1 TdDHSGyx_12" d="M497.76,32.58c8.88-3.61,18.05-6.51,27.39-8.65"></path>
    <path class="cls-1 TdDHSGyx_13" d="M530.62,47.06c3.69.66,8.38-5.22,11.26-8.32s4.75-7.42,3.94-11.58c-.05-.26-.11-.52-.27-.74-.2-.27-.52-.43-.83-.55-1.27-.5-1.66-.82-3.02-.7-.79.07-1.84.1-2.5.53-.6.4-2,1.98-2.51,2.5-5.85,5.96-9.23,11.74-11.67,17.93-1.45,3.69-2.56,8.34-1.61,12.18.13.53.31,1.06.69,1.45.54.54,1.37.67,2.13.7,2.49.1,4.96-.42,7.39-.97,2.45-.55,4.93-1.14,7.16-2.29,1.89-.97,3.55-2.32,5.21-3.66,1.43-1.16,2.87-2.32,4.01-3.76,1.2-1.51,2.04-3.26,2.87-5,.86-1.82,1.73-3.63,2.59-5.45"></path>
  </mask>
<style data-made-with="vivus-instant">#mask-text{mask:url(#mask-ani);}.TdDHSGyx_2{stroke-dasharray:186 188;stroke-dashoffset:187;animation:TdDHSGyx_draw 94ms linear 2987ms forwards;}.TdDHSGyx_3{stroke-dasharray:150 152;stroke-dashoffset:151;animation:TdDHSGyx_draw 76ms linear 3081ms forwards;}.TdDHSGyx_4{stroke-dasharray:121 123;stroke-dashoffset:122;animation:TdDHSGyx_draw 61ms linear 3157ms forwards;}.TdDHSGyx_5{stroke-dasharray:89 91;stroke-dashoffset:90;animation:TdDHSGyx_draw 45ms linear 3219ms forwards;}.TdDHSGyx_6{stroke-dasharray:121 123;stroke-dashoffset:122;animation:TdDHSGyx_draw 61ms linear 3264ms forwards;}.TdDHSGyx_7{stroke-dasharray:648 650;stroke-dashoffset:649;animation:TdDHSGyx_draw 327ms linear 3326ms forwards;}.TdDHSGyx_8{stroke-dasharray:28 30;stroke-dashoffset:29;animation:TdDHSGyx_draw 14ms linear 3653ms forwards;}.TdDHSGyx_9{stroke-dasharray:273 275;stroke-dashoffset:274;animation:TdDHSGyx_draw 138ms linear 3668ms forwards;}.TdDHSGyx_10{stroke-dasharray:151 153;stroke-dashoffset:152;animation:TdDHSGyx_draw 76ms linear 3806ms forwards;}.TdDHSGyx_11{stroke-dasharray:85 87;stroke-dashoffset:86;animation:TdDHSGyx_draw 43ms linear 3882ms forwards;}.TdDHSGyx_12{stroke-dasharray:29 31;stroke-dashoffset:30;animation:TdDHSGyx_draw 15ms linear 3926ms forwards;}.TdDHSGyx_13{stroke-dasharray:115 117;stroke-dashoffset:116;animation:TdDHSGyx_draw 58ms linear 3941ms forwards;}@keyframes TdDHSGyx_draw{100%{stroke-dashoffset:0;}}@keyframes TdDHSGyx_fade{0%{stroke-opacity:1;}95.1219512195122%{stroke-opacity:1;}100%{stroke-opacity:0;}}#mask-line{animation:TdDHSGyx_line 200ms linear 4500ms both;}@keyframes TdDHSGyx_line{0%{clip-path: inset(0 100% 0 0);}100%{clip-path: inset(0 0 0 0);}}</style></svg>