<?xml version="1.0" encoding="UTF-8"?>
<svg id="_レイヤー_2" data-name="レイヤー_2" xmlns="http://www.w3.org/2000/svg" viewBox="0 0 225.24 296.56">
  <defs>
    <style>
      .cls-1 {
        fill: #352c27;
      }

      .cls-2 {
        fill: #362d28;
      }

      .cls-3 {
        fill: #372e29;
      }

      .cls-4 {
        fill: #faf9f9;
      }

      .cls-5 {
        fill: #302722;
      }

      .cls-6 {
        fill: #7fac3a;
      }

      .cls-7 {
        fill: #342b26;
      }

      .cls-8 {
        fill: #332a26;
      }

      .cls-9 {
        fill: #f9f8f8;
      }

      .cls-10 {
        fill: #7aa734;
      }

      .cls-11 {
        fill: #f7f7f7;
      }

      .cls-12 {
        fill: #372f2a;
      }

      .cls-13 {
        fill: #fdfdfd;
      }
    </style>
  </defs>
  <g id="_レイヤー_1-2" data-name="レイヤー_1">
    <g>
      <path class="cls-8" d="M68.36,283.13c-.65,0-.87-.13-.89-.82-.07-2.28-.1-2.28,2.2-2.29.31,0,.62,0,.92,0,.58,0,.79-.44.84-.86.06-.57-.43-.61-.85-.62-1.1,0-2.19-.03-3.29,0-.54.02-.69-.17-.71-.7-.09-2.35-.11-2.35,2.23-2.35,1.92,0,3.84,0,5.75,0,.96,0,1.74-.17,1.61-1.4-.05-.46.24-.48.58-.48.68,0,1.37.04,2.05,0,.8-.05,1.38-.04,1.27,1.07-.08.73.6.81,1.17.81,2.47,0,4.93.04,7.4-.02.78-.02.97.2.96.96-.04,2.09,0,2.09-2.07,2.09-.24,0-.48,0-.72,0-.24,0-.5,0-.6.29-.1.29.13.43.31.58.89.75,1.78,1.5,2.67,2.25.44.37.64.76-.09,1-2.5.83-3.12,2.6-2.83,5.07.21,1.76.05,3.56.03,5.34-.02,2.1-.56,2.8-2.62,3.09-1.42.2-2.86.18-4.3.26-.28.02-.58.01-.6-.37-.04-.68-.06-1.37-.07-2.05,0-.4.3-.38.59-.37.82.01,1.64.01,2.47.02.37,0,.71-.05.71-.53,0-.54-.42-.45-.73-.45-2.23,0-4.45,0-6.68,0-.9,0-1.32.45-1.35,1.31,0,.14,0,.27,0,.41q-.02,1.99-2.06,1.99-1.69,0-1.69-1.64c0-3.36.02-6.71-.02-10.07,0-.72.19-.92.91-.91,4.45.03,8.9.03,13.36,0,.46,0,1.29.27,1.3-.33,0-.75-.84-.72-1.46-.72-2.64,0-5.27,0-7.91,0M78.27,289.58c-1.27,0-2.53,0-3.8,0-.27,0-.59-.03-.57.39.01.35.29.33.52.33,2.46,0,4.93,0,7.39,0,.29,0,.62-.04.63-.37.02-.48-.41-.35-.68-.35-1.16-.01-2.33,0-3.49,0ZM80.08,279.9c.3-.02.77.16.83-.33.04-.37-.3-.64-.61-.75-1.3-.47-2.6-.45-3.88.08-.12.05-.24.14-.33.23-.16.17-.36.36-.23.62.1.2.32.22.53.22.61,0,1.23,0,1.84,0M78.02,287.24c1.26,0,2.53,0,3.79,0,.29,0,.63-.07.63-.38,0-.38-.38-.31-.64-.31-2.43,0-4.85,0-7.28,0-.26,0-.62-.04-.62.35,0,.4.37.33.62.33,1.16,0,2.32,0,3.48,0Z"/>
      <path class="cls-8" d="M62.43,276.85c-2.06,2.08-4.41,3.77-6.85,5.36-.11.07-.23.15-.35.21-.41.23-.78.51-.61,1.04.15.48.59.51,1.02.51,2.6,0,5.21.03,7.81-.02.75-.01,1.06,0,.99.95-.18,2.52.81,2.49-2.56,2.54-1.85.03-3.7-.02-5.55,0-1.75.03-1.94.25-1.94,1.98,0,1.1.01,2.19-.01,3.29-.04,1.95-.64,2.75-2.48,3.25-1.87.51-3.8.42-5.72.46-.5,0-.64-.26-.62-.72.02-.92,0-1.89.04-2.64.03-.62.04-.13,2.61-.17s2.22.17,2.26-2.23c0-.58.02-1.17,0-1.75-.04-1.04-.49-1.48-1.54-1.48-2.53-.01-5.07-.03-7.6.01-.72.01-.88.19-.8-1.12.16-2.7-.89-2.34,2.41-2.37,1.92-.02,3.84,0,5.75,0,1.37,0,1.78-.42,1.79-1.76,0-.21,0-.41,0-.62,0-1.99-.21-.96,1.21-1.42.21-.07.47-.08.69-.17.56-.22,1.21-.57,1.11-1.17-.1-.6-.84-.42-1.33-.42-2.71-.01-5.41-.02-8.12,0-.64,0-.89-.12-.89-.83,0-2.58-.04-2.58,2.52-2.58,4.01,0,8.02.15,12.02-.06,2-.11.9-.35,4.76,1.91Z"/>
      <path class="cls-7" d="M113.09,296.56c0-1.41.02-2.64-.01-3.87-.01-.53.35-.7.68-.93,2.11-1.5,3.44-3.49,3.87-6.06.3-1.75-.1-2.23-1.84-2.26-.81-.01-1.6-.06-2.24-.06-.79,0-.32-.14-.47-2.55-.06-.94-.14-1.27,1.29-1.18.68.04,1.37.03,2.05.01,1.06-.02,1.48-.44,1.5-1.5.05-1.83-.5-1.84,1.37-1.84.03,0,1.29.01,1.32.01,1.96,0,1.28,0,1.41,1.97.06.98.45,1.35,1.54,1.36,1.92.02,3.84.03,5.76,0,.68-.01.95.11.94.88-.04,3.39,0,6.78-.22,10.17-.05.83-.18,1.63-.43,2.42-.67,2.08-2.27,2.89-4.3,3.07-1.27.11-2.53-.04-3.77-.32-.49-.11-.69-.31-.67-.83.04-.82.04-1.65,0-2.47-.03-.62.19-.65.72-.5.92.26,1.88.36,2.85.27.92-.08,1.42-.56,1.5-1.5.16-1.81.26-3.62.18-5.44-.03-.7-.02-1.62-.81-1.84-.97-.26-2.07-.34-2.99.23-.49.31-.44.96-.52,1.5-.76,5.33-3.64,9.02-8.7,11.27Z"/>
      <path class="cls-7" d="M101.33,277.37c2.67,0,5.34.02,8.02-.01.66,0,.93.15.88.84-.06.89.25,1.94-.13,2.62-.37.67-1.55.4-2.36.64-2.6.79-4.82,2.14-6.4,4.38-1.88,2.67-.82,5.18,2.4,5.74,1.64.29,3.28.11,4.91-.06.64-.07.87.09.81.75-.05.65-.07,1.31,0,1.95.09.83-.18,1.16-1.03,1.17-2.33.05-4.65.17-6.95-.38-5.17-1.22-7.08-6.26-4-10.6.56-.79,1.2-1.49,1.92-2.14.27-.24.5-.53.39-.89-.12-.42-.53-.35-.87-.35-1.88,0-3.77-.02-5.65.01-.61.01-.87-.13-.82-.79.07-.91.09-1.95.18-2.68.04-.32,1.73-.18,2.64-.2,2.02-.03,4.04-.01,6.06-.01Z"/>
      <path class="cls-1" d="M147.69,277.31c.36.02.73.01,1.09-.04,1.65-.23,1.94-.09,1.93.89-.03,2.74.07,5.49-1,8.1-2.03,4.95-6.08,7.18-10.95,8.72-.82.26-3.05,1.03-3.04.35s.13-1.65.05-2.57c-.08-.86-.29-1,.48-1.11,1.74-.24,4.07-.87,5.6-1.78,2.81-1.67,4.19-4.25,4.53-7.48.08-.72-.49-1.36-1.22-1.36-3.35,0-6.69-.04-10.04.02-1.06.02-.86-.39-.88-1.72,0-.19-.02-.38-.02-.57.01-1.39.06-1.61,1.05-1.59,4.14.1,8.29-.09,12.43.13Z"/>
      <path class="cls-2" d="M56.49,265.67c0-1.35,0-2.4,0-3.44,0-.35.26-.55.46-.77.86-.97,1.74-1.94,2.6-2.91.32-.36.65-.71.78-1.19.55-2.03,0-2.5-1.62-2.4-.41.02-1.15-.02-1.56.04-.84.12-.73-.26-.7-1.04.04-.94-.32-1.1,1.06-1.1,2.87.01,3.01.02,2.99-2.87,0-.74.21-.91.92-.89,1.55.04,1.55,0,1.55,1.58,0,1.16,0,2.33,0,3.49,0,.32-.13.73.25.93.42.21.7-.13.99-.36,1.7-1.35,3.6-2.08,5.8-1.88,2.15.2,3.66,1.26,4.36,3.33.69,2.02.86,4.09.21,6.15-1.25,3.92-5.03,5.25-8.18,5.42-.36.02-.45-.11-.49-.46-.15-1.29-.01-1.47,1.3-1.73,4.66-.91,6.16-4.43,4.83-8.42-.59-1.77-2.09-2.54-3.91-2.11-2.03.49-3.49,1.83-4.77,3.38-.38.46-.41,1.07-.41,1.66.01,2.43-.02,4.86.02,7.29.01.71.17.9-.58.89-.24,0-1.16,0-1.4,0-.64-.02-.54-.13-.51-.82.05-1.44.04-2.88,0-4.31-.01-.56.3-1.41-.2-1.61-.56-.22-.83.65-1.2,1.06-.83.93-1.61,1.9-2.62,3.09Z"/>
      <path class="cls-1" d="M102.05,265.66c0-1.35,0-2.4,0-3.44,0-.35.25-.55.45-.77.93-1.05,1.83-2.14,2.82-3.13.63-.63.77-1.31.72-2.13-.05-.79-.47-1.19-1.23-1.22-.72-.03-1.44-.05-2.16,0-.76.05-.66-.48-.58-.87.09-.43-.47-1.21.55-1.22.79,0,1.57,0,2.36,0,.69,0,1.1-.31,1.05-1.07-.02-.34,0-.68,0-1.03,0-1.75,0-1.71,1.75-1.69.62,0,.73.24.71.78-.03,1.3-.01,2.6,0,3.9,0,.47-.1,1.02.44,1.27.47.22.73-.26,1.04-.49,1.9-1.42,4-2.08,6.37-1.59,2.29.47,3.64,2.13,4.03,4.85.82,5.66-2.33,9.53-8.06,9.89-.39.02-.95.18-.78-.51.14-.54-.63-1.46.62-1.58,1.64-.16,3.15-.69,4.33-1.88,1.79-1.8,2.11-5.31.71-7.44-.75-1.14-2.04-1.61-3.52-1.28-3.11.7-5.19,3.3-5.19,6.46,0,1.99-.03,3.97.02,5.96.02.68-.2.93-.86.84-.27-.04-.55-.04-.82,0-.65.09-.81-.19-.8-.81.04-1.75.02-3.49,0-5.24,0-.25.15-.6-.21-.71-.32-.1-.48.2-.65.4-.98,1.16-1.95,2.33-3.11,3.73Z"/>
      <path class="cls-1" d="M79.22,265.65c0-1.33.01-2.35,0-3.36,0-.39.24-.62.47-.87.96-1.07,1.89-2.17,2.89-3.2.68-.71.68-1.53.61-2.39-.04-.44-.34-.61-.74-.73-.71-.21-1.43-.16-2.14-.11-.81.06-1.1-.12-1.11-1.03-.01-.96.3-1.18,1.16-1.08.57.06,1.16,0,1.74.01.73.01,1.07-.38,1.1-1.06.02-.41-.01-.82.02-1.23.03-.47-.23-1.14.13-1.35.58-.34,1.33-.12,2.01-.11.43,0,.29.39.29.63.01,1.47,0,2.94.01,4.42,0,.39-.16.91.27,1.12.41.2.64-.3.92-.52,1.29-1.01,2.69-1.76,4.35-1.92,3.63-.34,5.83,1.4,6.34,5,.8,5.65-2.4,9.54-8.11,9.85-.36.02-.88.17-.73-.46.13-.55-.6-1.47.57-1.62,1.28-.16,2.49-.49,3.55-1.22,2.47-1.69,3.19-5.67,1.51-8.16-.76-1.13-2.06-1.6-3.53-1.22-1.91.49-3.35,1.68-4.52,3.21-.48.63-.64,1.42-.63,2.23.02,2.29-.02,4.59.02,6.88.01.69-.13,1.04-.89.92-.2-.03-.41-.03-.61,0-.75.12-1.02-.13-.99-.94.07-1.67.03-3.35.01-5.03,0-.29.17-.7-.17-.84-.41-.16-.55.31-.76.55-.96,1.12-1.89,2.25-3.04,3.63Z"/>
      <path class="cls-3" d="M161.43,295.37c-2.22,0-4.45-.02-6.67.01-.6,0-.83-.12-.84-.78-.04-2.46-.06-2.46,2.44-2.46q3.32,0,3.32-3.33c0-1.16.01-2.33,0-3.49-.02-1.27-.39-1.62-1.68-1.64-.99-.01-1.99-.02-2.98,0-.46.01-.65-.11-.68-.62-.17-2.6-.19-2.6,2.4-2.6,3.66,0,7.32.02,10.99-.02.73,0,.92.21.91.92-.01,2.31.01,2.31-2.28,2.31q-2.92,0-2.92,2.94c0,1.33-.02,2.67,0,4,.03,1.17.4,1.51,1.55,1.51,1.13,0,2.26.02,3.39,0,.5-.01.71.11.73.67.11,2.57.13,2.57-2.43,2.57-1.75,0-3.49,0-5.24,0Z"/>
      <path class="cls-3" d="M135.22,259.36c0,2.26,0,4.52-.01,6.78,0,.3.21.84-.25.86-.64.03-1.6.41-1.89-.21-.43-.92-.82-.55-1.32-.27-1.67.93-3.39,1.03-5.13.28-2.44-1.07-3.6-4.49-2.5-7.24,1.08-2.72,4.16-4.11,6.95-3.14,1.42.49,1.52.42,1.5-1.04-.02-1.06.01-2.12-.01-3.18-.01-.44.13-.57.58-.61,2.1-.16,2.1-.18,2.1,1.93,0,1.95,0,3.9,0,5.85ZM132.52,261.82c.01-.65-.08-1.43-.27-2.2-.18-.7-.55-1.23-1.27-1.48-1.72-.59-3.48.19-4.15,1.85-.79,1.95-.1,4.49,1.43,5.16.31.14.65.22.99.25,2.21.23,3.34-.98,3.27-3.58Z"/>
      <path class="cls-3" d="M144.78,262.29c-.86,0-1.71-.02-2.57,0-.83.02-1.06.44-.74,1.22.53,1.28,2.11,2.11,3.85,2,.79-.05,1.56-.2,2.28-.55.92-.46.9.48,1.18.85.44.57-.25.58-.5.69-2.42,1.02-4.87,1.15-7.21-.17-2.17-1.23-3.09-3.77-2.38-6.22.7-2.42,3.12-4.09,5.81-4.01,2.63.08,4.3,1.31,4.87,3.58.35,1.4-.45,2.52-1.92,2.6-.89.05-1.78,0-2.67,0h0ZM144.27,260.7s0,.01,0,.02c.58,0,1.16.01,1.74,0,1.06-.02,1.36-.55.88-1.53-.46-.93-1.5-1.44-2.76-1.35-1.2.09-2.45.92-2.73,1.86-.17.56-.01.97.63.99.75.03,1.5,0,2.25,0Z"/>
    </g>
    <g>
      <path class="cls-6" d="M12.75,40.6c.29.43.57.83.84,1.24,1.2,1.83,2.34,3.7,3.6,5.49.67.95-.25,1.16-.58,1.64-.32.46-.64.66-1.25.26-2.93-1.9-5.9-3.73-8.84-5.61-.23-.15-.97-.23-.47-.71.4-.37.55-1.47,1.54-.81,2.08,1.39,4.15,2.78,6.23,4.16.32.21.61.51,1.04.57.17-.46-.18-.67-.35-.94-1.37-2.13-2.73-4.27-4.13-6.37-.37-.56-.34-.88.12-1.38.5-.53.85-.45,1.39-.13,2.46,1.46,4.95,2.89,7.5,4.37.1-.49-.26-.72-.45-.98-1.47-2.02-2.96-4.02-4.44-6.04-.52-.71-.28-1.51.5-1.85.35-.15.42.12.54.29,2.11,2.99,4.22,5.98,6.34,8.97.18.25.21.43,0,.71-1.01,1.36-1.22,1.42-2.68.57-1.86-1.09-3.72-2.18-5.58-3.27-.22-.13-.4-.39-.87-.19Z"/>
      <path class="cls-6" d="M53.6,14.68c.29,1.67.58,3.33.88,5,.26,1.44.04,1.76-1.39,2.1-.52.13-.67-.23-.89-.51-1.55-1.91-3.1-3.83-4.63-5.77-.18-.23-.8-.58-.25-.84.49-.23,1.07-1.09,1.75-.16,1.09,1.49,2.21,2.96,3.32,4.44.13.18.29.34.61.44-.25-1.61-.5-3.21-.75-4.82-.05-.34-.07-.69-.17-1.01-.21-.66-.06-1.01.62-1.34.72-.35,1.03-.07,1.42.44,1.02,1.33,2.06,2.64,3.11,3.95.2.25.29.65.79.64-.37-1.99-.73-3.97-1.09-5.94-.13-.7.57-1.49,1.24-1.42.29.03.27.25.3.45.43,2.63.83,5.27,1.28,7.9.18,1.06-.81.8-1.25,1.15-.38.3-.74.33-1.11-.17-1.16-1.56-2.38-3.07-3.57-4.6-.08.02-.16.04-.24.07Z"/>
      <path class="cls-6" d="M37.65,27.86c-.73-1.84-1.46-3.69-2.18-5.53-.28-.7.2-1.52.93-1.65.32-.06.33.19.39.35.96,2.56,1.91,5.13,2.85,7.69.04.12.11.33.06.37-.51.4-1.01.82-1.57,1.14-.44.24-.65-.26-.91-.48-1.43-1.21-2.83-2.45-4.41-3.57.64,1.67,1.27,3.34,1.91,5.01.4,1.04-.1,2-1.16,2.26-.2.05-.33-.03-.46-.14-2.23-1.86-4.45-3.73-6.73-5.64.36-.26.66-.44.91-.66.45-.41.8-.3,1.22.09,1.43,1.32,2.9,2.6,4.36,3.9.1.07.26.2.28.19.14-.15.05-.29-.05-.42-.67-1.82-1.31-3.65-2.02-5.46-.24-.62-.08-.93.43-1.25.47-.3.8-.47,1.32,0,1.52,1.36,3.11,2.65,4.67,3.97.05.04.12.12.15.1.12-.06.09-.16.03-.25Z"/>
      <path class="cls-12" d="M78.88,8.26c0-2.74,2.19-4.54,4.73-3.92.74.18.84,0,.7-.66-.17-.83-.26-1.69-.46-2.52-.13-.55.05-.81.58-.75.43.04,1.09-.68,1.25.37.55,3.44,1.12,6.88,1.68,10.31.04.24.14.55-.21.56-.43.01-.97.45-1.29-.1-.25-.42-.4-.35-.68-.1-1.23,1.12-2.63,1.47-4.15.73-1.65-.81-1.99-2.4-2.16-3.93ZM85.07,8.64c-.05-.31-.13-.91-.25-1.51-.15-.8-.4-1.52-1.41-1.6-1.13-.09-1.93.31-2.34,1.24-.44,1.01-.28,2.01.11,2.98.43,1.06,1.33,1.52,2.38,1.28,1.1-.25,1.52-.83,1.51-2.38Z"/>
      <path class="cls-12" d="M145.02,16.59c0-3.15,2.74-5.43,5.39-4.48.59.21,1.1.54,1.5,1.03.39.47.66.37.88-.16.32-.79.7-1.56.97-2.37.23-.72.63-.57,1.08-.31.37.22,1.07.15.7,1-1.38,3.12-2.7,6.27-4.05,9.41-.1.23-.12.63-.51.48-.39-.15-1.09-.16-1.03-.65.11-1.02-.51-.55-.87-.5-2.18.28-4.06-1.31-4.05-3.45ZM151.5,15.32c.04-.66-.18-1.2-.78-1.54-.74-.42-1.49-.45-2.23,0-1.02.61-1.78,2.28-1.57,3.46.17.92.81,1.38,1.65,1.61.83.22,1.54-.06,1.96-.75.51-.84.91-1.75.97-2.77Z"/>
      <path class="cls-6" d="M116.48.68c-.95,1-1.85,2.03-2.84,2.96-.63.59-.76,1.07-.3,1.85,1.09,1.85,2.09,3.75,3.13,5.66-1.66.31-1.88.21-2.63-1.17-.58-1.08-1.19-2.16-1.74-3.26-.37-.74-.77-.65-1.38-.25-1.2.8-1.33,1.99-1.27,3.25.03.77-.2,1.07-1.05,1.02-.8-.05-.94-.29-.87-1.05.27-2.93.49-5.86.67-8.8.04-.72.25-.93.97-.88.73.05,1.05.24.94,1.03-.13.91-.16,1.84-.22,2.76-.02.29-.19.7.12.85.38.19.58-.25.81-.47.9-.84,1.84-1.65,2.66-2.57.86-.97,1.78-1.44,3.01-.93Z"/>
      <path class="cls-12" d="M65.15,7.46c1.27.04,2.11.68,2.62,1.74.88,1.82,1.29,3.81,1.99,5.69.1.26.08.51-.25.53-.4.03-.8.61-1.18.07-.35-.5-.58-.31-.85.04-.45.58-.99,1.03-1.68,1.31-1.19.47-2.35.18-3.03-.75-.77-1.05-.72-2.31.14-3.3.66-.76,1.52-1.26,2.38-1.75.4-.23,1.11-.3.82-1.04-.25-.64-.79-.93-1.48-.86-.82.09-1.49.52-2.02,1.11-.41.45-.67.6-1.2.08-.6-.59-.12-.81.2-1.12,1-.99,2.16-1.65,3.55-1.76ZM67.24,13.7c-.05-.98-.3-1.58-1.19-1.57-.87.01-2.1,1.27-2.06,2.1.04.76.42,1.21,1.22,1.19,1.01-.02,2.04-1.02,2.03-1.72Z"/>
      <path class="cls-12" d="M28.33,36.5c-.25.6-.43,1.2-.72,1.73-.79,1.41-2.34,1.95-3.55,1.28-1.36-.75-1.76-2.18-1.03-3.71.36-.75.85-1.4,1.38-2.03.28-.34.7-.7.37-1.14-.37-.49-.94-.67-1.56-.41-.89.38-1.37,1.13-1.68,1.97-.22.6-.45.66-1.03.45-.67-.24-.53-.57-.31-1,.2-.4.37-.81.61-1.18,1.67-2.62,3.88-2.82,5.94-.53,1.03,1.14,2.01,2.33,2.99,3.51.18.21.69.46.19.8-.35.23-.56,1.02-1.23.43-.09-.08-.23-.12-.35-.18ZM24.21,36.67c.03.95.84,1.57,1.6,1.29.81-.29,1.51-1.45,1.38-2.3-.14-.95-1.23-1.65-1.83-1.13-.66.57-1.06,1.32-1.16,2.14Z"/>
      <path class="cls-12" d="M43.72,16.89c.96.03,1.8.62,2.36,1.53.99,1.6,1.88,3.26,2.83,4.89.18.3.19.54-.15.64-.37.12-.71.77-1.13.25-.51-.62-.61-.18-.8.2-.34.69-.81,1.27-1.47,1.68-1.04.65-2.22.58-3.04-.18-.94-.86-1.16-2.06-.57-3.18.51-.96,1.33-1.64,2.13-2.34.32-.27.88-.47.57-1.04-.28-.52-.77-.77-1.38-.69-.97.14-1.64.77-2.05,1.56-.5.95-.94.38-1.43.09-.16-.1-.17-.23-.1-.43.42-1.29,2.68-2.97,4.24-2.98ZM46.19,22.55c-.09-.45-.19-1.11-.86-1.22-.9-.13-1.4.56-1.87,1.19-.42.56-.57,1.17-.13,1.79.3.42.69.62,1.23.47.92-.26,1.63-1.16,1.63-2.23Z"/>
      <path class="cls-12" d="M189.22,44.51c1.22.04,2.2.86,3.21,1.62.41.31.82.94,1.38.36.55-.56.33-1.21-.12-1.76-.48-.6-1.11-1.06-1.83-1.27-.72-.2-.43-.61-.35-1.02.14-.64.53-.37.85-.23,1.12.49,2.1,1.15,2.82,2.16.85,1.19.87,2.38-.07,3.49-1.15,1.37-2.62,2.4-3.9,3.63-.16.15-.37.27-.52.05-.23-.35-.88-.57-.64-1.05.32-.65-.11-.68-.48-.82-1.06-.4-1.96-.98-2.42-2.08-.62-1.48.36-3.05,2.06-3.09ZM189.68,46.02c-.51.03-.98.31-1.04,1-.06.77,1.11,1.87,2.02,1.86.72,0,1.26-.36,1.3-1.15.04-.75-1.17-1.69-2.28-1.71Z"/>
      <path class="cls-12" d="M156.54,19.35c.96.06,1.89.31,2.79.63.41.14.84.45,1.16-.12.27-.49.13-.95-.22-1.32-.65-.69-1.51-.87-2.42-.94-.28-.02-.63.12-.83-.23-.32-.59,0-1.15.68-1.12,1.25.06,2.43.37,3.46,1.11,1.13.81,1.53,1.94,1.04,3.25-.62,1.67-1.61,3.16-2.4,4.75-.09.18-.21.41-.46.22-.33-.25-.98-.23-.97-.77.02-.69-.41-.59-.81-.59-.84,0-1.63-.18-2.34-.63-1.01-.64-1.43-1.62-1.14-2.62.31-1.06,1.19-1.65,2.44-1.62ZM157.94,23.17c.9,0,1.54-.63,1.5-1.44-.03-.64-1.06-1.16-2.27-1.12-.77.03-1.35.35-1.38,1.2-.02.71,1.07,1.37,2.15,1.37Z"/>
      <path class="cls-12" d="M139.73,8.42c2.37.03,4.27,1.86,4.24,4.09-.03,2.41-1.9,4.34-4.16,4.3-2.37-.04-4.24-1.86-4.23-4.11.02-2.45,1.82-4.31,4.15-4.28ZM137.43,12.97c-.05,1.38.8,2.37,2.08,2.42,1.35.05,2.53-1.36,2.62-3.13.06-1.34-.83-2.37-2.09-2.41-1.37-.05-2.54,1.35-2.6,3.12Z"/>
      <path class="cls-12" d="M122.21,12.51c-2.38.01-4.28-1.78-4.28-4.07,0-2.46,1.78-4.33,4.14-4.32,2.38,0,4.25,1.83,4.23,4.12-.02,2.42-1.78,4.26-4.09,4.27ZM119.83,8.81c.08.8.29,1.65,1.23,2.07.81.37,1.6.31,2.31-.25.95-.76,1.33-2.68.78-3.87-.42-.91-1.37-1.39-2.36-1.2-1.09.21-1.87,1.37-1.96,2.92,0,.07,0,.14,0,.32Z"/>
      <path class="cls-12" d="M205.33,58.72c.03.53-.19,1.13-.57,1.68-.99,1.41-2.08,1.41-3.05-.02-.5-.73-.98-1.49-1.52-2.19-.59-.76-1.16-.65-1.49.24-.44,1.18.09,2.49,1.53,3.47.5.34.5.61.25,1.06-.16.3-.29.36-.63.21-1.66-.73-3-3.05-2.79-4.89.2-1.67,1.72-3.18,3.55-3.53,2.34-.45,4.72,1.46,4.73,3.95ZM203.96,58.45c.02-1.1-1.01-2.16-2.08-2.17-.31,0-.61,0-.8.32-.2.34-.13.64.09.94.33.47.65.95.98,1.43.27.39.55.9,1.1.7.52-.19.63-.75.71-1.22Z"/>
      <path class="cls-12" d="M172.37,25.03c2.42-.02,4.33,2.05,3.9,4.21-.3,1.53-1.63,2.08-2.93,1.2-.79-.54-1.55-1.12-2.34-1.66-.71-.48-1.02-.31-1.12.55-.16,1.43.76,2.59,2.59,3.06.6.15.67.39.6.91-.05.36-.19.43-.53.42-1.55-.07-3.54-1.58-4.12-3.16-.56-1.53-.03-3.35,1.33-4.53.75-.66,1.62-1.01,2.62-1ZM172.66,26.44c-.47.05-1.09.03-1.3.66-.21.63.44.76.78,1.03.47.39,1,.7,1.48,1.08.59.45.92.21,1.15-.38.43-1.12-.65-2.38-2.1-2.39Z"/>
      <path class="cls-12" d="M93.37,2.79c1.63,0,2.78.8,3.27,2.29.37,1.12-.14,2-1.32,2.15-.95.12-1.91.14-2.86.23-.4.04-.87,0-1.04.49-.17.51.18.86.51,1.15,1.11.95,2.36.86,3.55.24.62-.32.83-.09,1.12.35.19.28.08.39-.14.57-1.29,1.02-3.88,1.13-5.37.19-1.44-.91-2.15-2.81-1.71-4.6.46-1.86,2.03-3.06,3.98-3.06ZM91.69,6.35c1.08-.08,1.83-.12,2.58-.2.91-.1,1.1-.54.59-1.3-.43-.64-1.06-.82-1.79-.75-.81.08-1.41.48-1.76,1.21-.35.75-.13,1.06.38,1.04Z"/>
      <path class="cls-12" d="M197.67,49.83c-.21-.38-.76-.83.05-1.25.26-.14.45-.31.68,0,.42.6.82.34,1.29.01,1.81-1.27,3.43-.8,4.42,1.25.15.31.39.63-.17.79-.34.09-.7.52-.98-.15-.32-.75-.91-1.15-1.73-.68-1.05.61-1.28.97-.43,1.76.38.35.3.59-.1.88-.37.27-.66.5-.96-.05-.48-.91-1.02-.73-1.7-.17-1.18.99-2.45,1.87-3.61,2.88-.66.58-.89.16-1.24-.29-.34-.43-.63-.73.03-1.2,1.34-.95,2.6-2,3.89-3.02.24-.19.52-.35.55-.77Z"/>
      <path class="cls-12" d="M131.6,5.94c.83.04,1.83.43,2.67,1.19.19.17.76.35.25.74-.32.25-.63.82-1.17.22-.42-.46-.99-.72-1.62-.8-.51-.06-1-.02-1.24.47-.26.53.07.91.49,1.21.61.43,1.25.83,1.85,1.29.78.6,1.28,1.34.96,2.39-.33,1.06-1.13,1.5-2.16,1.59-1.59.14-2.94-.46-4.12-1.49-.23-.2-.65-.44-.14-.78.32-.21.59-.78,1.09-.22.54.6,1.22.99,2.01,1.15.59.12,1.2.11,1.52-.52.33-.65-.17-1.02-.6-1.35-.48-.38-1.01-.7-1.5-1.07-1.13-.83-1.49-1.66-1.15-2.59.36-.99,1.25-1.49,2.87-1.45Z"/>
      <path class="cls-12" d="M165.18,19.91c.21.1.41.23.64.31.81.28,1-.47,1.27-.89.45-.68.8-.43,1.32-.13.65.37.28.69.07,1.05-.7,1.16-.69,1.14.42,1.88.32.21.98.26.54,1.01-.4.68-.73.46-1.2.16-1.2-.75-1.21-.73-1.95.48-.45.73-.91,1.44-1.34,2.18-.6,1.04-.48,1.56.59,2.03.55.24.58.5.41,1-.23.69-.64.32-.97.2-2.27-.86-2.76-2.34-1.49-4.42.48-.79.97-1.57,1.45-2.35.3-.49.45-.94-.2-1.28-.24-.12-.38-.3-.18-.57.18-.23.24-.58.61-.65Z"/>
      <path class="cls-6" d="M185.96,36.36c1.84.03,3.72,1.45,4.14,3.13.07.29.25.65-.26.68-.36.02-.83.38-1.06-.2-.16-.38-.25-.78-.55-1.09-.73-.74-1.59-1.09-2.6-.7-1.21.46-2.01,1.31-2.15,2.63-.12,1.07.4,1.84,1.33,2.34.24.13.5.23.77.28.66.12.41.58.39.96-.02.55-.39.46-.73.4-1.97-.36-3.74-2.66-3.53-4.58.23-2.08,2.21-3.86,4.27-3.83Z"/>
    </g>
    <g>
      <path class="cls-7" d="M105.55,22.4c25.66.46,49.73,9.86,69.76,28.99,13.88,13.26,23.4,29.21,28.21,47.86,1.2,4.64,2.31,9.31,2.84,14.08.07.62.3.75.9.77,3.35.09,6.71.08,10.04.6,2.13.33,3.77,1.34,5.05,3.16,3.79,5.41,3.89,11.14.2,16.45-1.07,1.54-2.5,2.47-4.26,3.01-3.31,1.03-6.7,1.32-10.14,1.26-1.74-.03-1.71,0-2,1.76-2.01,12.13-5.31,23.84-11.33,34.67-14.13,25.42-35.08,42.39-62.99,50.58-14.83,4.35-29.97,5.27-45.16,2.53-32.36-5.82-56.92-23.02-73.37-51.52-7.77-13.46-11.91-28.09-13.02-43.61C-2.29,97.16,14.51,61.85,43.99,41.27c13.49-9.41,28.37-15.33,44.63-17.76,4.95-.74,9.94-1.06,16.93-1.11ZM103.61,26.8c-6.18.12-12.29.6-18.33,1.78-21.32,4.14-39.64,13.92-54.26,29.97C9.25,82.45.85,110.65,5.89,142.58c3.22,20.41,12.32,38.14,26.91,52.77,20.96,21.02,46.46,30.87,76.15,29.58,13.81-.6,26.99-4.02,39.2-10.45,30.75-16.21,48.59-41.7,53.78-76.06.11-.76,0-1-.83-.99-4.59.06-9.18.06-13.77.05-.67,0-.9.17-1.03.87-1.06,5.51-2.12,11.04-4.11,16.31-7.49,19.78-20.39,34.98-39.06,44.99-18.69,10.02-38.51,12.59-59.15,7.63-20.19-4.85-36.44-15.84-48.49-32.72-11.78-16.5-16.84-35.01-15.28-55.26,1.21-15.72,6.46-30.03,15.85-42.66,14.45-19.43,33.82-30.68,57.87-33.7,12.79-1.61,25.3-.11,37.44,4.17,27.76,9.79,50.1,34.16,54.98,67,.1.69.32.9,1.02.9,4.56-.02,9.11-.02,13.67.05.95.01,1.04-.31.95-1.12-.32-2.69-.94-5.32-1.45-7.98-2.69-13.99-8.27-26.78-16.76-38.15-19.99-26.74-46.95-40.08-80.17-41.02ZM199.31,134.92v-.03c3.84,0,7.67,0,11.51,0,1.44,0,2.88-.13,4.27-.5,1.64-.43,3.37-.73,4.38-2.37.57-.94,1.1-1.89,1.49-2.92,1.46-3.78-.46-10.27-5.71-11.2-.98-.17-1.95-.33-2.96-.33-5.03,0-10.06,0-15.09-.03-4.11-.03-8.22.12-12.33-.09-.97-.05-1.29-.49-1.4-1.37-.16-1.29-.37-2.58-.63-3.85-1.27-6.24-2.76-12.42-5.38-18.28-15.17-34.05-49.87-53.18-86.71-47.44-18.87,2.94-34.85,11.7-47.43,26.11-16.54,18.93-22.94,41.07-19.28,65.89,2.53,17.14,10.06,32.06,22.44,44.21,19.42,19.05,42.87,26.77,69.75,22.7,21.13-3.19,38.25-13.75,51.36-30.66,8.52-10.98,13.47-23.5,15.66-37.17.45-2.81-.19-2.56,3.2-2.66,4.28-.13,8.56-.03,12.85-.03Z"/>
      <path class="cls-13" d="M103.61,26.8c33.22.94,60.18,14.28,80.17,41.02,8.49,11.37,14.07,24.15,16.76,38.15.51,2.66,1.14,5.29,1.45,7.98.1.81,0,1.13-.95,1.12-4.56-.07-9.11-.06-13.67-.05-.7,0-.92-.21-1.02-.9-4.88-32.85-27.22-57.21-54.98-67-12.15-4.28-24.65-5.78-37.44-4.17-24.05,3.02-43.42,14.27-57.87,33.7-9.39,12.63-14.64,26.94-15.85,42.66-1.56,20.25,3.5,38.76,15.28,55.26,12.05,16.88,28.3,27.86,48.49,32.72,20.63,4.96,40.46,2.39,59.15-7.63,18.67-10.01,31.57-25.21,39.06-44.99,1.99-5.27,3.05-10.8,4.11-16.31.13-.69.35-.87,1.03-.87,4.59.02,9.18,0,13.77-.05.83-.01.95.23.83.99-5.19,34.36-23.02,59.85-53.78,76.06-12.21,6.44-25.39,9.85-39.2,10.45-29.69,1.29-55.19-8.56-76.15-29.58-14.59-14.63-23.68-32.36-26.91-52.77-5.04-31.93,3.36-60.12,25.13-84.03,14.62-16.06,32.95-25.83,54.26-29.97,6.04-1.17,12.14-1.66,18.33-1.78Z"/>
      <path class="cls-13" d="M199.31,134.92c-4.28,0-8.57-.1-12.85.03-3.39.1-2.75-.15-3.2,2.66-2.18,13.67-7.14,26.19-15.66,37.17-13.11,16.91-30.23,27.47-51.36,30.66-26.88,4.06-50.33-3.65-69.75-22.7-12.38-12.14-19.91-27.06-22.44-44.21-3.66-24.83,2.74-46.96,19.28-65.89,12.58-14.41,28.56-23.17,47.43-26.11,36.84-5.75,71.54,13.38,86.71,47.44,2.61,5.86,4.1,12.03,5.38,18.28.26,1.27.47,2.56.63,3.85.11.88.43,1.32,1.4,1.37,4.11.21,8.22.06,12.33.09,5.03.04,10.06.03,15.09.03,1,0,1.98.15,2.96.33,5.24.92,7.16,7.41,5.71,11.2-.4,1.03-.92,1.98-1.49,2.92-1.01,1.64-2.74,1.94-4.38,2.37-1.39.37-2.83.5-4.27.5-3.84,0-7.67,0-11.51,0v.03ZM104.9,54.67c-39.46-.71-72.06,30.66-72.66,70.14-.6,39.37,30.31,71.51,69.36,72.46,40.19.98,72.69-30.33,73.26-70.4.56-39.24-30.62-71.39-69.96-72.2Z"/>
      <path class="cls-5" d="M104.9,54.67c39.34.82,70.52,32.96,69.96,72.2-.57,40.07-33.08,71.38-73.26,70.4-39.05-.95-69.97-33.09-69.36-72.46.61-39.48,33.2-70.85,72.66-70.14ZM83.58,183.67c3.91-4.91,8.89-8.18,15.03-9.54,5.43-1.2,10.96-1.66,16.52-1.75,7.05-.12,13.61-2.15,19.94-5.08,1.14-.53,2.24-1.19,3.11-2.17-.95.3-1.81.76-2.73,1.09-7.43,2.71-15.08,3.98-22.98,3.35-4.65-.37-9.14.17-13.55,1.67-6.54,2.22-11.85,6.02-15.5,11.98-.65.97-1.09,2.02-1.26,3.19.48-.91.95-1.82,1.43-2.74ZM149.68,111.41c-.24-.29-.46-.6-.73-.86-4.95-4.59-10.77-7.29-17.51-7.97-3.59-.36-7.1.23-10.6.9-.15-.04-.31-.08-.46-.13l-2.31-5.9c-.2-3.06-.7-6.09-1.19-9.12-.71-4.42-1.57-8.81-3.12-13.02-.22-.6-.32-1.5-1.2-1.47-.76.02-.79.86-.98,1.4-1.02,2.86-1.98,5.75-2.98,8.62-.22.63-.55,1.19-1.3,1.32-.83-.52-1.66-1.05-2.5-1.57-.22-.82,0-1.51.51-2.2,2.77-3.86,5.71-7.6,8.34-11.57.17-.26.61-.51.37-.87-.2-.31-.64-.17-.97-.14-2.89.29-5.73.84-8.54,1.58-6.17,1.61-12.14,3.77-17.92,6.46-2.16,1.01-4.39,1.91-6.37,3.29-.73.28-1.46.58-2.2.83-13.46,4.47-22.68,17.17-22.59,31.36.06,8.37,2.84,15.87,7.71,22.67,3.19,4.44,6.93,8.39,10.66,12.36,3.43,3.65,6.33,7.65,7.76,12.55.76,2.63.65,5.31.67,7.99.02-.39.19-.77.22-1.16.38-5.11-.16-10.04-2.71-14.62-2.35-4.22-5.54-7.81-8.57-11.52-4.57-5.59-8.5-11.58-10.76-18.53-1.66-5.12-2.14-10.32-1.06-15.6,2.53-12.41,12.24-21.51,25.05-23.55,11.75-1.86,23.99,4.23,30.01,14.98,1.17,2.09,2.12,4.29,2.48,6.69-.19.3-.48.46-.79.63-1.89,1.04-3.72,2.17-5.49,3.41-2.89,2.03-4.97,4.7-6.09,8.03-.73,2.16-.62,2.32,1.76,2.76.03,0,.07,0,.1,0,4.88.2,9.6-.49,14.15-2.3.51-.2.76-.51.82-1.05.26-2.18.33-4.35.03-6.53-.12-.85-.41-1.76.23-2.56.87-.51,1.85-.69,2.83-.84,8.79-1.35,16.35,1.12,22.7,7.31-.25.4-.48.82-.74,1.21-1.14,1.7-2.23,3.42-3.14,5.26-.77,1.54-.93,2.77.61,3.88.38.27.62.72.95,1.06,2.87,2.94,6.25,5.15,9.93,6.93-.08,1.16-.15,2.32-.26,3.48-1,10.46-9.83,20.01-20.16,21.99-6.43,1.23-12.93,1.92-19.42,2.65-5.15.58-10.26,1.38-15.1,3.31-8.7,3.47-15.33,8.95-17.6,18.55-.23.56-.29,1.14-.21,1.73.22-.56.5-1.1.49-1.71,1.51-4.51,4.46-7.98,8.03-10.96,5.64-4.72,12.41-6.67,19.53-7.62,7.47-1,14.99-1.41,22.48-2.25,11.82-1.32,22.54-11.05,24.85-22.7.4-2.02.46-4.06.73-6.09.19-.56-.11-1.07-.12-1.62-.04-5.15-1.53-9.87-4.35-14.17-1.17-1.79-2.28-3.64-4-4.99ZM58.38,140.07c1.51,1.11,2.67,2.59,3.8,4.01,4.22,5.33,8.33,10.74,11.81,16.63,2.8,4.74,4.29,9.85,5.31,15.18.19.97.01,1.91.14,2.89.23-.39.39-.79.44-1.2.51-4.08.06-8.11-.76-12.11-1.11-5.39-4.09-9.81-7.42-14.01-3.1-3.91-6.99-7.02-10.85-10.13-.73-.59-1.56-1-2.47-1.26ZM105.85,179.02c-.32-.38-.64-.34-.94-.34-2.76-.03-5.52-.13-8.27.33-3.88.64-7.46,1.94-10.56,4.38-1.18.93-2.21,2.02-3,3.61,6.7-5.68,14.55-7.23,22.77-7.98ZM93.95,102.82c-.48.1-1.1.27-1.62.7-.39.31-.51.59.11.74.76.19,1.06.53.55,1.28-.19.28-.43.68.1.94.48.23.81.06.95-.41.26-.88.72-.81,1.32-.34.21.17.46.37.64-.05.46-1.01-.75-2.85-2.05-2.87ZM129.2,124.7c-.02.39-.04.66.36.71.38.04.73,0,.78-.43.1-.87.41-1.24,1.3-.77.61.32.63-.09.53-.53-.22-.89-.6-1.77-1.52-2.05-.93-.28-1.72.22-2.36.91-.16.17-.4.32-.32.6.09.32.4.22.61.23.73.02.98.34.69,1.03-.05.12-.06.26-.07.29ZM82.83,187.82c.1-.13.17-.2.21-.29.06-.15.25-.42-.13-.34-.17.04-.22.31-.08.63Z"/>
      <path class="cls-4" d="M118.08,97.46c.77,1.97,1.54,3.93,2.31,5.9-1.26.13-2.29.9-3.46,1.25-.35-2.41-1.3-4.6-2.48-6.69-6.02-10.75-18.26-16.85-30.01-14.98-12.81,2.03-22.52,11.13-25.05,23.55-1.08,5.28-.6,10.48,1.06,15.6,2.26,6.96,6.19,12.94,10.76,18.53,3.03,3.71,6.22,7.3,8.57,11.52,2.55,4.58,3.09,9.51,2.71,14.62-.03.39-.21.78-.22,1.16-.02-2.67.09-5.36-.67-7.99-1.42-4.91-4.33-8.91-7.76-12.55-3.73-3.97-7.47-7.91-10.66-12.36-4.88-6.79-7.66-14.29-7.71-22.67-.1-14.19,9.12-26.89,22.59-31.36.74-.25,1.47-.55,2.2-.83,3.08-.43,6.17-.72,9.27-.87,3.98.17,7.83.93,11.52,2.48,1.26.62,2.53,1.23,3.79,1.85.83.52,1.66,1.05,2.5,1.57.98.75,1.96,1.5,2.94,2.25,1.76,1.49,3.16,3.33,4.75,4.99,1.02,1.68,2.05,3.36,3.07,5.03Z"/>
      <path class="cls-9" d="M158.14,132.2c-.27,2.03-.33,4.08-.73,6.09-2.31,11.65-13.02,21.38-24.85,22.7-7.49.84-15.01,1.25-22.48,2.25-7.12.95-13.89,2.9-19.53,7.62-3.56,2.98-6.52,6.45-8.03,10.96-.09,0-.19-.01-.28-.02,2.27-9.6,8.9-15.08,17.6-18.55,4.84-1.93,9.96-2.73,15.1-3.31,6.49-.73,12.99-1.42,19.42-2.65,10.33-1.98,19.16-11.53,20.16-21.99.11-1.16.17-2.32.26-3.48,1.12.12,2.24.25,3.35.37Z"/>
      <path class="cls-10" d="M116.92,104.62c1.18-.36,2.2-1.13,3.46-1.25.15.04.31.08.46.13.27,1.17.54,2.35.8,3.52-.64.8-.35,1.7-.23,2.56.31,2.18.24,4.36-.03,6.53-.06.53-.31.85-.82,1.05-4.55,1.81-9.28,2.5-14.15,2.3-.03,0-.07,0-.1,0-2.38-.44-2.49-.6-1.76-2.76,1.13-3.33,3.2-6.01,6.09-8.03,1.77-1.24,3.6-2.36,5.49-3.41.3-.17.6-.32.79-.63ZM108.65,116.51c2.77-.1,5.38-.51,7.97-1.07,1.45-.31,1.44-.35,1.49-1.89.04-1.47-.11-2.93-.19-4.39-.05-.92-.37-.84-.96-.46-1.75,1.13-3.54,2.2-5.24,3.39-1.52,1.07-2.37,2.65-3.07,4.42Z"/>
      <path class="cls-10" d="M158.14,132.2c-1.12-.13-2.23-.25-3.35-.37-3.68-1.78-7.06-3.99-9.93-6.93-.33-.34-.58-.79-.95-1.06-1.54-1.1-1.38-2.34-.61-3.88.92-1.84,2-3.56,3.14-5.26.26-.39.5-.81.74-1.21.97-.53,1.56-1.51,2.5-2.07,1.72,1.35,2.83,3.2,4,4.99,2.81,4.3,4.3,9.02,4.35,14.17,0,.54.3,1.06.12,1.62ZM154.42,128.36c0-1.1-.34-2-.53-2.92-.65-3.2-2.2-6.01-3.95-8.72-.22-.34-.41-.41-.67-.02-1.06,1.59-2.19,3.14-2.87,4.95-.2.52-.07.8.35,1.12,1,.77,1.95,1.61,2.94,2.39,1.47,1.16,3.03,2.19,4.73,3.19Z"/>
      <path class="cls-10" d="M89.51,79.3c-3.1.15-6.19.44-9.27.87,1.98-1.37,4.2-2.28,6.37-3.29,5.78-2.69,11.75-4.85,17.92-6.46,2.81-.73,5.65-1.29,8.54-1.58.32-.03.76-.17.97.14.24.36-.2.6-.37.87-2.63,3.97-5.57,7.71-8.34,11.57-.5.69-.72,1.38-.51,2.2-1.26-.62-2.53-1.23-3.79-1.85,2.18-2.82,4.36-5.64,6.53-8.46-6.58,1.01-12.74,3.05-18.82,5.71.34.12.56.2.77.27Z"/>
      <path class="cls-11" d="M83.41,183.22c3.65-5.96,8.96-9.76,15.5-11.98,4.4-1.5,8.9-2.04,13.55-1.67,7.9.64,15.56-.64,22.98-3.35.91-.33,1.78-.79,2.73-1.09-.87.98-1.96,1.64-3.11,2.17-6.33,2.93-12.89,4.97-19.94,5.08-5.56.09-11.08.55-16.52,1.75-6.14,1.36-11.12,4.62-15.03,9.53-.06-.15-.11-.3-.17-.45Z"/>
      <path class="cls-4" d="M149.68,111.41c-.94.56-1.53,1.54-2.5,2.07-6.36-6.19-13.91-8.66-22.7-7.31-.98.15-1.96.33-2.83.84-.27-1.17-.54-2.35-.8-3.52,3.5-.67,7.01-1.26,10.6-.9,6.74.67,12.55,3.38,17.51,7.97.27.25.49.57.73.86Z"/>
      <path class="cls-10" d="M58.38,140.07c.91.25,1.74.67,2.47,1.26,3.86,3.11,7.75,6.22,10.85,10.13,3.33,4.2,6.31,8.61,7.42,14.01.82,4,1.28,8.02.76,12.11-.05.41-.21.81-.44,1.2-.13-.97.05-1.92-.14-2.89-1.02-5.33-2.52-10.44-5.31-15.18-3.47-5.88-7.59-11.29-11.81-16.63-1.13-1.42-2.28-2.9-3.8-4.01Z"/>
      <path class="cls-10" d="M118.08,97.46c-1.02-1.68-2.05-3.36-3.07-5.03-.55-3.78-1.1-7.55-2.47-11.4-1.13,2.17-1.42,4.4-2.28,6.41-.98-.75-1.96-1.5-2.94-2.25.74-.14,1.08-.69,1.29-1.32,1-2.87,1.96-5.75,2.98-8.62.19-.54.23-1.38.98-1.4.87-.03.97.87,1.2,1.47,1.55,4.22,2.41,8.6,3.12,13.02.49,3.03.99,6.05,1.19,9.12Z"/>
      <path class="cls-10" d="M105.85,179.02c-8.22.74-16.08,2.3-22.77,7.98.79-1.59,1.82-2.69,3-3.61,3.11-2.44,6.69-3.74,10.56-4.38,2.76-.46,5.51-.36,8.27-.33.3,0,.62-.03.94.34Z"/>
      <path class="cls-11" d="M93.95,102.82c1.3.02,2.51,1.86,2.05,2.87-.19.41-.43.21-.64.05-.6-.47-1.06-.54-1.32.34-.14.47-.47.64-.95.41-.53-.26-.29-.66-.1-.94.51-.76.22-1.1-.55-1.28-.62-.15-.5-.43-.11-.74.52-.42,1.14-.59,1.62-.7Z"/>
      <path class="cls-11" d="M129.2,124.7s.01-.17.07-.29c.29-.7.05-1.01-.69-1.03-.21,0-.52.09-.61-.23-.08-.28.16-.43.32-.6.64-.69,1.43-1.19,2.36-.91.92.28,1.29,1.16,1.52,2.05.11.44.08.85-.53.53-.9-.47-1.2-.1-1.3.77-.05.44-.4.48-.78.43-.4-.05-.38-.32-.36-.71Z"/>
      <path class="cls-6" d="M83.41,183.22c.06.15.11.3.17.45-.48.91-.95,1.82-1.43,2.74.17-1.17.61-2.22,1.26-3.19Z"/>
      <path class="cls-6" d="M82.25,181.8c.09,0,.19.01.28.02.01.62-.27,1.15-.49,1.71-.08-.59-.01-1.17.21-1.73Z"/>
      <path class="cls-10" d="M82.83,187.82c-.14-.32-.09-.59.08-.63.38-.08.19.19.13.34-.04.09-.11.16-.21.29Z"/>
      <path class="cls-5" d="M89.51,79.3c-.22-.08-.43-.15-.77-.27,6.08-2.67,12.25-4.71,18.82-5.71-2.18,2.82-4.36,5.64-6.53,8.46-3.69-1.54-7.54-2.3-11.52-2.48Z"/>
      <path class="cls-8" d="M110.25,87.44c.86-2.01,1.15-4.24,2.28-6.41,1.37,3.85,1.93,7.62,2.47,11.4-1.59-1.66-2.99-3.49-4.76-4.99Z"/>
      <path class="cls-5" d="M108.65,116.51c.69-1.76,1.55-3.35,3.07-4.42,1.7-1.2,3.49-2.26,5.24-3.39.59-.38.91-.46.96.46.07,1.46.23,2.92.19,4.39-.04,1.55-.04,1.58-1.49,1.89-2.59.56-5.2.97-7.97,1.07Z"/>
      <path class="cls-5" d="M154.42,128.36c-1.71-1-3.26-2.03-4.73-3.19-.99-.78-1.94-1.62-2.94-2.39-.42-.32-.54-.6-.35-1.12.68-1.81,1.81-3.36,2.87-4.95.26-.39.45-.33.67.02,1.75,2.71,3.29,5.51,3.95,8.72.19.92.53,1.82.53,2.92Z"/>
    </g>
  </g>
</svg>